0
SECTION
2
HEADER
9
$INSUNITS
70
4
9
$ACADVER
1
AC1014
9
$HANDSEED
5
FFFF
0
ENDSEC
0
SECTION
2
TABLES
0
TABLE
2
VPORT
5
8
100
AcDbSymbolTable
0
ENDTAB
0
TABLE
2
LTYPE
5
5
100
AcDbSymbolTable
0
LTYPE
5
14
100
AcDbSymbolTableRecord
100
AcDbLinetypeTableRecord
2
BYBLOCK
70
0
0
LTYPE
5
15
100
AcDbSymbolTableRecord
100
AcDbLinetypeTableRecord
2
BYLAYER
70
0
0
ENDTAB
0
TABLE
2
LAYER
5
2
100
AcDbSymbolTable
70
2
0
LAYER
5
50
100
AcDbSymbolTableRecord
100
AcDbLayerTableRecord
2
0
70
0
6
CONTINUOUS
0
ENDTAB
0
TABLE
2
STYLE
5
3
100
AcDbSymbolTable
70
1
0
STYLE
5
11
100
AcDbSymbolTableRecord
100
AcDbTextStyleTableRecord
2
STANDARD
70
0
0
ENDTAB
0
TABLE
2
VIEW
5
6
100
AcDbSymbolTable
70
0
0
ENDTAB
0
TABLE
2
UCS
5
7
100
AcDbSymbolTable
70
0
0
ENDTAB
0
TABLE
2
APPID
5
9
100
AcDbSymbolTable
70
2
0
APPID
5
12
100
AcDbSymbolTableRecord
100
AcDbRegAppTableRecord
2
ACAD
70
0
0
ENDTAB
0
TABLE
2
DIMSTYLE
5
A
100
AcDbSymbolTable
70
1
0
ENDTAB
0
TABLE
2
BLOCK_RECORD
5
1
100
AcDbSymbolTable
70
1
0
BLOCK_RECORD
5
1F
100
AcDbSymbolTableRecord
100
AcDbBlockTableRecord
2
*MODEL_SPACE
0
BLOCK_RECORD
5
1B
100
AcDbSymbolTableRecord
100
AcDbBlockTableRecord
2
*PAPER_SPACE
0
ENDTAB
0
ENDSEC
0
SECTION
2
BLOCKS
0
BLOCK
5
20
100
AcDbEntity
100
AcDbBlockBegin
2
*MODEL_SPACE
0
ENDBLK
5
21
100
AcDbEntity
100
AcDbBlockEnd
0
BLOCK
5
1C
100
AcDbEntity
100
AcDbBlockBegin
2
*PAPER_SPACE
0
ENDBLK
5
1D
100
AcDbEntity
100
AcDbBlockEnd
0
ENDSEC
0
SECTION
2
ENTITIES
0
CIRCLE
5
100
100
AcDbEntity
8
0
100
AcDbCircle
10
-98.775000000000063
20
-43.867432672546713
30
-2.2204460492503131e-15
40
1.6999999999999926
210
-9.8607613152626476e-32
220
7.2928918466302765e-46
230
1
0
CIRCLE
5
101
100
AcDbEntity
8
0
100
AcDbCircle
10
98.774999999999864
20
-43.867432672548219
30
-2.2204460492503131e-15
40
1.6999999999999926
210
-9.8607613152626476e-32
220
7.2928918466302765e-46
230
1
0
CIRCLE
5
102
100
AcDbEntity
8
0
100
AcDbCircle
10
-98.774999999999636
20
41.893789192135898
30
-2.2204460492503131e-15
40
1.6999999999999926
210
-9.8607613152626476e-32
220
7.2928918466302765e-46
230
1
0
CIRCLE
5
103
100
AcDbEntity
8
0
100
AcDbCircle
10
98.775000000000432
20
41.893789192132438
30
0
40
1.6999999999999926
210
-9.8607613152626476e-32
220
7.2928918466302765e-46
230
1
0
LINE
5
104
100
AcDbEntity
8
0
100
AcDbLine
10
-98.774999999999991
20
-47.542756914559249
30
-2.2204460492503131e-15
11
98.774999999999821
21
-47.542756914560712
31
-2.2204460492503131e-15
0
SPLINE
5
105
100
AcDbEntity
8
0
100
AcDbSpline
70
0
71
3
72
17
73
13
74
0
42
0.000000001
43
0.0000000001
44
0.0000000001
40
2.8849357864999913e-33
40
2.8849357864999913e-33
40
2.8849357864999913e-33
40
2.8849357864999913e-33
40
0.48539788128457412
40
0.48539788128457412
40
0.48539788128457412
40
0.78539816339744828
40
0.78539816339744828
40
0.78539816339744828
40
1.0853984455103225
40
1.0853984455103225
40
1.0853984455103225
40
1.5707963267948966
40
1.5707963267948966
40
1.5707963267948966
40
1.5707963267948966
10
98.774999999999821
20
-47.542756914560698
30
-2.2204460492503131e-15
10
99.867704796835696
20
-47.542756914560712
30
-4.4408920985006262e-15
10
100.97910340211486
20
-47.267278780454461
30
-2.2204460492503131e-15
10
101.94600798078778
20
-46.756545234027406
30
0
10
102.54588067055536
20
-46.439683453653736
30
-2.2204460492503131e-15
10
103.10194083251325
20
-46.029108360336004
30
-4.4408920985006262e-15
10
103.58177507677564
20
-45.548615617468855
30
-2.2204460492503131e-15
10
104.06160686271014
20
-45.068125336303254
30
-2.2204460492503131e-15
10
104.47190858756512
20
-44.511003526136463
30
-2.2204460492503131e-15
10
104.78868365169028
20
-43.909647860195392
30
0
10
105.29926896940884
20
-42.940368997907548
30
-2.2204460492503131e-15
10
105.57499999999989
20
-41.82536768928145
30
-2.2204460492503131e-15
10
105.57499999999989
20
-40.72903345458154
30
0
0
LINE
5
106
100
AcDbEntity
8
0
100
AcDbLine
10
105.57499999999987
20
-40.729033454581526
30
5.0901226991947923e-32
11
105.57500000000047
21
38.755389974168352
31
0
0
SPLINE
5
107
100
AcDbEntity
8
0
100
AcDbSpline
70
0
71
3
72
11
73
7
74
0
42
0.000000001
43
0.0000000001
44
0.0000000001
40
-1.5707963267948968
40
-1.5707963267948968
40
-1.5707963267948968
40
-1.5707963267948968
40
-1.5681795528040297
40
-1.5681795528040297
40
-1.5681795528040297
40
-1.5655627788131625
40
-1.5655627788131625
40
-1.5655627788131625
40
-1.5655627788131625
10
105.57500000000049
20
38.755389974168359
30
-2.2204460492503131e-15
10
105.57500000000049
20
38.761337123128897
30
-2.2204460492503131e-15
10
105.5749922294832
20
38.767284275376099
30
0
10
105.57497668848407
20
38.773231403891067
30
-2.2204460492503131e-15
10
105.57496114748494
20
38.779178532412637
30
0
10
105.57493783598682
20
38.785125643780269
30
-2.2204460492503131e-15
10
105.57490675409625
20
38.791072710975214
30
-2.2204460492503131e-15
0
SPLINE
5
108
100
AcDbEntity
8
0
100
AcDbSpline
70
0
71
3
72
17
73
13
74
0
42
0.000000001
43
0.0000000001
44
0.0000000001
40
-1.5655627788131625
40
-1.5655627788131625
40
-1.5655627788131625
40
-1.5655627788131625
40
-1.0842945795343528
40
-1.0842945795343528
40
-1.0842945795343528
40
-0.78539816339744861
40
-0.78539816339744861
40
-0.78539816339744861
40
-0.48650174726054451
40
-0.48650174726054451
40
-0.48650174726054451
40
-4.9960036108132034e-16
40
-4.9960036108132034e-16
40
-4.9960036108132034e-16
40
-4.9960036108132034e-16
10
105.57490675409625
20
38.791072710975214
30
-2.2204460492503131e-15
10
105.56922526799161
20
39.878142352052095
30
-2.2204460492503131e-15
10
105.2925207170033
20
40.982098229712548
30
-2.2204460492503131e-15
10
104.78517480834972
20
41.94265655621507
30
-2.2204460492503131e-15
10
104.46890008038872
20
42.541459696682836
30
-2.2204460492503131e-15
10
104.05984969138896
20
43.096241438657472
30
-4.4408920985006262e-15
10
103.5817750767763
20
43.574972137054203
30
-2.2204460492503131e-15
10
103.10369803912108
20
44.053705261818735
30
-4.4408920985006262e-15
10
102.54997240150774
20
44.463029482660218
30
-2.2204460492503131e-15
10
101.95264380139818
20
44.779391923917295
30
-2.2204460492503131e-15
10
100.98413029909651
20
45.292344586693531
30
-2.2204460492503131e-15
10
99.870159370266393
20
45.569113434146125
30
-2.2204460492503131e-15
10
98.77500000000056
20
45.569113434146132
30
-2.2204460492503131e-15
0
LINE
5
109
100
AcDbEntity
8
0
100
AcDbLine
10
98.775000000000546
20
45.569113434146132
30
-2.2204460492503131e-15
11
-98.774999999999537
21
45.569113434147617
31
-2.2204460492502973e-15
0
SPLINE
5
110
100
AcDbEntity
8
0
100
AcDbSpline
70
0
71
3
72
17
73
13
74
0
42
0.000000001
43
0.0000000001
44
0.0000000001
40
-3.8465810486666548e-34
40
-3.8465810486666548e-34
40
-3.8465810486666548e-34
40
-3.8465810486666548e-34
40
0.48650174726054446
40
0.48650174726054446
40
0.48650174726054446
40
0.78539816339744872
40
0.78539816339744872
40
0.78539816339744872
40
1.0842945795343528
40
1.0842945795343528
40
1.0842945795343528
40
1.5655627788131632
40
1.5655627788131632
40
1.5655627788131632
40
1.5655627788131632
10
-98.774999999999537
20
45.569113434147617
30
-2.2204460492503131e-15
10
-99.870159370265384
20
45.569113434147624
30
-2.2204460492503131e-15
10
-100.9841302990955
20
45.292344586695052
30
-2.2204460492503131e-15
10
-101.9526438013972
20
44.779391923918837
30
-2.2204460492503131e-15
10
-102.54997240150679
20
44.46302948266176
30
-2.2204460492503131e-15
10
-103.10369803912012
20
44.053705261820298
30
-2.2204460492503131e-15
10
-103.58177507677533
20
43.574972137055767
30
-2.2204460492503131e-15
10
-104.059849691388
20
43.09624143865905
30
-2.2204460492503131e-15
10
-104.4689000803878
20
42.541459696684427
30
0
10
-104.7851748083488
20
41.94265655621664
30
-2.2204460492503131e-15
10
-105.2925207170024
20
40.982098229714111
30
-2.2204460492503131e-15
10
-105.56922526799072
20
39.878142352053686
30
0
10
-105.57490675409537
20
38.791072710976799
30
-2.2204460492503131e-15
0
SPLINE
5
111
100
AcDbEntity
8
0
100
AcDbSpline
70
0
71
3
72
11
73
7
74
0
42
0.000000001
43
0.0000000001
44
0.0000000001
40
1.5655627788131623
40
1.5655627788131623
40
1.5655627788131623
40
1.5655627788131623
40
1.568179552804029
40
1.568179552804029
40
1.568179552804029
40
1.5707963267948957
40
1.5707963267948957
40
1.5707963267948957
40
1.5707963267948957
10
-105.57490675409534
20
38.791072710976799
30
-2.2204460492503131e-15
10
-105.57493783598589
20
38.785125643785172
30
-2.2204460492503131e-15
10
-105.57496114748402
20
38.779178532417539
30
0
10
-105.57497668848315
20
38.773231403892645
30
-2.2204460492503131e-15
10
-105.57499222948226
20
38.767284275374379
30
-2.2204460492503131e-15
10
-105.57499999999959
20
38.761337123127163
30
0
10
-105.57499999999959
20
38.755389974169951
30
-2.2204460492503131e-15
0
LINE
5
112
100
AcDbEntity
8
0
100
AcDbLine
10
-105.57499999999959
20
38.755389974169951
30
-2.2204460492503131e-15
11
-105.57499999999985
21
-40.729033454579955
31
-2.2204460492503131e-15
0
SPLINE
5
113
100
AcDbEntity
8
0
100
AcDbSpline
70
0
71
3
72
17
73
13
74
0
42
0.000000001
43
0.0000000001
44
0.0000000001
40
-1.5707963267948957
40
-1.5707963267948957
40
-1.5707963267948957
40
-1.5707963267948957
40
-1.0853984455103218
40
-1.0853984455103218
40
-1.0853984455103218
40
-0.78539816339744761
40
-0.78539816339744761
40
-0.78539816339744761
40
-0.4853978812845734
40
-0.4853978812845734
40
-0.4853978812845734
40
4.4408920985006262e-16
40
4.4408920985006262e-16
40
4.4408920985006262e-16
40
4.4408920985006262e-16
10
-105.57499999999987
20
-40.729033454579948
30
-2.2204460492503131e-15
10
-105.57499999999989
20
-41.825367689279851
30
0
10
-105.29926896940887
20
-42.940368997905949
30
-2.2204460492503131e-15
10
-104.78868365169029
20
-43.909647860193843
30
-4.4408920985006262e-15
10
-104.47190858756515
20
-44.511003526134857
30
-2.2204460492503131e-15
10
-104.06160686271019
20
-45.068125336301662
30
0
10
-103.58177507677568
20
-45.548615617467291
30
-2.2204460492503131e-15
10
-103.10194083251332
20
-46.029108360334419
30
-2.2204460492503131e-15
10
-102.54588067055545
20
-46.439683453652201
30
0
10
-101.94600798078787
20
-46.756545234025857
30
-2.2204460492503131e-15
10
-100.97910340211502
20
-47.267278780452941
30
-2.2204460492503131e-15
10
-99.867704796835852
20
-47.54275691455922
30
-2.2204460492503131e-15
10
-98.774999999999991
20
-47.542756914559241
30
-2.2204460492503131e-15
0
ELLIPSE
5
114
100
AcDbEntity
8
0
100
AcDbEllipse
10
53.324999999999989
20
-19.941247889071633
30
0
11
1.6145183157135752e-14
21
2.0374716765920078
31
0.0
40
0.99731447722445787
41
0
42
6.2831853071795862
0
ENDSEC
0
SECTION
2
OBJECTS
0
DICTIONARY
5
C
100
AcDbDictionary
3
ACAD_GROUP
350
D
3
ACAD_MLINESTYLE
350
17
0
DICTIONARY
5
D
100
AcDbDictionary
0
DICTIONARY
5
1A
330
C
100
AcDbDictionary
0
DICTIONARY
5
17
100
AcDbDictionary
0
ENDSEC
0
EOF
