  0
SECTION
  2
HEADER
  9
$ACADVER
  1
AC1032
  9
$ACADMAINTVER
 90
      228
  9
$DWGCODEPAGE
  3
ANSI_1250
  9
$REQUIREDVERSIONS
160
                 0
  9
$INSBASE
 10
0.0
 20
0.0
 30
0.0
  9
$EXTMIN
 10
1.000000000000000E+20
 20
1.000000000000000E+20
 30
1.000000000000000E+20
  9
$EXTMAX
 10
-1.000000000000000E+20
 20
-1.000000000000000E+20
 30
-1.000000000000000E+20
  9
$LIMMIN
 10
0.0
 20
0.0
  9
$LIMMAX
 10
12.0
 20
9.0
  9
$ORTHOMODE
 70
     0
  9
$REGENMODE
 70
     1
  9
$FILLMODE
 70
     1
  9
$QTEXTMODE
 70
     0
  9
$MIRRTEXT
 70
     0
  9
$LTSCALE
 40
1.0
  9
$ATTMODE
 70
     1
  9
$TEXTSIZE
 40
0.2
  9
$TRACEWID
 40
0.05
  9
$TEXTSTYLE
  7
Standard
  9
$CLAYER
  8
0
  9
$CELTYPE
  6
ByLayer
  9
$CECOLOR
 62
   256
  9
$CELTSCALE
 40
1.0
  9
$DISPSILH
 70
     0
  9
$DIMSCALE
 40
1.0
  9
$DIMASZ
 40
0.18
  9
$DIMEXO
 40
0.0625
  9
$DIMDLI
 40
0.38
  9
$DIMRND
 40
0.0
  9
$DIMDLE
 40
0.0
  9
$DIMEXE
 40
0.18
  9
$DIMTP
 40
0.0
  9
$DIMTM
 40
0.0
  9
$DIMTXT
 40
0.18
  9
$DIMCEN
 40
0.09
  9
$DIMTSZ
 40
0.0
  9
$DIMTOL
 70
     0
  9
$DIMLIM
 70
     0
  9
$DIMTIH
 70
     1
  9
$DIMTOH
 70
     1
  9
$DIMSE1
 70
     0
  9
$DIMSE2
 70
     0
  9
$DIMTAD
 70
     0
  9
$DIMZIN
 70
     0
  9
$DIMBLK
  1

  9
$DIMASO
 70
     1
  9
$DIMSHO
 70
     1
  9
$DIMPOST
  1

  9
$DIMAPOST
  1

  9
$DIMALT
 70
     0
  9
$DIMALTD
 70
     2
  9
$DIMALTF
 40
25.4
  9
$DIMLFAC
 40
1.0
  9
$DIMTOFL
 70
     0
  9
$DIMTVP
 40
0.0
  9
$DIMTIX
 70
     0
  9
$DIMSOXD
 70
     0
  9
$DIMSAH
 70
     0
  9
$DIMBLK1
  1

  9
$DIMBLK2
  1

  9
$DIMSTYLE
  2
Standard
  9
$DIMCLRD
 70
     0
  9
$DIMCLRE
 70
     0
  9
$DIMCLRT
 70
     0
  9
$DIMTFAC
 40
1.0
  9
$DIMGAP
 40
0.09
  9
$DIMJUST
 70
     0
  9
$DIMSD1
 70
     0
  9
$DIMSD2
 70
     0
  9
$DIMTOLJ
 70
     1
  9
$DIMTZIN
 70
     0
  9
$DIMALTZ
 70
     0
  9
$DIMALTTZ
 70
     0
  9
$DIMUPT
 70
     0
  9
$DIMDEC
 70
     4
  9
$DIMTDEC
 70
     4
  9
$DIMALTU
 70
     2
  9
$DIMALTTD
 70
     2
  9
$DIMTXSTY
  7
Standard
  9
$DIMAUNIT
 70
     0
  9
$DIMADEC
 70
     0
  9
$DIMALTRND
 40
0.0
  9
$DIMAZIN
 70
     0
  9
$DIMDSEP
 70
    46
  9
$DIMATFIT
 70
     3
  9
$DIMFRAC
 70
     0
  9
$DIMLDRBLK
  1

  9
$DIMLUNIT
 70
     2
  9
$DIMLWD
 70
    -2
  9
$DIMLWE
 70
    -2
  9
$DIMTMOVE
 70
     0
  9
$DIMFXL
 40
1.0
  9
$DIMFXLON
 70
     0
  9
$DIMJOGANG
 40
0.7853981633974483
  9
$DIMTFILL
 70
     0
  9
$DIMTFILLCLR
 70
     0
  9
$DIMARCSYM
 70
     0
  9
$DIMLTYPE
  6

  9
$DIMLTEX1
  6

  9
$DIMLTEX2
  6

  9
$DIMTXTDIRECTION
 70
     0
  9
$LUNITS
 70
     2
  9
$LUPREC
 70
     4
  9
$SKETCHINC
 40
0.1
  9
$FILLETRAD
 40
0.0
  9
$AUNITS
 70
     0
  9
$AUPREC
 70
     0
  9
$MENU
  1
.
  9
$ELEVATION
 40
0.0
  9
$PELEVATION
 40
0.0
  9
$THICKNESS
 40
0.0
  9
$LIMCHECK
 70
     0
  9
$CHAMFERA
 40
0.0
  9
$CHAMFERB
 40
0.0
  9
$CHAMFERC
 40
0.0
  9
$CHAMFERD
 40
0.0
  9
$SKPOLY
 70
     0
  9
$TDCREATE
 40
2460223.705289352
  9
$TDUCREATE
 40
2460223.621956019
  9
$TDUPDATE
 40
2460223.705289352
  9
$TDUUPDATE
 40
2460223.621956019
  9
$TDINDWG
 40
0.0000000000
  9
$TDUSRTIMER
 40
0.0000000000
  9
$USRTIMER
 70
     1
  9
$ANGBASE
 50
0.0
  9
$ANGDIR
 70
     0
  9
$PDMODE
 70
     0
  9
$PDSIZE
 40
0.0
  9
$PLINEWID
 40
0.0
  9
$SPLFRAME
 70
     0
  9
$SPLINETYPE
 70
     6
  9
$SPLINESEGS
 70
     8
  9
$HANDSEED
  5
AD
  9
$SURFTAB1
 70
     6
  9
$SURFTAB2
 70
     6
  9
$SURFTYPE
 70
     6
  9
$SURFU
 70
     6
  9
$SURFV
 70
     6
  9
$UCSBASE
  2

  9
$UCSNAME
  2

  9
$UCSORG
 10
0.0
 20
0.0
 30
0.0
  9
$UCSXDIR
 10
1.0
 20
0.0
 30
0.0
  9
$UCSYDIR
 10
0.0
 20
1.0
 30
0.0
  9
$UCSORTHOREF
  2

  9
$UCSORTHOVIEW
 70
     0
  9
$UCSORGTOP
 10
0.0
 20
0.0
 30
0.0
  9
$UCSORGBOTTOM
 10
0.0
 20
0.0
 30
0.0
  9
$UCSORGLEFT
 10
0.0
 20
0.0
 30
0.0
  9
$UCSORGRIGHT
 10
0.0
 20
0.0
 30
0.0
  9
$UCSORGFRONT
 10
0.0
 20
0.0
 30
0.0
  9
$UCSORGBACK
 10
0.0
 20
0.0
 30
0.0
  9
$PUCSBASE
  2

  9
$PUCSNAME
  2

  9
$PUCSORG
 10
0.0
 20
0.0
 30
0.0
  9
$PUCSXDIR
 10
1.0
 20
0.0
 30
0.0
  9
$PUCSYDIR
 10
0.0
 20
1.0
 30
0.0
  9
$PUCSORTHOREF
  2

  9
$PUCSORTHOVIEW
 70
     0
  9
$PUCSORGTOP
 10
0.0
 20
0.0
 30
0.0
  9
$PUCSORGBOTTOM
 10
0.0
 20
0.0
 30
0.0
  9
$PUCSORGLEFT
 10
0.0
 20
0.0
 30
0.0
  9
$PUCSORGRIGHT
 10
0.0
 20
0.0
 30
0.0
  9
$PUCSORGFRONT
 10
0.0
 20
0.0
 30
0.0
  9
$PUCSORGBACK
 10
0.0
 20
0.0
 30
0.0
  9
$USERI1
 70
     0
  9
$USERI2
 70
     0
  9
$USERI3
 70
     0
  9
$USERI4
 70
     0
  9
$USERI5
 70
     0
  9
$USERR1
 40
0.0
  9
$USERR2
 40
0.0
  9
$USERR3
 40
0.0
  9
$USERR4
 40
0.0
  9
$USERR5
 40
0.0
  9
$WORLDVIEW
 70
     1
  9
$SHADEDGE
 70
     3
  9
$SHADEDIF
 70
    70
  9
$TILEMODE
 70
     1
  9
$MAXACTVP
 70
    64
  9
$PINSBASE
 10
0.0
 20
0.0
 30
0.0
  9
$PLIMCHECK
 70
     0
  9
$PEXTMIN
 10
1.000000000000000E+20
 20
1.000000000000000E+20
 30
1.000000000000000E+20
  9
$PEXTMAX
 10
-1.000000000000000E+20
 20
-1.000000000000000E+20
 30
-1.000000000000000E+20
  9
$PLIMMIN
 10
0.0
 20
0.0
  9
$PLIMMAX
 10
12.0
 20
9.0
  9
$UNITMODE
 70
     0
  9
$VISRETAIN
 70
     1
  9
$PLINEGEN
 70
     0
  9
$PSLTSCALE
 70
     1
  9
$TREEDEPTH
 70
  3020
  9
$CMLSTYLE
  2
Standard
  9
$CMLJUST
 70
     0
  9
$CMLSCALE
 40
1.0
  9
$PROXYGRAPHICS
 70
     1
  9
$MEASUREMENT
 70
     0
  9
$CELWEIGHT
370
    -1
  9
$ENDCAPS
280
     0
  9
$JOINSTYLE
280
     0
  9
$LWDISPLAY
290
     1
  9
$INSUNITS
 70
     4
  9
$HYPERLINKBASE
  1

  9
$STYLESHEET
  1

  9
$XEDIT
290
     1
  9
$CEPSNTYPE
380
     0
  9
$PSTYLEMODE
290
     1
  9
$FINGERPRINTGUID
  2
{B9E2AD32-1F22-5342-BAEE-9F5132BC078F}
  9
$VERSIONGUID
  2
{2DE38AFF-8ACC-2B4A-8659-08552E635F84}
  9
$EXTNAMES
290
     1
  9
$PSVPSCALE
 40
0.0
  9
$OLESTARTUP
290
     0
  9
$SORTENTS
280
   127
  9
$INDEXCTL
280
     0
  9
$HIDETEXT
280
     1
  9
$XCLIPFRAME
280
     2
  9
$HALOGAP
280
     0
  9
$OBSCOLOR
 70
   257
  9
$OBSLTYPE
280
     0
  9
$INTERSECTIONDISPLAY
280
     0
  9
$INTERSECTIONCOLOR
 70
   257
  9
$DIMASSOC
280
     2
  9
$PROJECTNAME
  1

  9
$CAMERADISPLAY
290
     0
  9
$LENSLENGTH
 40
50.0
  9
$CAMERAHEIGHT
 40
0.0
  9
$STEPSPERSEC
 40
2.0
  9
$STEPSIZE
 40
6.0
  9
$3DDWFPREC
 40
2.0
  9
$PSOLWIDTH
 40
0.25
  9
$PSOLHEIGHT
 40
4.0
  9
$LOFTANG1
 40
1.570796326794896
  9
$LOFTANG2
 40
1.570796326794896
  9
$LOFTMAG1
 40
0.0
  9
$LOFTMAG2
 40
0.0
  9
$LOFTPARAM
 70
     7
  9
$LOFTNORMALS
280
     1
  9
$LATITUDE
 40
37.795
  9
$LONGITUDE
 40
-122.394
  9
$NORTHDIRECTION
 40
0.0
  9
$TIMEZONE
 70
 -8000
  9
$LIGHTGLYPHDISPLAY
280
     1
  9
$TILEMODELIGHTSYNCH
280
     1
  9
$CMATERIAL
347
11
  9
$SOLIDHIST
280
     0
  9
$SHOWHIST
280
     1
  9
$DWFFRAME
280
     2
  9
$DGNFRAME
280
     0
  9
$REALWORLDSCALE
290
     1
  9
$INTERFERECOLOR
 62
     1
  9
$INTERFEREOBJVS
345
33
  9
$INTERFEREVPVS
346
30
  9
$CSHADOW
280
     0
  9
$SHADOWPLANELOCATION
 40
0.0
  0
ENDSEC
  0
SECTION
  2
CLASSES
  0
CLASS
  1
ACDBDICTIONARYWDFLT
  2
AcDbDictionaryWithDefault
  3
ObjectDBX Classes
 90
        0
 91
        1
280
     0
281
     0
  0
CLASS
  1
MATERIAL
  2
AcDbMaterial
  3
ObjectDBX Classes
 90
     1153
 91
        3
280
     0
281
     0
  0
CLASS
  1
VISUALSTYLE
  2
AcDbVisualStyle
  3
ObjectDBX Classes
 90
     4095
 91
       24
280
     0
281
     0
  0
CLASS
  1
SCALE
  2
AcDbScale
  3
ObjectDBX Classes
 90
     1153
 91
       17
280
     0
281
     0
  0
CLASS
  1
TABLESTYLE
  2
AcDbTableStyle
  3
ObjectDBX Classes
 90
     4095
 91
        1
280
     0
281
     0
  0
CLASS
  1
MLEADERSTYLE
  2
AcDbMLeaderStyle
  3
ACDB_MLEADERSTYLE_CLASS
 90
     4095
 91
        1
280
     0
281
     0
  0
CLASS
  1
ACDBSECTIONVIEWSTYLE
  2
AcDbSectionViewStyle
  3
ObjectDBX Classes
 90
     1025
 91
        1
280
     0
281
     0
  0
CLASS
  1
ACDBDETAILVIEWSTYLE
  2
AcDbDetailViewStyle
  3
ObjectDBX Classes
 90
     1025
 91
        1
280
     0
281
     0
  0
CLASS
  1
DICTIONARYVAR
  2
AcDbDictionaryVar
  3
ObjectDBX Classes
 90
        0
 91
        5
280
     0
281
     0
  0
CLASS
  1
CELLSTYLEMAP
  2
AcDbCellStyleMap
  3
ObjectDBX Classes
 90
     1152
 91
        1
280
     0
281
     0
  0
ENDSEC
  0
SECTION
  2
TABLES
  0
TABLE
  2
VPORT
  5
8
330
0
100
AcDbSymbolTable
 70
     1
  0
VPORT
  5
57
330
8
100
AcDbSymbolTableRecord
100
AcDbViewportTableRecord
  2
*Active
 70
     0
 10
0.0
 20
0.0
 11
1.0
 21
1.0
 12
0.0
 22
0.0
 13
0.0
 23
0.0
 14
1.0
 24
1.0
 15
0.0
 25
0.0
 16
0.0
 26
0.0
 36
1.0
 17
148.5000119155985
 27
104.9999970067687
 37
0.0
 40
214.1999938938081
 41
1.414285868084602
 42
50.0
 43
0.0
 44
0.0
 50
0.0
 51
0.0
 71
     0
 72
   100
 73
     1
 74
     1
 75
     0
 76
     0
 77
     0
 78
     0
281
     0
 65
     1
110
0.0
120
0.0
130
0.0
111
1.0
121
0.0
131
0.0
112
0.0
122
1.0
132
0.0
 79
     0
146
0.0
 60
     3
 61
     5
292
     1
282
     1
141
0.0
142
0.0
 63
   250
421
  3355443
  0
ENDTAB
  0
TABLE
  2
LTYPE
  5
5
330
0
100
AcDbSymbolTable
 70
     1
  0
LTYPE
  5
5B
330
5
100
AcDbSymbolTableRecord
100
AcDbLinetypeTableRecord
  2
ByBlock
 70
     0
  3

 72
    65
 73
     0
 40
0.0
  0
LTYPE
  5
5C
330
5
100
AcDbSymbolTableRecord
100
AcDbLinetypeTableRecord
  2
ByLayer
 70
     0
  3

 72
    65
 73
     0
 40
0.0
  0
LTYPE
  5
5D
330
5
100
AcDbSymbolTableRecord
100
AcDbLinetypeTableRecord
  2
Continuous
 70
     0
  3
Solid line
 72
    65
 73
     0
 40
0.0
  0
ENDTAB
  0
TABLE
  2
LAYER
  5
2
330
0
100
AcDbSymbolTable
 70
     1
  0
LAYER
  5
54
330
2
100
AcDbSymbolTableRecord
100
AcDbLayerTableRecord
  2
0
 70
     0
 62
     7
  6
Continuous
370
     0
390
F
347
21
348
0
  0
ENDTAB
  0
TABLE
  2
STYLE
  5
3
330
0
100
AcDbSymbolTable
 70
     2
  0
STYLE
  5
55
330
3
100
AcDbSymbolTableRecord
100
AcDbTextStyleTableRecord
  2
Standard
 70
     0
 40
0.0
 41
1.0
 50
0.0
 71
     0
 42
0.2
  3
txt
  4

  0
STYLE
  5
5A
330
3
100
AcDbSymbolTableRecord
100
AcDbTextStyleTableRecord
  2
Annotative
 70
     0
 40
0.0
 41
1.0
 50
0.0
 71
     0
 42
0.2
  3
txt
  4

1001
AcadAnnotative
1000
AnnotativeData
1002
{
1070
     1
1070
     1
1002
}
  0
ENDTAB
  0
TABLE
  2
VIEW
  5
6
330
0
100
AcDbSymbolTable
 70
     0
  0
ENDTAB
  0
TABLE
  2
UCS
  5
7
330
0
100
AcDbSymbolTable
 70
     0
  0
ENDTAB
  0
TABLE
  2
APPID
  5
9
330
0
100
AcDbSymbolTable
 70
     2
  0
APPID
  5
56
330
9
100
AcDbSymbolTableRecord
100
AcDbRegAppTableRecord
  2
ACAD
 70
     0
  0
APPID
  5
5E
330
9
100
AcDbSymbolTableRecord
100
AcDbRegAppTableRecord
  2
AcadAnnotative
 70
     0
  0
ENDTAB
  0
TABLE
  2
DIMSTYLE
  5
A
330
0
100
AcDbSymbolTable
 70
     2
100
AcDbDimStyleTable
 71
     0
  0
DIMSTYLE
105
58
330
A
100
AcDbSymbolTableRecord
100
AcDbDimStyleTableRecord
  2
Standard
 70
     0
340
55
  0
DIMSTYLE
105
59
330
A
100
AcDbSymbolTableRecord
100
AcDbDimStyleTableRecord
  2
Annotative
 70
     0
340
55
1001
AcadAnnotative
1000
AnnotativeData
1002
{
1070
     1
1070
     1
1002
}
  0
ENDTAB
  0
TABLE
  2
BLOCK_RECORD
  5
1
330
0
100
AcDbSymbolTable
 70
     2
  0
BLOCK_RECORD
  5
70
330
1
100
AcDbSymbolTableRecord
100
AcDbBlockTableRecord
  2
*Model_Space
340
73
 70
     0
280
     1
281
     0
  0
BLOCK_RECORD
  5
6C
330
1
100
AcDbSymbolTableRecord
100
AcDbBlockTableRecord
  2
*Paper_Space
340
6F
 70
     0
280
     1
281
     0
  0
BLOCK_RECORD
  5
74
330
1
100
AcDbSymbolTableRecord
100
AcDbBlockTableRecord
  2
*Paper_Space0
340
77
 70
     0
280
     1
281
     0
  0
BLOCK_RECORD
  5
78
330
1
100
AcDbSymbolTableRecord
100
AcDbBlockTableRecord
  2
Block_0
340
0
102
{BLKREFS
331
79
102
}
 70
     0
280
     1
281
     0
  0
ENDTAB
  0
ENDSEC
  0
SECTION
  2
BLOCKS
  0
BLOCK
  5
71
330
70
100
AcDbEntity
  8
0
100
AcDbBlockBegin
  2
*Model_Space
 70
     0
 10
0.0
 20
0.0
 30
0.0
  3
*Model_Space
  1

  0
ENDBLK
  5
72
330
70
100
AcDbEntity
  8
0
100
AcDbBlockEnd
  0
BLOCK
  5
6D
330
6C
100
AcDbEntity
 67
     1
  8
0
100
AcDbBlockBegin
  2
*Paper_Space
 70
     0
 10
0.0
 20
0.0
 30
0.0
  3
*Paper_Space
  1

  0
ENDBLK
  5
6E
330
6C
100
AcDbEntity
 67
     1
  8
0
100
AcDbBlockEnd
  0
BLOCK
  5
75
330
74
100
AcDbEntity
 67
     1
  8
0
100
AcDbBlockBegin
  2
*Paper_Space0
 70
     0
 10
0.0
 20
0.0
 30
0.0
  3
*Paper_Space0
  1

  0
ENDBLK
  5
76
330
74
100
AcDbEntity
 67
     1
  8
0
100
AcDbBlockEnd
  0
BLOCK
  5
7A
330
78
100
AcDbEntity
  8
0
100
AcDbBlockBegin
  2
Block_0
 70
     0
 10
0.0
 20
0.0
 30
0.0
  3
Block_0
  1

  0
SPLINE
  5
7C
330
78
100
AcDbEntity
  8
0
 62
     7
370
    25
100
AcDbSpline
210
0.0
220
0.0
230
1.0
 70
     9
 71
     3
 72
   161
 73
   157
 74
     0
 42
0.0000000001
 43
0.0000000001
 40
0.0
 40
0.0
 40
0.0
 40
0.0
 40
1.0
 40
1.0
 40
1.0
 40
2.0
 40
2.0
 40
2.0
 40
3.0
 40
3.0
 40
3.0
 40
4.0
 40
4.0
 40
4.0
 40
5.0
 40
5.0
 40
5.0
 40
6.0
 40
6.0
 40
6.0
 40
7.0
 40
7.0
 40
7.0
 40
8.0
 40
8.0
 40
8.0
 40
9.0
 40
9.0
 40
9.0
 40
10.0
 40
10.0
 40
10.0
 40
11.0
 40
11.0
 40
11.0
 40
12.0
 40
12.0
 40
12.0
 40
13.0
 40
13.0
 40
13.0
 40
14.0
 40
14.0
 40
14.0
 40
15.0
 40
15.0
 40
15.0
 40
16.0
 40
16.0
 40
16.0
 40
17.0
 40
17.0
 40
17.0
 40
18.0
 40
18.0
 40
18.0
 40
19.0
 40
19.0
 40
19.0
 40
20.0
 40
20.0
 40
20.0
 40
21.0
 40
21.0
 40
21.0
 40
22.0
 40
22.0
 40
22.0
 40
23.0
 40
23.0
 40
23.0
 40
24.0
 40
24.0
 40
24.0
 40
25.0
 40
25.0
 40
25.0
 40
26.0
 40
26.0
 40
26.0
 40
27.0
 40
27.0
 40
27.0
 40
28.0
 40
28.0
 40
28.0
 40
29.0
 40
29.0
 40
29.0
 40
30.0
 40
30.0
 40
30.0
 40
31.0
 40
31.0
 40
31.0
 40
32.0
 40
32.0
 40
32.0
 40
33.0
 40
33.0
 40
33.0
 40
34.0
 40
34.0
 40
34.0
 40
35.0
 40
35.0
 40
35.0
 40
36.0
 40
36.0
 40
36.0
 40
37.0
 40
37.0
 40
37.0
 40
38.0
 40
38.0
 40
38.0
 40
39.0
 40
39.0
 40
39.0
 40
40.0
 40
40.0
 40
40.0
 40
41.0
 40
41.0
 40
41.0
 40
42.0
 40
42.0
 40
42.0
 40
43.0
 40
43.0
 40
43.0
 40
44.0
 40
44.0
 40
44.0
 40
45.0
 40
45.0
 40
45.0
 40
46.0
 40
46.0
 40
46.0
 40
47.0
 40
47.0
 40
47.0
 40
48.0
 40
48.0
 40
48.0
 40
49.0
 40
49.0
 40
49.0
 40
50.0
 40
50.0
 40
50.0
 40
51.0
 40
51.0
 40
51.0
 40
52.0
 40
52.0
 40
52.0
 40
52.0
 10
49.94584653586742
 20
67.20416664035052
 30
0.0
 10
49.94584653586742
 20
67.20416664035052
 30
0.0
 10
247.4458465358673
 20
67.20416664034859
 30
0.0
 10
247.4458465358673
 20
67.20416664034859
 30
0.0
 10
248.6795940276583
 20
67.20416664034859
 30
0.0
 10
249.8443078148286
 20
67.77349376657769
 30
0.0
 10
250.6021812740712
 20
68.74702378320532
 30
0.0
 10
250.7718115900911
 20
68.96492322586445
 30
0.0
 10
250.7326817315974
 20
69.27907816660463
 30
0.0
 10
250.5147822889389
 20
69.44870848262389
 30
0.0
 10
250.4269865982081
 20
69.51705565498031
 30
0.0
 10
250.3189022705157
 20
69.55416664034851
 30
0.0
 10
250.2076394317961
 20
69.55416664034851
 30
0.0
 10
250.2076394317961
 20
69.55416664034851
 30
0.0
 10
248.0896769380676
 20
69.55416664034851
 30
0.0
 10
248.0896769380676
 20
69.55416664034851
 30
0.0
 10
247.1784071008474
 20
69.55416664034851
 30
0.0
 10
246.439676938068
 20
70.29289680312782
 30
0.0
 10
246.439676938068
 20
71.20416664034809
 30
0.0
 10
246.439676938068
 20
72.11543647756901
 30
0.0
 10
247.1784071008474
 20
72.85416664034831
 30
0.0
 10
248.0896769380676
 20
72.85416664034831
 30
0.0
 10
248.0896769380676
 20
72.85416664034831
 30
0.0
 10
250.2076394317961
 20
72.85416664034831
 30
0.0
 10
250.2076394317961
 20
72.85416664034831
 30
0.0
 10
250.4837818067112
 20
72.85416664034831
 30
0.0
 10
250.7076394317958
 20
73.07802426543284
 30
0.0
 10
250.7076394317958
 20
73.35416664034865
 30
0.0
 10
250.7076394317958
 20
73.46542947906826
 30
0.0
 10
250.6705284464276
 20
73.5735138067606
 30
0.0
 10
250.6021812740712
 20
73.66130949749148
 30
0.0
 10
249.8443078148286
 20
74.63483951411913
 30
0.0
 10
248.6795940276583
 20
75.20416664034823
 30
0.0
 10
247.4458465358673
 20
75.20416664034823
 30
0.0
 10
247.4458465358673
 20
75.20416664034823
 30
0.0
 10
245.9458465358676
 20
75.20416664034823
 30
0.0
 10
245.9458465358676
 20
75.20416664034823
 30
0.0
 10
244.8412770362057
 20
75.20416664034823
 30
0.0
 10
243.9458465358675
 20
76.09959714068704
 30
0.0
 10
243.9458465358675
 20
77.2041666403483
 30
0.0
 10
243.9458465358675
 20
77.2041666403483
 30
0.0
 10
243.9458465358675
 20
133.4041666403483
 30
0.0
 10
243.9458465358675
 20
133.4041666403483
 30
0.0
 10
243.9458465358675
 20
134.5087361400099
 30
0.0
 10
244.8412770362057
 20
135.4041666403484
 30
0.0
 10
245.9458465358676
 20
135.4041666403484
 30
0.0
 10
245.9458465358676
 20
135.4041666403484
 30
0.0
 10
247.4458285841557
 20
135.4041666403484
 30
0.0
 10
247.4458285841557
 20
135.4041666403484
 30
0.0
 10
248.6795760759435
 20
135.4041666403484
 30
0.0
 10
249.8442898631131
 20
135.9734937665775
 30
0.0
 10
250.6021633223557
 20
136.9470237832052
 30
0.0
 10
250.7717936383801
 20
137.1649232258643
 30
0.0
 10
250.7326637798871
 20
137.4790781666044
 30
0.0
 10
250.514764337228
 20
137.6487084826237
 30
0.0
 10
250.4269686464971
 20
137.7170556549804
 30
0.0
 10
250.3188843188054
 20
137.7541666403483
 30
0.0
 10
250.2076214800851
 20
137.7541666403483
 30
0.0
 10
250.2076214800851
 20
137.7541666403483
 30
0.0
 10
248.0896589862983
 20
137.7541666403483
 30
0.0
 10
248.0896589862983
 20
137.7541666403483
 30
0.0
 10
247.1783891490773
 20
137.7541666403605
 30
0.0
 10
246.4396589863083
 20
138.4928968031495
 30
0.0
 10
246.4396589863198
 20
139.4041666403489
 30
0.0
 10
246.4396589863198
 20
140.3154364775694
 30
0.0
 10
247.1783891490992
 20
141.0541666403484
 30
0.0
 10
248.0896589863201
 20
141.0541666403484
 30
0.0
 10
248.0896589863413
 20
141.0541666403484
 30
0.0
 10
250.2076214800672
 20
141.0541666403484
 30
0.0
 10
250.2076214800672
 20
141.0541666403484
 30
0.0
 10
250.4837638549823
 20
141.0541666403484
 30
0.0
 10
250.7076214800675
 20
141.278024265433
 30
0.0
 10
250.7076214800675
 20
141.5541666403484
 30
0.0
 10
250.7076214800675
 20
141.6654294790687
 30
0.0
 10
250.6705104946987
 20
141.7735138067611
 30
0.0
 10
250.6021633223416
 20
141.8613094974923
 30
0.0
 10
249.8442937356295
 20
142.8348345396369
 30
0.0
 10
248.6795877235222
 20
143.4041611033542
 30
0.0
 10
247.4458465358673
 20
143.4041666402967
 30
0.0
 10
247.4458465358673
 20
143.4041666403468
 30
0.0
 10
49.94584653586742
 20
143.4041666403484
 30
0.0
 10
49.94584653586742
 20
143.4041666403484
 30
0.0
 10
48.71209904407679
 20
143.4041666403484
 30
0.0
 10
47.54738525690688
 20
142.834839514119
 30
0.0
 10
46.78951179766393
 20
141.8613094974913
 30
0.0
 10
46.61988148164435
 20
141.6434100548322
 30
0.0
 10
46.65901134013735
 20
141.3292551140923
 30
0.0
 10
46.87691078279648
 20
141.1596247980727
 30
0.0
 10
46.96470647352705
 20
141.0912776257163
 30
0.0
 10
47.07279080121939
 20
141.0541666403484
 30
0.0
 10
47.18405363993933
 20
141.0541666403484
 30
0.0
 10
47.18405363993933
 20
141.0541666403484
 30
0.0
 10
49.30201613366715
 20
141.0541666403484
 30
0.0
 10
49.30201613366715
 20
141.0541666403484
 30
0.0
 10
50.21328597088806
 20
141.0541666403484
 30
0.0
 10
50.95201613366704
 20
140.3154364775694
 30
0.0
 10
50.95201613366704
 20
139.4041666403482
 30
0.0
 10
50.95201613366704
 20
138.4928968031276
 30
0.0
 10
50.21328597088806
 20
137.7541666403483
 30
0.0
 10
49.30201613366715
 20
137.7541666403483
 30
0.0
 10
49.30201613366715
 20
137.7541666403483
 30
0.0
 10
47.18405363993933
 20
137.7541666403483
 30
0.0
 10
47.18405363993933
 20
137.7541666403483
 30
0.0
 10
46.90791126502385
 20
137.7541666403483
 30
0.0
 10
46.68405363993931
 20
137.5303090152641
 30
0.0
 10
46.68405363993931
 20
137.2541666403483
 30
0.0
 10
46.68405363993931
 20
137.1429038016284
 30
0.0
 10
46.72116462530718
 20
137.0348194739364
 30
0.0
 10
46.78951179766393
 20
136.9470237832052
 30
0.0
 10
47.54738525690688
 20
135.9734937665775
 30
0.0
 10
48.71209904407679
 20
135.4041666403484
 30
0.0
 10
49.94584653586742
 20
135.4041666403484
 30
0.0
 10
49.94584653586742
 20
135.4041666403484
 30
0.0
 10
51.44584653586748
 20
135.4041666403484
 30
0.0
 10
51.44584653586748
 20
135.4041666403484
 30
0.0
 10
52.55041603552907
 20
135.4041666403484
 30
0.0
 10
53.44584653586755
 20
134.5087361400099
 30
0.0
 10
53.44584653586755
 20
133.4041666403483
 30
0.0
 10
53.44584653586755
 20
133.4041666403483
 30
0.0
 10
53.44584653586755
 20
77.2041666403483
 30
0.0
 10
53.44584653586755
 20
77.2041666403483
 30
0.0
 10
53.44584653586755
 20
76.09959714068704
 30
0.0
 10
52.55041603552907
 20
75.20416664034823
 30
0.0
 10
51.44584653586748
 20
75.20416664034823
 30
0.0
 10
51.44584653586748
 20
75.20416664034823
 30
0.0
 10
49.94582005647259
 20
75.20416664034823
 30
0.0
 10
49.94582005647099
 20
75.20416664034823
 30
0.0
 10
48.71207256467908
 20
75.20416664034823
 30
0.0
 10
47.54735877750852
 20
74.63483951411849
 30
0.0
 10
46.78948531826686
 20
73.66130949749084
 30
0.0
 10
46.61985500224728
 20
73.44341005483172
 30
0.0
 10
46.65898486074061
 20
73.12925511409154
 30
0.0
 10
46.87688430339941
 20
72.95962479807228
 30
0.0
 10
46.96467999413029
 20
72.89127762571586
 30
0.0
 10
47.07276432182232
 20
72.85416664034767
 30
0.0
 10
47.18402716054193
 20
72.85416664034767
 30
0.0
 10
47.18402716054193
 20
72.85416664034767
 30
0.0
 10
49.30198965431146
 20
72.85416664034831
 30
0.0
 10
49.30198965431146
 20
72.85416664034831
 30
0.0
 10
50.21325949153237
 20
72.85416664034574
 30
0.0
 10
50.95198965430943
 20
72.11543647756451
 30
0.0
 10
50.95198965430687
 20
71.20416664034809
 30
0.0
 10
50.95198965430687
 20
70.29289680312782
 30
0.0
 10
50.21325949152757
 20
69.55416664034851
 30
0.0
 10
49.30198965430216
 20
69.55416664034851
 30
0.0
 10
49.30198965430216
 20
69.55416664034851
 30
0.0
 10
47.18402716052301
 20
69.55416664034851
 30
0.0
 10
47.18402716052301
 20
69.55416664034851
 30
0.0
 10
46.90788478560753
 20
69.55416664034851
 30
0.0
 10
46.68402716052298
 20
69.33030901526398
 30
0.0
 10
46.68402716052298
 20
69.05416664034817
 30
0.0
 10
46.68402716052298
 20
68.9429038016292
 30
0.0
 10
46.72113814589054
 20
68.8348194739375
 30
0.0
 10
46.78948531824665
 20
68.74702378320661
 30
0.0
 10
47.54736448960888
 20
67.77348642904114
 30
0.0
 10
48.71208974529879
 20
67.2041584731369
 30
0.0
 10
49.94584653586742
 20
67.20416664035052
 30
0.0
  0
ENDBLK
  5
7B
330
78
100
AcDbEntity
  8
0
100
AcDbBlockEnd
  0
ENDSEC
  0
SECTION
  2
ENTITIES
  0
INSERT
  5
79
330
70
100
AcDbEntity
  8
0
100
AcDbBlockReference
  2
Block_0
 10
0.0
 20
0.0
 30
0.0
  0
SPLINE
  5
7D
330
70
100
AcDbEntity
  8
0
 62
     7
370
    25
100
AcDbSpline
210
0.0
220
0.0
230
1.0
 70
     9
 71
     3
 72
    29
 73
    25
 74
     0
 42
0.0000000001
 43
0.0000000001
 40
0.0
 40
0.0
 40
0.0
 40
0.0
 40
1.0
 40
1.0
 40
1.0
 40
2.0
 40
2.0
 40
2.0
 40
3.0
 40
3.0
 40
3.0
 40
4.0
 40
4.0
 40
4.0
 40
5.0
 40
5.0
 40
5.0
 40
6.0
 40
6.0
 40
6.0
 40
7.0
 40
7.0
 40
7.0
 40
8.0
 40
8.0
 40
8.0
 40
8.0
 10
75.53215666935933
 20
140.8807873458651
 30
0.0
 10
75.53215666935933
 20
140.8807873458651
 30
0.0
 10
88.53215702771086
 20
140.8807873458651
 30
0.0
 10
88.53215702771086
 20
140.8807873458651
 30
0.0
 10
88.80829915568417
 20
140.8807873458651
 30
0.0
 10
89.0321570414936
 20
140.6569296984745
 30
0.0
 10
89.0321570414936
 20
140.3807873320824
 30
0.0
 10
89.0321570414936
 20
140.3807873320824
 30
0.0
 10
89.0321570414936
 20
127.3807874505681
 30
0.0
 10
89.0321570414936
 20
127.3807874505681
 30
0.0
 10
89.0321570414936
 20
127.1046453225948
 30
0.0
 10
88.80829915568417
 20
126.8807874367854
 30
0.0
 10
88.53215702771086
 20
126.8807874367854
 30
0.0
 10
88.53215702771086
 20
126.8807874367854
 30
0.0
 10
75.53215666935933
 20
126.8807874367854
 30
0.0
 10
75.53215666935933
 20
126.8807874367854
 30
0.0
 10
75.25601454138601
 20
126.8807874367854
 30
0.0
 10
75.03215665557658
 20
127.1046453225948
 30
0.0
 10
75.03215665557658
 20
127.3807874505681
 30
0.0
 10
75.03215665557658
 20
127.3807874505681
 30
0.0
 10
75.03215665557658
 20
140.3807873320824
 30
0.0
 10
75.03215665557658
 20
140.3807873320824
 30
0.0
 10
75.03215665557658
 20
140.6569296984745
 30
0.0
 10
75.25601454138601
 20
140.8807873458651
 30
0.0
 10
75.53215666935933
 20
140.8807873458651
 30
0.0
  0
SPLINE
  5
7E
330
70
100
AcDbEntity
  8
0
 62
     7
370
    25
100
AcDbSpline
210
0.0
220
0.0
230
1.0
 70
     9
 71
     3
 72
    29
 73
    25
 74
     0
 42
0.0000000001
 43
0.0000000001
 40
0.0
 40
0.0
 40
0.0
 40
0.0
 40
1.0
 40
1.0
 40
1.0
 40
2.0
 40
2.0
 40
2.0
 40
3.0
 40
3.0
 40
3.0
 40
4.0
 40
4.0
 40
4.0
 40
5.0
 40
5.0
 40
5.0
 40
6.0
 40
6.0
 40
6.0
 40
7.0
 40
7.0
 40
7.0
 40
8.0
 40
8.0
 40
8.0
 40
8.0
 10
58.86315558425962
 20
121.8307861531704
 30
0.0
 10
58.86315558425962
 20
121.8307861531704
 30
0.0
 10
71.86315594261114
 20
121.8307861531704
 30
0.0
 10
71.86315594261114
 20
121.8307861531704
 30
0.0
 10
72.13929807058447
 20
121.8307861531704
 30
0.0
 10
72.36315595639389
 20
121.6069282673609
 30
0.0
 10
72.36315595639389
 20
121.3307861393876
 30
0.0
 10
72.36315595639389
 20
121.3307861393876
 30
0.0
 10
72.36315595639389
 20
108.3307857810358
 30
0.0
 10
72.36315595639389
 20
108.3307857810358
 30
0.0
 10
72.36315595639389
 20
108.0546436530631
 30
0.0
 10
72.13929807058447
 20
107.8307857672534
 30
0.0
 10
71.86315594261114
 20
107.8307857672534
 30
0.0
 10
71.86315594261114
 20
107.8307857672534
 30
0.0
 10
58.86315558425962
 20
107.8307857672534
 30
0.0
 10
58.86315558425962
 20
107.8307857672534
 30
0.0
 10
58.58701297944906
 20
107.8307857672534
 30
0.0
 10
58.36315557047688
 20
108.0546436530631
 30
0.0
 10
58.36315557047688
 20
108.3307857810358
 30
0.0
 10
58.36315557047688
 20
108.3307857810358
 30
0.0
 10
58.36315557047688
 20
121.3307861393876
 30
0.0
 10
58.36315557047688
 20
121.3307861393876
 30
0.0
 10
58.36315557047688
 20
121.6069282673609
 30
0.0
 10
58.58701297944906
 20
121.8307861531704
 30
0.0
 10
58.86315558425962
 20
121.8307861531704
 30
0.0
  0
SPLINE
  5
7F
330
70
100
AcDbEntity
  8
0
 62
     7
370
    25
100
AcDbSpline
210
0.0
220
0.0
230
1.0
 70
     9
 71
     3
 72
    29
 73
    25
 74
     0
 42
0.0000000001
 43
0.0000000001
 40
0.0
 40
0.0
 40
0.0
 40
0.0
 40
1.0
 40
1.0
 40
1.0
 40
2.0
 40
2.0
 40
2.0
 40
3.0
 40
3.0
 40
3.0
 40
4.0
 40
4.0
 40
4.0
 40
5.0
 40
5.0
 40
5.0
 40
6.0
 40
6.0
 40
6.0
 40
7.0
 40
7.0
 40
7.0
 40
8.0
 40
8.0
 40
8.0
 40
8.0
 10
80.29515538158639
 20
121.8307861531704
 30
0.0
 10
80.29515538158639
 20
121.8307861531704
 30
0.0
 10
93.29515764728659
 20
121.8307861531704
 30
0.0
 10
93.29515764728659
 20
121.8307861531704
 30
0.0
 10
93.57129977525959
 20
121.8307861531704
 30
0.0
 10
93.79515766106933
 20
121.6069282673609
 30
0.0
 10
93.79515766106933
 20
121.3307861393876
 30
0.0
 10
93.79515766106933
 20
121.3307861393876
 30
0.0
 10
93.79515766106933
 20
108.3307857810358
 30
0.0
 10
93.79515766106933
 20
108.3307857810358
 30
0.0
 10
93.79515766106933
 20
108.0546436530631
 30
0.0
 10
93.57129977525959
 20
107.8307857672534
 30
0.0
 10
93.29515764728659
 20
107.8307857672534
 30
0.0
 10
93.29515764728659
 20
107.8307857672534
 30
0.0
 10
80.29515538158639
 20
107.8307857672534
 30
0.0
 10
80.29515538158639
 20
107.8307857672534
 30
0.0
 10
80.01901325361307
 20
107.8307857672534
 30
0.0
 10
79.79515536780365
 20
108.0546436530631
 30
0.0
 10
79.79515536780365
 20
108.3307857810358
 30
0.0
 10
79.79515536780365
 20
108.3307857810358
 30
0.0
 10
79.79515536780365
 20
121.3307861393876
 30
0.0
 10
79.79515536780365
 20
121.3307861393876
 30
0.0
 10
79.79515536780365
 20
121.6069282673609
 30
0.0
 10
80.01901325361307
 20
121.8307861531704
 30
0.0
 10
80.29515538158639
 20
121.8307861531704
 30
0.0
  0
SPLINE
  5
80
330
70
100
AcDbEntity
  8
0
 62
     7
370
    25
100
AcDbSpline
210
0.0
220
0.0
230
1.0
 70
     9
 71
     3
 72
    29
 73
    25
 74
     0
 42
0.0000000001
 43
0.0000000001
 40
0.0
 40
0.0
 40
0.0
 40
0.0
 40
1.0
 40
1.0
 40
1.0
 40
2.0
 40
2.0
 40
2.0
 40
3.0
 40
3.0
 40
3.0
 40
4.0
 40
4.0
 40
4.0
 40
5.0
 40
5.0
 40
5.0
 40
6.0
 40
6.0
 40
6.0
 40
7.0
 40
7.0
 40
7.0
 40
8.0
 40
8.0
 40
8.0
 40
8.0
 10
99.34515705111842
 20
121.8307861531704
 30
0.0
 10
99.34515705111842
 20
121.8307861531704
 30
0.0
 10
112.3451574094699
 20
121.8307861531704
 30
0.0
 10
112.3451574094699
 20
121.8307861531704
 30
0.0
 10
112.6212995374432
 20
121.8307861531704
 30
0.0
 10
112.845157423253
 20
121.6069282673609
 30
0.0
 10
112.845157423253
 20
121.3307861393876
 30
0.0
 10
112.845157423253
 20
121.3307861393876
 30
0.0
 10
112.845157423253
 20
108.3307857810358
 30
0.0
 10
112.845157423253
 20
108.3307857810358
 30
0.0
 10
112.845157423253
 20
108.0546436530631
 30
0.0
 10
112.6212995374432
 20
107.8307857672534
 30
0.0
 10
112.3451574094699
 20
107.8307857672534
 30
0.0
 10
112.3451574094699
 20
107.8307857672534
 30
0.0
 10
99.34515705111842
 20
107.8307857672534
 30
0.0
 10
99.34515705111842
 20
107.8307857672534
 30
0.0
 10
99.06901492314508
 20
107.8307857672534
 30
0.0
 10
98.84515703733598
 20
108.0546436530631
 30
0.0
 10
98.84515703733598
 20
108.3307857810358
 30
0.0
 10
98.84515703733598
 20
108.3307857810358
 30
0.0
 10
98.84515703733598
 20
121.3307861393876
 30
0.0
 10
98.84515703733598
 20
121.3307861393876
 30
0.0
 10
98.84515703733598
 20
121.6069282673609
 30
0.0
 10
99.06901492314508
 20
121.8307861531704
 30
0.0
 10
99.34515705111842
 20
121.8307861531704
 30
0.0
  0
SPLINE
  5
81
330
70
100
AcDbEntity
  8
0
 62
     7
370
    25
100
AcDbSpline
210
0.0
220
0.0
230
1.0
 70
     9
 71
     3
 72
    29
 73
    25
 74
     0
 42
0.0000000001
 43
0.0000000001
 40
0.0
 40
0.0
 40
0.0
 40
0.0
 40
1.0
 40
1.0
 40
1.0
 40
2.0
 40
2.0
 40
2.0
 40
3.0
 40
3.0
 40
3.0
 40
4.0
 40
4.0
 40
4.0
 40
5.0
 40
5.0
 40
5.0
 40
6.0
 40
6.0
 40
6.0
 40
7.0
 40
7.0
 40
7.0
 40
8.0
 40
8.0
 40
8.0
 40
8.0
 10
118.3951606279991
 20
121.8307861531704
 30
0.0
 10
118.3951606279991
 20
121.8307861531704
 30
0.0
 10
131.3951609863506
 20
121.8307861531704
 30
0.0
 10
131.3951609863506
 20
121.8307861531704
 30
0.0
 10
131.6713069290213
 20
121.8307861531704
 30
0.0
 10
131.8951610001333
 20
121.6069282673609
 30
0.0
 10
131.8951610001333
 20
121.3307861393876
 30
0.0
 10
131.8951610001333
 20
121.3307861393876
 30
0.0
 10
131.8951610001333
 20
108.3307857810358
 30
0.0
 10
131.8951610001333
 20
108.3307857810358
 30
0.0
 10
131.8951610001333
 20
108.0546436530631
 30
0.0
 10
131.6713069290213
 20
107.8307857672534
 30
0.0
 10
131.3951609863506
 20
107.8307857672534
 30
0.0
 10
131.3951609863506
 20
107.8307857672534
 30
0.0
 10
118.3951606279991
 20
107.8307857672534
 30
0.0
 10
118.3951606279991
 20
107.8307857672534
 30
0.0
 10
118.1190146853284
 20
107.8307857672534
 30
0.0
 10
117.8951606142163
 20
108.0546436530631
 30
0.0
 10
117.8951606142163
 20
108.3307857810358
 30
0.0
 10
117.8951606142163
 20
108.3307857810358
 30
0.0
 10
117.8951606142163
 20
121.3307861393876
 30
0.0
 10
117.8951606142163
 20
121.3307861393876
 30
0.0
 10
117.8951606142163
 20
121.6069282673609
 30
0.0
 10
118.1190146853284
 20
121.8307861531704
 30
0.0
 10
118.3951606279991
 20
121.8307861531704
 30
0.0
  0
SPLINE
  5
82
330
70
100
AcDbEntity
  8
0
 62
     7
370
    25
100
AcDbSpline
210
0.0
220
0.0
230
1.0
 70
     9
 71
     3
 72
    29
 73
    25
 74
     0
 42
0.0000000001
 43
0.0000000001
 40
0.0
 40
0.0
 40
0.0
 40
0.0
 40
1.0
 40
1.0
 40
1.0
 40
2.0
 40
2.0
 40
2.0
 40
3.0
 40
3.0
 40
3.0
 40
4.0
 40
4.0
 40
4.0
 40
5.0
 40
5.0
 40
5.0
 40
6.0
 40
6.0
 40
6.0
 40
7.0
 40
7.0
 40
7.0
 40
8.0
 40
8.0
 40
8.0
 40
8.0
 10
137.445156575485
 20
121.8307861531704
 30
0.0
 10
137.445156575485
 20
121.8307861531704
 30
0.0
 10
150.4451569338365
 20
121.8307861531704
 30
0.0
 10
150.4451569338365
 20
121.8307861531704
 30
0.0
 10
150.7213028765072
 20
121.8307861531704
 30
0.0
 10
150.9451569476193
 20
121.6069282673609
 30
0.0
 10
150.9451569476193
 20
121.3307861393876
 30
0.0
 10
150.9451569476193
 20
121.3307861393876
 30
0.0
 10
150.9451569476193
 20
108.3307857810358
 30
0.0
 10
150.9451569476193
 20
108.3307857810358
 30
0.0
 10
150.9451569476193
 20
108.0546436530631
 30
0.0
 10
150.7213028765072
 20
107.8307857672534
 30
0.0
 10
150.4451569338365
 20
107.8307857672534
 30
0.0
 10
150.4451569338365
 20
107.8307857672534
 30
0.0
 10
137.445156575485
 20
107.8307857672534
 30
0.0
 10
137.445156575485
 20
107.8307857672534
 30
0.0
 10
137.1690106328143
 20
107.8307857672534
 30
0.0
 10
136.9451565617022
 20
108.0546436530631
 30
0.0
 10
136.9451565617022
 20
108.3307857810358
 30
0.0
 10
136.9451565617022
 20
108.3307857810358
 30
0.0
 10
136.9451565617022
 20
121.3307861393876
 30
0.0
 10
136.9451565617022
 20
121.3307861393876
 30
0.0
 10
136.9451565617022
 20
121.6069282673609
 30
0.0
 10
137.1690106328143
 20
121.8307861531704
 30
0.0
 10
137.445156575485
 20
121.8307861531704
 30
0.0
  0
SPLINE
  5
83
330
70
100
AcDbEntity
  8
0
 62
     7
370
    25
100
AcDbSpline
210
0.0
220
0.0
230
1.0
 70
     9
 71
     3
 72
    29
 73
    25
 74
     0
 42
0.0000000001
 43
0.0000000001
 40
0.0
 40
0.0
 40
0.0
 40
0.0
 40
1.0
 40
1.0
 40
1.0
 40
2.0
 40
2.0
 40
2.0
 40
3.0
 40
3.0
 40
3.0
 40
4.0
 40
4.0
 40
4.0
 40
5.0
 40
5.0
 40
5.0
 40
6.0
 40
6.0
 40
6.0
 40
7.0
 40
7.0
 40
7.0
 40
8.0
 40
8.0
 40
8.0
 40
8.0
 10
156.4951601523657
 20
121.8307861531704
 30
0.0
 10
156.4951601523657
 20
121.8307861531704
 30
0.0
 10
169.4951605107172
 20
121.8307861531704
 30
0.0
 10
169.4951605107172
 20
121.8307861531704
 30
0.0
 10
169.7713064533879
 20
121.8307861531704
 30
0.0
 10
169.9951605245
 20
121.6069282673609
 30
0.0
 10
169.9951605245
 20
121.3307861393876
 30
0.0
 10
169.9951605245
 20
121.3307861393876
 30
0.0
 10
169.9951605245
 20
108.3307857810358
 30
0.0
 10
169.9951605245
 20
108.3307857810358
 30
0.0
 10
169.9951605245
 20
108.0546436530631
 30
0.0
 10
169.7713064533879
 20
107.8307857672534
 30
0.0
 10
169.4951605107172
 20
107.8307857672534
 30
0.0
 10
169.4951605107172
 20
107.8307857672534
 30
0.0
 10
156.4951601523657
 20
107.8307857672534
 30
0.0
 10
156.4951601523657
 20
107.8307857672534
 30
0.0
 10
156.219014209695
 20
107.8307857672534
 30
0.0
 10
155.995160138583
 20
108.0546436530631
 30
0.0
 10
155.995160138583
 20
108.3307857810358
 30
0.0
 10
155.995160138583
 20
108.3307857810358
 30
0.0
 10
155.995160138583
 20
121.3307861393876
 30
0.0
 10
155.995160138583
 20
121.3307861393876
 30
0.0
 10
155.995160138583
 20
121.6069282673609
 30
0.0
 10
156.219014209695
 20
121.8307861531704
 30
0.0
 10
156.4951601523657
 20
121.8307861531704
 30
0.0
  0
SPLINE
  5
84
330
70
100
AcDbEntity
  8
0
 62
     7
370
    25
100
AcDbSpline
210
0.0
220
0.0
230
1.0
 70
     9
 71
     3
 72
    29
 73
    25
 74
     0
 42
0.0000000001
 43
0.0000000001
 40
0.0
 40
0.0
 40
0.0
 40
0.0
 40
1.0
 40
1.0
 40
1.0
 40
2.0
 40
2.0
 40
2.0
 40
3.0
 40
3.0
 40
3.0
 40
4.0
 40
4.0
 40
4.0
 40
5.0
 40
5.0
 40
5.0
 40
6.0
 40
6.0
 40
6.0
 40
7.0
 40
7.0
 40
7.0
 40
8.0
 40
8.0
 40
8.0
 40
8.0
 10
175.5451560998517
 20
121.8307861531704
 30
0.0
 10
175.5451560998517
 20
121.8307861531704
 30
0.0
 10
188.5451564582032
 20
121.8307861531704
 30
0.0
 10
188.5451564582032
 20
121.8307861531704
 30
0.0
 10
188.8212947714791
 20
121.8307861531704
 30
0.0
 10
189.0451564719859
 20
121.6069282673609
 30
0.0
 10
189.0451564719859
 20
121.3307861393876
 30
0.0
 10
189.0451564719859
 20
121.3307861393876
 30
0.0
 10
189.0451564719859
 20
108.3307857810358
 30
0.0
 10
189.0451564719859
 20
108.3307857810358
 30
0.0
 10
189.0451564719859
 20
108.0546436530631
 30
0.0
 10
188.8212947714791
 20
107.8307857672534
 30
0.0
 10
188.5451564582032
 20
107.8307857672534
 30
0.0
 10
188.5451564582032
 20
107.8307857672534
 30
0.0
 10
175.5451560998517
 20
107.8307857672534
 30
0.0
 10
175.5451560998517
 20
107.8307857672534
 30
0.0
 10
175.269010157181
 20
107.8307857672534
 30
0.0
 10
175.0451560860689
 20
108.0546436530631
 30
0.0
 10
175.0451560860689
 20
108.3307857810358
 30
0.0
 10
175.0451560860689
 20
108.3307857810358
 30
0.0
 10
175.0451560860689
 20
121.3307861393876
 30
0.0
 10
175.0451560860689
 20
121.3307861393876
 30
0.0
 10
175.0451560860689
 20
121.6069282673609
 30
0.0
 10
175.269010157181
 20
121.8307861531704
 30
0.0
 10
175.5451560998517
 20
121.8307861531704
 30
0.0
  0
SPLINE
  5
85
330
70
100
AcDbEntity
  8
0
 62
     7
370
    25
100
AcDbSpline
210
0.0
220
0.0
230
1.0
 70
     9
 71
     3
 72
    29
 73
    25
 74
     0
 42
0.0000000001
 43
0.0000000001
 40
0.0
 40
0.0
 40
0.0
 40
0.0
 40
1.0
 40
1.0
 40
1.0
 40
2.0
 40
2.0
 40
2.0
 40
3.0
 40
3.0
 40
3.0
 40
4.0
 40
4.0
 40
4.0
 40
5.0
 40
5.0
 40
5.0
 40
6.0
 40
6.0
 40
6.0
 40
7.0
 40
7.0
 40
7.0
 40
8.0
 40
8.0
 40
8.0
 40
8.0
 10
194.5951596767323
 20
121.8307861531704
 30
0.0
 10
194.5951596767323
 20
121.8307861531704
 30
0.0
 10
207.5951600350839
 20
121.8307861531704
 30
0.0
 10
207.5951600350839
 20
121.8307861531704
 30
0.0
 10
207.8712983483598
 20
121.8307861531704
 30
0.0
 10
208.0951600488667
 20
121.6069282673609
 30
0.0
 10
208.0951600488667
 20
121.3307861393876
 30
0.0
 10
208.0951600488667
 20
121.3307861393876
 30
0.0
 10
208.0951600488667
 20
108.3307857810358
 30
0.0
 10
208.0951600488667
 20
108.3307857810358
 30
0.0
 10
208.0951600488667
 20
108.0546436530631
 30
0.0
 10
207.8712983483598
 20
107.8307857672534
 30
0.0
 10
207.5951600350839
 20
107.8307857672534
 30
0.0
 10
207.5951600350839
 20
107.8307857672534
 30
0.0
 10
194.5951596767323
 20
107.8307857672534
 30
0.0
 10
194.5951596767323
 20
107.8307857672534
 30
0.0
 10
194.3190213634564
 20
107.8307857672534
 30
0.0
 10
194.0951596629496
 20
108.0546436530631
 30
0.0
 10
194.0951596629496
 20
108.3307857810358
 30
0.0
 10
194.0951596629496
 20
108.3307857810358
 30
0.0
 10
194.0951596629496
 20
121.3307861393876
 30
0.0
 10
194.0951596629496
 20
121.3307861393876
 30
0.0
 10
194.0951596629496
 20
121.6069282673609
 30
0.0
 10
194.3190213634564
 20
121.8307861531704
 30
0.0
 10
194.5951596767323
 20
121.8307861531704
 30
0.0
  0
SPLINE
  5
86
330
70
100
AcDbEntity
  8
0
 62
     7
370
    25
100
AcDbSpline
210
0.0
220
0.0
230
1.0
 70
     9
 71
     3
 72
    29
 73
    25
 74
     0
 42
0.0000000001
 43
0.0000000001
 40
0.0
 40
0.0
 40
0.0
 40
0.0
 40
1.0
 40
1.0
 40
1.0
 40
2.0
 40
2.0
 40
2.0
 40
3.0
 40
3.0
 40
3.0
 40
4.0
 40
4.0
 40
4.0
 40
5.0
 40
5.0
 40
5.0
 40
6.0
 40
6.0
 40
6.0
 40
7.0
 40
7.0
 40
7.0
 40
8.0
 40
8.0
 40
8.0
 40
8.0
 10
220.7881535628179
 20
121.8307861531704
 30
0.0
 10
220.7881535628179
 20
121.8307861531704
 30
0.0
 10
233.7881539211693
 20
121.8307861531704
 30
0.0
 10
233.7881539211693
 20
121.8307861531704
 30
0.0
 10
234.0642922344453
 20
121.8307861531704
 30
0.0
 10
234.2881539349521
 20
121.6069282673609
 30
0.0
 10
234.2881539349521
 20
121.3307861393876
 30
0.0
 10
234.2881539349521
 20
121.3307861393876
 30
0.0
 10
234.2881539349521
 20
108.3307857810358
 30
0.0
 10
234.2881539349521
 20
108.3307857810358
 30
0.0
 10
234.2881539349521
 20
108.0546436530631
 30
0.0
 10
234.0642922344453
 20
107.8307857672534
 30
0.0
 10
233.7881539211693
 20
107.8307857672534
 30
0.0
 10
233.7881539211693
 20
107.8307857672534
 30
0.0
 10
220.7881535628179
 20
107.8307857672534
 30
0.0
 10
220.7881535628179
 20
107.8307857672534
 30
0.0
 10
220.5120152495419
 20
107.8307857672534
 30
0.0
 10
220.2881535490351
 20
108.0546436530631
 30
0.0
 10
220.2881535490351
 20
108.3307857810358
 30
0.0
 10
220.2881535490351
 20
108.3307857810358
 30
0.0
 10
220.2881535490351
 20
121.3307861393876
 30
0.0
 10
220.2881535490351
 20
121.3307861393876
 30
0.0
 10
220.2881535490351
 20
121.6069282673609
 30
0.0
 10
220.5120152495419
 20
121.8307861531704
 30
0.0
 10
220.7881535628179
 20
121.8307861531704
 30
0.0
  0
SPLINE
  5
87
330
70
100
AcDbEntity
  8
0
 62
     7
370
    25
100
AcDbSpline
210
0.0
220
0.0
230
1.0
 70
     9
 71
     3
 72
    29
 73
    25
 74
     0
 42
0.0000000001
 43
0.0000000001
 40
0.0
 40
0.0
 40
0.0
 40
0.0
 40
1.0
 40
1.0
 40
1.0
 40
2.0
 40
2.0
 40
2.0
 40
3.0
 40
3.0
 40
3.0
 40
4.0
 40
4.0
 40
4.0
 40
5.0
 40
5.0
 40
5.0
 40
6.0
 40
6.0
 40
6.0
 40
7.0
 40
7.0
 40
7.0
 40
8.0
 40
8.0
 40
8.0
 40
8.0
 10
63.6261552501612
 20
102.7807863909877
 30
0.0
 10
63.6261552501612
 20
102.7807863909877
 30
0.0
 10
76.62615656218689
 20
102.7807863909877
 30
0.0
 10
76.62615656218689
 20
102.7807863909877
 30
0.0
 10
76.90229869016021
 20
102.7807863909877
 30
0.0
 10
77.12615657596964
 20
102.5569285051776
 30
0.0
 10
77.12615657596964
 20
102.2807863772049
 30
0.0
 10
77.12615657596964
 20
102.2807863772049
 30
0.0
 10
77.12615657596964
 20
89.28078601885344
 30
0.0
 10
77.12615657596964
 20
89.28078601885344
 30
0.0
 10
77.12615657596964
 20
89.00464389087948
 30
0.0
 10
76.90229869016021
 20
88.7807860050707
 30
0.0
 10
76.62615656218689
 20
88.7807860050707
 30
0.0
 10
76.62615656218689
 20
88.7807860050707
 30
0.0
 10
63.6261552501612
 20
88.7807860050707
 30
0.0
 10
63.6261552501612
 20
88.7807860050707
 30
0.0
 10
63.35001312218786
 20
88.7807860050707
 30
0.0
 10
63.12615523637845
 20
89.00464389087948
 30
0.0
 10
63.12615523637845
 20
89.28078601885344
 30
0.0
 10
63.12615523637845
 20
89.28078601885344
 30
0.0
 10
63.12615523637845
 20
102.2807863772049
 30
0.0
 10
63.12615523637845
 20
102.2807863772049
 30
0.0
 10
63.12615523637845
 20
102.5569285051776
 30
0.0
 10
63.35001312218786
 20
102.7807863909877
 30
0.0
 10
63.6261552501612
 20
102.7807863909877
 30
0.0
  0
SPLINE
  5
88
330
70
100
AcDbEntity
  8
0
 62
     7
370
    25
100
AcDbSpline
210
0.0
220
0.0
230
1.0
 70
     9
 71
     3
 72
    29
 73
    25
 74
     0
 42
0.0000000001
 43
0.0000000001
 40
0.0
 40
0.0
 40
0.0
 40
0.0
 40
1.0
 40
1.0
 40
1.0
 40
2.0
 40
2.0
 40
2.0
 40
3.0
 40
3.0
 40
3.0
 40
4.0
 40
4.0
 40
4.0
 40
5.0
 40
5.0
 40
5.0
 40
6.0
 40
6.0
 40
6.0
 40
7.0
 40
7.0
 40
7.0
 40
8.0
 40
8.0
 40
8.0
 40
8.0
 10
89.82015526267806
 20
102.7807863909877
 30
0.0
 10
89.82015526267806
 20
102.7807863909877
 30
0.0
 10
102.8201556210295
 20
102.7807863909877
 30
0.0
 10
102.8201556210295
 20
102.7807863909877
 30
0.0
 10
103.0962977490029
 20
102.7807863909877
 30
0.0
 10
103.3201556348123
 20
102.5569285051776
 30
0.0
 10
103.3201556348123
 20
102.2807863772049
 30
0.0
 10
103.3201556348123
 20
102.2807863772049
 30
0.0
 10
103.3201556348123
 20
89.28078601885344
 30
0.0
 10
103.3201556348123
 20
89.28078601885344
 30
0.0
 10
103.3201556348123
 20
89.00464389087948
 30
0.0
 10
103.0962977490029
 20
88.7807860050707
 30
0.0
 10
102.8201556210295
 20
88.7807860050707
 30
0.0
 10
102.8201556210295
 20
88.7807860050707
 30
0.0
 10
89.82015526267806
 20
88.7807860050707
 30
0.0
 10
89.82015526267806
 20
88.7807860050707
 30
0.0
 10
89.54401313470473
 20
88.7807860050707
 30
0.0
 10
89.3201552488953
 20
89.00464389087948
 30
0.0
 10
89.3201552488953
 20
89.28078601885344
 30
0.0
 10
89.3201552488953
 20
89.28078601885344
 30
0.0
 10
89.3201552488953
 20
102.2807863772049
 30
0.0
 10
89.3201552488953
 20
102.2807863772049
 30
0.0
 10
89.3201552488953
 20
102.5569285051776
 30
0.0
 10
89.54401313470473
 20
102.7807863909877
 30
0.0
 10
89.82015526267806
 20
102.7807863909877
 30
0.0
  0
SPLINE
  5
89
330
70
100
AcDbEntity
  8
0
 62
     7
370
    25
100
AcDbSpline
210
0.0
220
0.0
230
1.0
 70
     9
 71
     3
 72
    29
 73
    25
 74
     0
 42
0.0000000001
 43
0.0000000001
 40
0.0
 40
0.0
 40
0.0
 40
0.0
 40
1.0
 40
1.0
 40
1.0
 40
2.0
 40
2.0
 40
2.0
 40
3.0
 40
3.0
 40
3.0
 40
4.0
 40
4.0
 40
4.0
 40
5.0
 40
5.0
 40
5.0
 40
6.0
 40
6.0
 40
6.0
 40
7.0
 40
7.0
 40
7.0
 40
8.0
 40
8.0
 40
8.0
 40
8.0
 10
127.9201547870447
 20
102.7807863909877
 30
0.0
 10
127.9201547870447
 20
102.7807863909877
 30
0.0
 10
140.9201551453962
 20
102.7807863909877
 30
0.0
 10
140.9201551453962
 20
102.7807863909877
 30
0.0
 10
141.1963010880669
 20
102.7807863909877
 30
0.0
 10
141.4201551591789
 20
102.5569285051776
 30
0.0
 10
141.4201551591789
 20
102.2807863772049
 30
0.0
 10
141.4201551591789
 20
102.2807863772049
 30
0.0
 10
141.4201551591789
 20
89.28078601885344
 30
0.0
 10
141.4201551591789
 20
89.28078601885344
 30
0.0
 10
141.4201551591789
 20
89.00464389087948
 30
0.0
 10
141.1963010880669
 20
88.7807860050707
 30
0.0
 10
140.9201551453962
 20
88.7807860050707
 30
0.0
 10
140.9201551453962
 20
88.7807860050707
 30
0.0
 10
127.9201547870447
 20
88.7807860050707
 30
0.0
 10
127.9201547870447
 20
88.7807860050707
 30
0.0
 10
127.644008844374
 20
88.7807860050707
 30
0.0
 10
127.4201547732619
 20
89.00464389087948
 30
0.0
 10
127.4201547732619
 20
89.28078601885344
 30
0.0
 10
127.4201547732619
 20
89.28078601885344
 30
0.0
 10
127.4201547732619
 20
102.2807863772049
 30
0.0
 10
127.4201547732619
 20
102.2807863772049
 30
0.0
 10
127.4201547732619
 20
102.5569285051776
 30
0.0
 10
127.644008844374
 20
102.7807863909877
 30
0.0
 10
127.9201547870447
 20
102.7807863909877
 30
0.0
  0
SPLINE
  5
8A
330
70
100
AcDbEntity
  8
0
 62
     7
370
    25
100
AcDbSpline
210
0.0
220
0.0
230
1.0
 70
     9
 71
     3
 72
    29
 73
    25
 74
     0
 42
0.0000000001
 43
0.0000000001
 40
0.0
 40
0.0
 40
0.0
 40
0.0
 40
1.0
 40
1.0
 40
1.0
 40
2.0
 40
2.0
 40
2.0
 40
3.0
 40
3.0
 40
3.0
 40
4.0
 40
4.0
 40
4.0
 40
5.0
 40
5.0
 40
5.0
 40
6.0
 40
6.0
 40
6.0
 40
7.0
 40
7.0
 40
7.0
 40
8.0
 40
8.0
 40
8.0
 40
8.0
 10
146.9701583639253
 20
102.7807863909877
 30
0.0
 10
146.9701583639253
 20
102.7807863909877
 30
0.0
 10
159.9701587222769
 20
102.7807863909877
 30
0.0
 10
159.9701587222769
 20
102.7807863909877
 30
0.0
 10
160.2463046649476
 20
102.7807863909877
 30
0.0
 10
160.4701587360596
 20
102.5569285051776
 30
0.0
 10
160.4701587360596
 20
102.2807863772049
 30
0.0
 10
160.4701587360596
 20
102.2807863772049
 30
0.0
 10
160.4701587360596
 20
89.28078601885344
 30
0.0
 10
160.4701587360596
 20
89.28078601885344
 30
0.0
 10
160.4701587360596
 20
89.00464389087948
 30
0.0
 10
160.2463046649476
 20
88.7807860050707
 30
0.0
 10
159.9701587222769
 20
88.7807860050707
 30
0.0
 10
159.9701587222769
 20
88.7807860050707
 30
0.0
 10
146.9701583639253
 20
88.7807860050707
 30
0.0
 10
146.9701583639253
 20
88.7807860050707
 30
0.0
 10
146.6940124212547
 20
88.7807860050707
 30
0.0
 10
146.4701583501426
 20
89.00464389087948
 30
0.0
 10
146.4701583501426
 20
89.28078601885344
 30
0.0
 10
146.4701583501426
 20
89.28078601885344
 30
0.0
 10
146.4701583501426
 20
102.2807863772049
 30
0.0
 10
146.4701583501426
 20
102.2807863772049
 30
0.0
 10
146.4701583501426
 20
102.5569285051776
 30
0.0
 10
146.6940124212547
 20
102.7807863909877
 30
0.0
 10
146.9701583639253
 20
102.7807863909877
 30
0.0
  0
SPLINE
  5
8B
330
70
100
AcDbEntity
  8
0
 62
     7
370
    25
100
AcDbSpline
210
0.0
220
0.0
230
1.0
 70
     9
 71
     3
 72
    29
 73
    25
 74
     0
 42
0.0000000001
 43
0.0000000001
 40
0.0
 40
0.0
 40
0.0
 40
0.0
 40
1.0
 40
1.0
 40
1.0
 40
2.0
 40
2.0
 40
2.0
 40
3.0
 40
3.0
 40
3.0
 40
4.0
 40
4.0
 40
4.0
 40
5.0
 40
5.0
 40
5.0
 40
6.0
 40
6.0
 40
6.0
 40
7.0
 40
7.0
 40
7.0
 40
8.0
 40
8.0
 40
8.0
 40
8.0
 10
166.0201619408061
 20
102.7807863909877
 30
0.0
 10
166.0201619408061
 20
102.7807863909877
 30
0.0
 10
179.0201622991576
 20
102.7807863909877
 30
0.0
 10
179.0201622991576
 20
102.7807863909877
 30
0.0
 10
179.2963082418283
 20
102.7807863909877
 30
0.0
 10
179.5201623129403
 20
102.5569285051776
 30
0.0
 10
179.5201623129403
 20
102.2807863772049
 30
0.0
 10
179.5201623129403
 20
102.2807863772049
 30
0.0
 10
179.5201623129403
 20
89.28078601885344
 30
0.0
 10
179.5201623129403
 20
89.28078601885344
 30
0.0
 10
179.5201623129403
 20
89.00464389087948
 30
0.0
 10
179.2963082418283
 20
88.7807860050707
 30
0.0
 10
179.0201622991576
 20
88.7807860050707
 30
0.0
 10
179.0201622991576
 20
88.7807860050707
 30
0.0
 10
166.0201619408061
 20
88.7807860050707
 30
0.0
 10
166.0201619408061
 20
88.7807860050707
 30
0.0
 10
165.7440159981353
 20
88.7807860050707
 30
0.0
 10
165.5201619270233
 20
89.00464389087948
 30
0.0
 10
165.5201619270233
 20
89.28078601885344
 30
0.0
 10
165.5201619270233
 20
89.28078601885344
 30
0.0
 10
165.5201619270233
 20
102.2807863772049
 30
0.0
 10
165.5201619270233
 20
102.2807863772049
 30
0.0
 10
165.5201619270233
 20
102.5569285051776
 30
0.0
 10
165.7440159981353
 20
102.7807863909877
 30
0.0
 10
166.0201619408061
 20
102.7807863909877
 30
0.0
  0
SPLINE
  5
8C
330
70
100
AcDbEntity
  8
0
 62
     7
370
    25
100
AcDbSpline
210
0.0
220
0.0
230
1.0
 70
     9
 71
     3
 72
    29
 73
    25
 74
     0
 42
0.0000000001
 43
0.0000000001
 40
0.0
 40
0.0
 40
0.0
 40
0.0
 40
1.0
 40
1.0
 40
1.0
 40
2.0
 40
2.0
 40
2.0
 40
3.0
 40
3.0
 40
3.0
 40
4.0
 40
4.0
 40
4.0
 40
5.0
 40
5.0
 40
5.0
 40
6.0
 40
6.0
 40
6.0
 40
7.0
 40
7.0
 40
7.0
 40
8.0
 40
8.0
 40
8.0
 40
8.0
 10
185.0701655176867
 20
102.7807863909877
 30
0.0
 10
185.0701655176867
 20
102.7807863909877
 30
0.0
 10
198.0701658760382
 20
102.7807863909877
 30
0.0
 10
198.0701658760382
 20
102.7807863909877
 30
0.0
 10
198.3463041893142
 20
102.7807863909877
 30
0.0
 10
198.570165889821
 20
102.5569285051776
 30
0.0
 10
198.570165889821
 20
102.2807863772049
 30
0.0
 10
198.570165889821
 20
102.2807863772049
 30
0.0
 10
198.570165889821
 20
89.28078601885344
 30
0.0
 10
198.570165889821
 20
89.28078601885344
 30
0.0
 10
198.570165889821
 20
89.00464389087948
 30
0.0
 10
198.3463041893142
 20
88.7807860050707
 30
0.0
 10
198.0701658760382
 20
88.7807860050707
 30
0.0
 10
198.0701658760382
 20
88.7807860050707
 30
0.0
 10
185.0701655176867
 20
88.7807860050707
 30
0.0
 10
185.0701655176867
 20
88.7807860050707
 30
0.0
 10
184.7940272044108
 20
88.7807860050707
 30
0.0
 10
184.570165503904
 20
89.00464389087948
 30
0.0
 10
184.570165503904
 20
89.28078601885344
 30
0.0
 10
184.570165503904
 20
89.28078601885344
 30
0.0
 10
184.570165503904
 20
102.2807863772049
 30
0.0
 10
184.570165503904
 20
102.2807863772049
 30
0.0
 10
184.570165503904
 20
102.5569285051776
 30
0.0
 10
184.7940272044108
 20
102.7807863909877
 30
0.0
 10
185.0701655176867
 20
102.7807863909877
 30
0.0
  0
SPLINE
  5
8D
330
70
100
AcDbEntity
  8
0
 62
     7
370
    25
100
AcDbSpline
210
0.0
220
0.0
230
1.0
 70
     9
 71
     3
 72
    29
 73
    25
 74
     0
 42
0.0000000001
 43
0.0000000001
 40
0.0
 40
0.0
 40
0.0
 40
0.0
 40
1.0
 40
1.0
 40
1.0
 40
2.0
 40
2.0
 40
2.0
 40
3.0
 40
3.0
 40
3.0
 40
4.0
 40
4.0
 40
4.0
 40
5.0
 40
5.0
 40
5.0
 40
6.0
 40
6.0
 40
6.0
 40
7.0
 40
7.0
 40
7.0
 40
8.0
 40
8.0
 40
8.0
 40
8.0
 10
204.120153835778
 20
102.7807863909877
 30
0.0
 10
204.120153835778
 20
102.7807863909877
 30
0.0
 10
217.1201541941295
 20
102.7807863909877
 30
0.0
 10
217.1201541941295
 20
102.7807863909877
 30
0.0
 10
217.3962925074054
 20
102.7807863909877
 30
0.0
 10
217.6201542079122
 20
102.5569285051776
 30
0.0
 10
217.6201542079122
 20
102.2807863772049
 30
0.0
 10
217.6201542079122
 20
102.2807863772049
 30
0.0
 10
217.6201542079122
 20
89.28078601885344
 30
0.0
 10
217.6201542079122
 20
89.28078601885344
 30
0.0
 10
217.6201542079122
 20
89.00464389087948
 30
0.0
 10
217.3962925074054
 20
88.7807860050707
 30
0.0
 10
217.1201541941295
 20
88.7807860050707
 30
0.0
 10
217.1201541941295
 20
88.7807860050707
 30
0.0
 10
204.120153835778
 20
88.7807860050707
 30
0.0
 10
204.120153835778
 20
88.7807860050707
 30
0.0
 10
203.844015522502
 20
88.7807860050707
 30
0.0
 10
203.6201538219952
 20
89.00464389087948
 30
0.0
 10
203.6201538219952
 20
89.28078601885344
 30
0.0
 10
203.6201538219952
 20
89.28078601885344
 30
0.0
 10
203.6201538219952
 20
102.2807863772049
 30
0.0
 10
203.6201538219952
 20
102.2807863772049
 30
0.0
 10
203.6201538219952
 20
102.5569285051776
 30
0.0
 10
203.844015522502
 20
102.7807863909877
 30
0.0
 10
204.120153835778
 20
102.7807863909877
 30
0.0
  0
SPLINE
  5
8E
330
70
100
AcDbEntity
  8
0
 62
     7
370
    25
100
AcDbSpline
210
0.0
220
0.0
230
1.0
 70
     9
 71
     3
 72
    29
 73
    25
 74
     0
 42
0.0000000001
 43
0.0000000001
 40
0.0
 40
0.0
 40
0.0
 40
0.0
 40
1.0
 40
1.0
 40
1.0
 40
2.0
 40
2.0
 40
2.0
 40
3.0
 40
3.0
 40
3.0
 40
4.0
 40
4.0
 40
4.0
 40
5.0
 40
5.0
 40
5.0
 40
6.0
 40
6.0
 40
6.0
 40
7.0
 40
7.0
 40
7.0
 40
8.0
 40
8.0
 40
8.0
 40
8.0
 10
225.5511541823936
 20
102.7807863909877
 30
0.0
 10
225.5511541823936
 20
102.7807863909877
 30
0.0
 10
238.5511545407451
 20
102.7807863909877
 30
0.0
 10
238.5511545407451
 20
102.7807863909877
 30
0.0
 10
238.827292854021
 20
102.7807863909877
 30
0.0
 10
239.0511545545278
 20
102.5569285051776
 30
0.0
 10
239.0511545545278
 20
102.2807863772049
 30
0.0
 10
239.0511545545278
 20
102.2807863772049
 30
0.0
 10
239.0511545545278
 20
89.28078601885344
 30
0.0
 10
239.0511545545278
 20
89.28078601885344
 30
0.0
 10
239.0511545545278
 20
89.00464389087948
 30
0.0
 10
238.827292854021
 20
88.7807860050707
 30
0.0
 10
238.5511545407451
 20
88.7807860050707
 30
0.0
 10
238.5511545407451
 20
88.7807860050707
 30
0.0
 10
225.5511541823936
 20
88.7807860050707
 30
0.0
 10
225.5511541823936
 20
88.7807860050707
 30
0.0
 10
225.2750158691176
 20
88.7807860050707
 30
0.0
 10
225.0511541686108
 20
89.00464389087948
 30
0.0
 10
225.0511541686108
 20
89.28078601885344
 30
0.0
 10
225.0511541686108
 20
89.28078601885344
 30
0.0
 10
225.0511541686108
 20
102.2807863772049
 30
0.0
 10
225.0511541686108
 20
102.2807863772049
 30
0.0
 10
225.0511541686108
 20
102.5569285051776
 30
0.0
 10
225.2750158691176
 20
102.7807863909877
 30
0.0
 10
225.5511541823936
 20
102.7807863909877
 30
0.0
  0
SPLINE
  5
8F
330
70
100
AcDbEntity
  8
0
 62
     7
370
    25
100
AcDbSpline
210
0.0
220
0.0
230
1.0
 70
     9
 71
     3
 72
    29
 73
    25
 74
     0
 42
0.0000000001
 43
0.0000000001
 40
0.0
 40
0.0
 40
0.0
 40
0.0
 40
1.0
 40
1.0
 40
1.0
 40
2.0
 40
2.0
 40
2.0
 40
3.0
 40
3.0
 40
3.0
 40
4.0
 40
4.0
 40
4.0
 40
5.0
 40
5.0
 40
5.0
 40
6.0
 40
6.0
 40
6.0
 40
7.0
 40
7.0
 40
7.0
 40
8.0
 40
8.0
 40
8.0
 40
8.0
 10
227.932166210918
 20
83.73078662880375
 30
0.0
 10
227.932166210918
 20
83.73078662880375
 30
0.0
 10
240.9321665692695
 20
83.73078662880375
 30
0.0
 10
240.9321665692695
 20
83.73078662880375
 30
0.0
 10
241.2083048825455
 20
83.73078662880375
 30
0.0
 10
241.4321665830523
 20
83.50692874299497
 30
0.0
 10
241.4321665830523
 20
83.23078661502099
 30
0.0
 10
241.4321665830523
 20
83.23078661502099
 30
0.0
 10
241.4321665830523
 20
70.23078244197276
 30
0.0
 10
241.4321665830523
 20
70.23078244197276
 30
0.0
 10
241.4321665830523
 20
69.95463649930207
 30
0.0
 10
241.2083048825455
 20
69.73078242819001
 30
0.0
 10
240.9321665692695
 20
69.73078242819001
 30
0.0
 10
240.9321665692695
 20
69.73078242819001
 30
0.0
 10
227.932166210918
 20
69.73078242819001
 30
0.0
 10
227.932166210918
 20
69.73078242819001
 30
0.0
 10
227.656027897642
 20
69.73078242819001
 30
0.0
 10
227.4321661971352
 20
69.95463649930207
 30
0.0
 10
227.4321661971352
 20
70.23078244197276
 30
0.0
 10
227.4321661971352
 20
70.23078244197276
 30
0.0
 10
227.4321661971352
 20
83.23078661502099
 30
0.0
 10
227.4321661971352
 20
83.23078661502099
 30
0.0
 10
227.4321661971352
 20
83.50692874299497
 30
0.0
 10
227.656027897642
 20
83.73078662880375
 30
0.0
 10
227.932166210918
 20
83.73078662880375
 30
0.0
  0
SPLINE
  5
90
330
70
100
AcDbEntity
  8
0
 62
     7
370
    25
100
AcDbSpline
210
0.0
220
0.0
230
1.0
 70
     9
 71
     3
 72
    29
 73
    25
 74
     0
 42
0.0000000001
 43
0.0000000001
 40
0.0
 40
0.0
 40
0.0
 40
0.0
 40
1.0
 40
1.0
 40
1.0
 40
2.0
 40
2.0
 40
2.0
 40
3.0
 40
3.0
 40
3.0
 40
4.0
 40
4.0
 40
4.0
 40
5.0
 40
5.0
 40
5.0
 40
6.0
 40
6.0
 40
6.0
 40
7.0
 40
7.0
 40
7.0
 40
8.0
 40
8.0
 40
8.0
 40
8.0
 10
56.48215547666458
 20
140.8807873458651
 30
0.0
 10
56.48215547666458
 20
140.8807873458651
 30
0.0
 10
69.48215535817884
 20
140.8807873458651
 30
0.0
 10
69.48215535817884
 20
140.8807873458651
 30
0.0
 10
69.75829748615217
 20
140.8807873458651
 30
0.0
 10
69.98215537196159
 20
140.6569296984745
 30
0.0
 10
69.98215537196159
 20
140.3807873320824
 30
0.0
 10
69.98215537196159
 20
140.3807873320824
 30
0.0
 10
69.98215537196159
 20
127.3807874505681
 30
0.0
 10
69.98215537196159
 20
127.3807874505681
 30
0.0
 10
69.98215537196159
 20
127.1046453225948
 30
0.0
 10
69.75829748615217
 20
126.8807874367854
 30
0.0
 10
69.48215535817884
 20
126.8807874367854
 30
0.0
 10
69.48215535817884
 20
126.8807874367854
 30
0.0
 10
56.48215547666458
 20
126.8807874367854
 30
0.0
 10
56.48215547666458
 20
126.8807874367854
 30
0.0
 10
56.20601311027247
 20
126.8807874367854
 30
0.0
 10
55.98215546288184
 20
127.1046453225948
 30
0.0
 10
55.98215546288184
 20
127.3807874505681
 30
0.0
 10
55.98215546288184
 20
127.3807874505681
 30
0.0
 10
55.98215546288184
 20
140.3807873320824
 30
0.0
 10
55.98215546288184
 20
140.3807873320824
 30
0.0
 10
55.98215546288184
 20
140.6569296984745
 30
0.0
 10
56.20601311027247
 20
140.8807873458651
 30
0.0
 10
56.48215547666458
 20
140.8807873458651
 30
0.0
  0
SPLINE
  5
91
330
70
100
AcDbEntity
  8
0
 62
     7
370
    25
100
AcDbSpline
210
0.0
220
0.0
230
1.0
 70
     9
 71
     3
 72
    29
 73
    25
 74
     0
 42
0.0000000001
 43
0.0000000001
 40
0.0
 40
0.0
 40
0.0
 40
0.0
 40
1.0
 40
1.0
 40
1.0
 40
2.0
 40
2.0
 40
2.0
 40
3.0
 40
3.0
 40
3.0
 40
4.0
 40
4.0
 40
4.0
 40
5.0
 40
5.0
 40
5.0
 40
6.0
 40
6.0
 40
6.0
 40
7.0
 40
7.0
 40
7.0
 40
8.0
 40
8.0
 40
8.0
 40
8.0
 10
94.58215643154266
 20
140.8807873458651
 30
0.0
 10
94.58215643154266
 20
140.8807873458651
 30
0.0
 10
107.5821567898942
 20
140.8807873458651
 30
0.0
 10
107.5821567898942
 20
140.8807873458651
 30
0.0
 10
107.8582989178675
 20
140.8807873458651
 30
0.0
 10
108.0821568036769
 20
140.6569296984745
 30
0.0
 10
108.0821568036769
 20
140.3807873320824
 30
0.0
 10
108.0821568036769
 20
140.3807873320824
 30
0.0
 10
108.0821568036769
 20
127.3807874505681
 30
0.0
 10
108.0821568036769
 20
127.3807874505681
 30
0.0
 10
108.0821568036769
 20
127.1046453225948
 30
0.0
 10
107.8582989178675
 20
126.8807874367854
 30
0.0
 10
107.5821567898942
 20
126.8807874367854
 30
0.0
 10
107.5821567898942
 20
126.8807874367854
 30
0.0
 10
94.58215643154266
 20
126.8807874367854
 30
0.0
 10
94.58215643154266
 20
126.8807874367854
 30
0.0
 10
94.30601430356933
 20
126.8807874367854
 30
0.0
 10
94.0821564177599
 20
127.1046453225948
 30
0.0
 10
94.0821564177599
 20
127.3807874505681
 30
0.0
 10
94.0821564177599
 20
127.3807874505681
 30
0.0
 10
94.0821564177599
 20
140.3807873320824
 30
0.0
 10
94.0821564177599
 20
140.3807873320824
 30
0.0
 10
94.0821564177599
 20
140.6569296984745
 30
0.0
 10
94.30601430356933
 20
140.8807873458651
 30
0.0
 10
94.58215643154266
 20
140.8807873458651
 30
0.0
  0
SPLINE
  5
92
330
70
100
AcDbEntity
  8
0
 62
     7
370
    25
100
AcDbSpline
210
0.0
220
0.0
230
1.0
 70
     9
 71
     3
 72
    29
 73
    25
 74
     0
 42
0.0000000001
 43
0.0000000001
 40
0.0
 40
0.0
 40
0.0
 40
0.0
 40
1.0
 40
1.0
 40
1.0
 40
2.0
 40
2.0
 40
2.0
 40
3.0
 40
3.0
 40
3.0
 40
4.0
 40
4.0
 40
4.0
 40
5.0
 40
5.0
 40
5.0
 40
6.0
 40
6.0
 40
6.0
 40
7.0
 40
7.0
 40
7.0
 40
8.0
 40
8.0
 40
8.0
 40
8.0
 10
113.6321561937259
 20
140.8807873458651
 30
0.0
 10
113.6321561937259
 20
140.8807873458651
 30
0.0
 10
126.6321603667748
 20
140.8807873458651
 30
0.0
 10
126.6321603667748
 20
140.8807873458651
 30
0.0
 10
126.9083063094458
 20
140.8807873458651
 30
0.0
 10
127.1321603805576
 20
140.6569296984745
 30
0.0
 10
127.1321603805576
 20
140.3807873320824
 30
0.0
 10
127.1321603805576
 20
140.3807873320824
 30
0.0
 10
127.1321603805576
 20
127.3807874505681
 30
0.0
 10
127.1321603805576
 20
127.3807874505681
 30
0.0
 10
127.1321603805576
 20
127.1046453225948
 30
0.0
 10
126.9083063094458
 20
126.8807874367854
 30
0.0
 10
126.6321603667748
 20
126.8807874367854
 30
0.0
 10
126.6321603667748
 20
126.8807874367854
 30
0.0
 10
113.6321561937259
 20
126.8807874367854
 30
0.0
 10
113.6321561937259
 20
126.8807874367854
 30
0.0
 10
113.3560140657526
 20
126.8807874367854
 30
0.0
 10
113.1321561799432
 20
127.1046453225948
 30
0.0
 10
113.1321561799432
 20
127.3807874505681
 30
0.0
 10
113.1321561799432
 20
127.3807874505681
 30
0.0
 10
113.1321561799432
 20
140.3807873320824
 30
0.0
 10
113.1321561799432
 20
140.3807873320824
 30
0.0
 10
113.1321561799432
 20
140.6569296984745
 30
0.0
 10
113.3560140657526
 20
140.8807873458651
 30
0.0
 10
113.6321561937259
 20
140.8807873458651
 30
0.0
  0
SPLINE
  5
93
330
70
100
AcDbEntity
  8
0
 62
     7
370
    25
100
AcDbSpline
210
0.0
220
0.0
230
1.0
 70
     9
 71
     3
 72
    29
 73
    25
 74
     0
 42
0.0000000001
 43
0.0000000001
 40
0.0
 40
0.0
 40
0.0
 40
0.0
 40
1.0
 40
1.0
 40
1.0
 40
2.0
 40
2.0
 40
2.0
 40
3.0
 40
3.0
 40
3.0
 40
4.0
 40
4.0
 40
4.0
 40
5.0
 40
5.0
 40
5.0
 40
6.0
 40
6.0
 40
6.0
 40
7.0
 40
7.0
 40
7.0
 40
8.0
 40
8.0
 40
8.0
 40
8.0
 10
132.6821559559093
 20
140.8807873458651
 30
0.0
 10
132.6821559559093
 20
140.8807873458651
 30
0.0
 10
145.6821563142608
 20
140.8807873458651
 30
0.0
 10
145.6821563142608
 20
140.8807873458651
 30
0.0
 10
145.9583022569315
 20
140.8807873458651
 30
0.0
 10
146.1821563280435
 20
140.6569296984745
 30
0.0
 10
146.1821563280435
 20
140.3807873320824
 30
0.0
 10
146.1821563280435
 20
140.3807873320824
 30
0.0
 10
146.1821563280435
 20
127.3807874505681
 30
0.0
 10
146.1821563280435
 20
127.3807874505681
 30
0.0
 10
146.1821563280435
 20
127.1046453225948
 30
0.0
 10
145.9583022569315
 20
126.8807874367854
 30
0.0
 10
145.6821563142608
 20
126.8807874367854
 30
0.0
 10
145.6821563142608
 20
126.8807874367854
 30
0.0
 10
132.6821559559093
 20
126.8807874367854
 30
0.0
 10
132.6821559559093
 20
126.8807874367854
 30
0.0
 10
132.4060100132386
 20
126.8807874367854
 30
0.0
 10
132.1821559421265
 20
127.1046453225948
 30
0.0
 10
132.1821559421265
 20
127.3807874505681
 30
0.0
 10
132.1821559421265
 20
127.3807874505681
 30
0.0
 10
132.1821559421265
 20
140.3807873320824
 30
0.0
 10
132.1821559421265
 20
140.3807873320824
 30
0.0
 10
132.1821559421265
 20
140.6569296984745
 30
0.0
 10
132.4060100132386
 20
140.8807873458651
 30
0.0
 10
132.6821559559093
 20
140.8807873458651
 30
0.0
  0
SPLINE
  5
94
330
70
100
AcDbEntity
  8
0
 62
     7
370
    25
100
AcDbSpline
210
0.0
220
0.0
230
1.0
 70
     9
 71
     3
 72
    29
 73
    25
 74
     0
 42
0.0000000001
 43
0.0000000001
 40
0.0
 40
0.0
 40
0.0
 40
0.0
 40
1.0
 40
1.0
 40
1.0
 40
2.0
 40
2.0
 40
2.0
 40
3.0
 40
3.0
 40
3.0
 40
4.0
 40
4.0
 40
4.0
 40
5.0
 40
5.0
 40
5.0
 40
6.0
 40
6.0
 40
6.0
 40
7.0
 40
7.0
 40
7.0
 40
8.0
 40
8.0
 40
8.0
 40
8.0
 10
151.7321595327899
 20
140.8807873458651
 30
0.0
 10
151.7321595327899
 20
140.8807873458651
 30
0.0
 10
164.7321598911415
 20
140.8807873458651
 30
0.0
 10
164.7321598911415
 20
140.8807873458651
 30
0.0
 10
165.0083058338122
 20
140.8807873458651
 30
0.0
 10
165.2321599049242
 20
140.6569296984745
 30
0.0
 10
165.2321599049242
 20
140.3807873320824
 30
0.0
 10
165.2321599049242
 20
140.3807873320824
 30
0.0
 10
165.2321599049242
 20
127.3807874505681
 30
0.0
 10
165.2321599049242
 20
127.3807874505681
 30
0.0
 10
165.2321599049242
 20
127.1046453225948
 30
0.0
 10
165.0083058338122
 20
126.8807874367854
 30
0.0
 10
164.7321598911415
 20
126.8807874367854
 30
0.0
 10
164.7321598911415
 20
126.8807874367854
 30
0.0
 10
151.7321595327899
 20
126.8807874367854
 30
0.0
 10
151.7321595327899
 20
126.8807874367854
 30
0.0
 10
151.4560135901193
 20
126.8807874367854
 30
0.0
 10
151.2321595190072
 20
127.1046453225948
 30
0.0
 10
151.2321595190072
 20
127.3807874505681
 30
0.0
 10
151.2321595190072
 20
127.3807874505681
 30
0.0
 10
151.2321595190072
 20
140.3807873320824
 30
0.0
 10
151.2321595190072
 20
140.3807873320824
 30
0.0
 10
151.2321595190072
 20
140.6569296984745
 30
0.0
 10
151.4560135901193
 20
140.8807873458651
 30
0.0
 10
151.7321595327899
 20
140.8807873458651
 30
0.0
  0
SPLINE
  5
95
330
70
100
AcDbEntity
  8
0
 62
     7
370
    25
100
AcDbSpline
210
0.0
220
0.0
230
1.0
 70
     9
 71
     3
 72
    29
 73
    25
 74
     0
 42
0.0000000001
 43
0.0000000001
 40
0.0
 40
0.0
 40
0.0
 40
0.0
 40
1.0
 40
1.0
 40
1.0
 40
2.0
 40
2.0
 40
2.0
 40
3.0
 40
3.0
 40
3.0
 40
4.0
 40
4.0
 40
4.0
 40
5.0
 40
5.0
 40
5.0
 40
6.0
 40
6.0
 40
6.0
 40
7.0
 40
7.0
 40
7.0
 40
8.0
 40
8.0
 40
8.0
 40
8.0
 10
189.8321590571566
 20
140.8807873458651
 30
0.0
 10
189.8321590571566
 20
140.8807873458651
 30
0.0
 10
202.8321594155081
 20
140.8807873458651
 30
0.0
 10
202.8321594155081
 20
140.8807873458651
 30
0.0
 10
203.1082977287841
 20
140.8807873458651
 30
0.0
 10
203.3321594292909
 20
140.6569296984745
 30
0.0
 10
203.3321594292909
 20
140.3807873320824
 30
0.0
 10
203.3321594292909
 20
140.3807873320824
 30
0.0
 10
203.3321594292909
 20
127.3807874505681
 30
0.0
 10
203.3321594292909
 20
127.3807874505681
 30
0.0
 10
203.3321594292909
 20
127.1046453225948
 30
0.0
 10
203.1082977287841
 20
126.8807874367854
 30
0.0
 10
202.8321594155081
 20
126.8807874367854
 30
0.0
 10
202.8321594155081
 20
126.8807874367854
 30
0.0
 10
189.8321590571566
 20
126.8807874367854
 30
0.0
 10
189.8321590571566
 20
126.8807874367854
 30
0.0
 10
189.5560207438806
 20
126.8807874367854
 30
0.0
 10
189.3321590433739
 20
127.1046453225948
 30
0.0
 10
189.3321590433739
 20
127.3807874505681
 30
0.0
 10
189.3321590433739
 20
127.3807874505681
 30
0.0
 10
189.3321590433739
 20
140.3807873320824
 30
0.0
 10
189.3321590433739
 20
140.3807873320824
 30
0.0
 10
189.3321590433739
 20
140.6569296984745
 30
0.0
 10
189.5560207438806
 20
140.8807873458651
 30
0.0
 10
189.8321590571566
 20
140.8807873458651
 30
0.0
  0
SPLINE
  5
96
330
70
100
AcDbEntity
  8
0
 62
     7
370
    25
100
AcDbSpline
210
0.0
220
0.0
230
1.0
 70
     9
 71
     3
 72
    29
 73
    25
 74
     0
 42
0.0000000001
 43
0.0000000001
 40
0.0
 40
0.0
 40
0.0
 40
0.0
 40
1.0
 40
1.0
 40
1.0
 40
2.0
 40
2.0
 40
2.0
 40
3.0
 40
3.0
 40
3.0
 40
4.0
 40
4.0
 40
4.0
 40
5.0
 40
5.0
 40
5.0
 40
6.0
 40
6.0
 40
6.0
 40
7.0
 40
7.0
 40
7.0
 40
8.0
 40
8.0
 40
8.0
 40
8.0
 10
208.8821626340373
 20
140.8807873458651
 30
0.0
 10
208.8821626340373
 20
140.8807873458651
 30
0.0
 10
221.8821629923888
 20
140.8807873458651
 30
0.0
 10
221.8821629923888
 20
140.8807873458651
 30
0.0
 10
222.1583013056648
 20
140.8807873458651
 30
0.0
 10
222.3821630061716
 20
140.6569296984745
 30
0.0
 10
222.3821630061716
 20
140.3807873320824
 30
0.0
 10
222.3821630061716
 20
140.3807873320824
 30
0.0
 10
222.3821630061716
 20
127.3807874505681
 30
0.0
 10
222.3821630061716
 20
127.3807874505681
 30
0.0
 10
222.3821630061716
 20
127.1046453225948
 30
0.0
 10
222.1583013056648
 20
126.8807874367854
 30
0.0
 10
221.8821629923888
 20
126.8807874367854
 30
0.0
 10
221.8821629923888
 20
126.8807874367854
 30
0.0
 10
208.8821626340373
 20
126.8807874367854
 30
0.0
 10
208.8821626340373
 20
126.8807874367854
 30
0.0
 10
208.6060243207613
 20
126.8807874367854
 30
0.0
 10
208.3821626202545
 20
127.1046453225948
 30
0.0
 10
208.3821626202545
 20
127.3807874505681
 30
0.0
 10
208.3821626202545
 20
127.3807874505681
 30
0.0
 10
208.3821626202545
 20
140.3807873320824
 30
0.0
 10
208.3821626202545
 20
140.3807873320824
 30
0.0
 10
208.3821626202545
 20
140.6569296984745
 30
0.0
 10
208.6060243207613
 20
140.8807873458651
 30
0.0
 10
208.8821626340373
 20
140.8807873458651
 30
0.0
  0
SPLINE
  5
97
330
70
100
AcDbEntity
  8
0
 62
     7
370
    25
100
AcDbSpline
210
0.0
220
0.0
230
1.0
 70
     9
 71
     3
 72
    29
 73
    25
 74
     0
 42
0.0000000001
 43
0.0000000001
 40
0.0
 40
0.0
 40
0.0
 40
0.0
 40
1.0
 40
1.0
 40
1.0
 40
2.0
 40
2.0
 40
2.0
 40
3.0
 40
3.0
 40
3.0
 40
4.0
 40
4.0
 40
4.0
 40
5.0
 40
5.0
 40
5.0
 40
6.0
 40
6.0
 40
6.0
 40
7.0
 40
7.0
 40
7.0
 40
8.0
 40
8.0
 40
8.0
 40
8.0
 10
227.932166210918
 20
140.8807873458651
 30
0.0
 10
227.932166210918
 20
140.8807873458651
 30
0.0
 10
240.9321665692695
 20
140.8807873458651
 30
0.0
 10
240.9321665692695
 20
140.8807873458651
 30
0.0
 10
241.2083048825455
 20
140.8807873458651
 30
0.0
 10
241.4321665830523
 20
140.6569296984745
 30
0.0
 10
241.4321665830523
 20
140.3807873320824
 30
0.0
 10
241.4321665830523
 20
140.3807873320824
 30
0.0
 10
241.4321665830523
 20
127.3807874505681
 30
0.0
 10
241.4321665830523
 20
127.3807874505681
 30
0.0
 10
241.4321665830523
 20
127.1046453225948
 30
0.0
 10
241.2083048825455
 20
126.8807874367854
 30
0.0
 10
240.9321665692695
 20
126.8807874367854
 30
0.0
 10
240.9321665692695
 20
126.8807874367854
 30
0.0
 10
227.932166210918
 20
126.8807874367854
 30
0.0
 10
227.932166210918
 20
126.8807874367854
 30
0.0
 10
227.656027897642
 20
126.8807874367854
 30
0.0
 10
227.4321661971352
 20
127.1046453225948
 30
0.0
 10
227.4321661971352
 20
127.3807874505681
 30
0.0
 10
227.4321661971352
 20
127.3807874505681
 30
0.0
 10
227.4321661971352
 20
140.3807873320824
 30
0.0
 10
227.4321661971352
 20
140.3807873320824
 30
0.0
 10
227.4321661971352
 20
140.6569296984745
 30
0.0
 10
227.656027897642
 20
140.8807873458651
 30
0.0
 10
227.932166210918
 20
140.8807873458651
 30
0.0
  0
SPLINE
  5
98
330
70
100
AcDbEntity
  8
0
 62
     7
370
    25
100
AcDbSpline
210
0.0
220
0.0
230
1.0
 70
     9
 71
     3
 72
    29
 73
    25
 74
     0
 42
0.0000000001
 43
0.0000000001
 40
0.0
 40
0.0
 40
0.0
 40
0.0
 40
1.0
 40
1.0
 40
1.0
 40
2.0
 40
2.0
 40
2.0
 40
3.0
 40
3.0
 40
3.0
 40
4.0
 40
4.0
 40
4.0
 40
5.0
 40
5.0
 40
5.0
 40
6.0
 40
6.0
 40
6.0
 40
7.0
 40
7.0
 40
7.0
 40
8.0
 40
8.0
 40
8.0
 40
8.0
 10
56.48215547666458
 20
83.73078662880375
 30
0.0
 10
56.48215547666458
 20
83.73078662880375
 30
0.0
 10
69.48215535817884
 20
83.73078662880375
 30
0.0
 10
69.48215535817884
 20
83.73078662880375
 30
0.0
 10
69.75829748615217
 20
83.73078662880375
 30
0.0
 10
69.98215537196159
 20
83.50692874299497
 30
0.0
 10
69.98215537196159
 20
83.23078661502099
 30
0.0
 10
69.98215537196159
 20
83.23078661502099
 30
0.0
 10
69.98215537196159
 20
70.23078244197276
 30
0.0
 10
69.98215537196159
 20
70.23078244197276
 30
0.0
 10
69.98215537196159
 20
69.95463649930207
 30
0.0
 10
69.75829748615217
 20
69.73078242819001
 30
0.0
 10
69.48215535817884
 20
69.73078242819001
 30
0.0
 10
69.48215535817884
 20
69.73078242819001
 30
0.0
 10
56.48215547666458
 20
69.73078242819001
 30
0.0
 10
56.48215547666458
 20
69.73078242819001
 30
0.0
 10
56.20601311027247
 20
69.73078242819001
 30
0.0
 10
55.98215546288184
 20
69.95463649930207
 30
0.0
 10
55.98215546288184
 20
70.23078244197276
 30
0.0
 10
55.98215546288184
 20
70.23078244197276
 30
0.0
 10
55.98215546288184
 20
83.23078661502099
 30
0.0
 10
55.98215546288184
 20
83.23078661502099
 30
0.0
 10
55.98215546288184
 20
83.50692874299497
 30
0.0
 10
56.20601311027247
 20
83.73078662880375
 30
0.0
 10
56.48215547666458
 20
83.73078662880375
 30
0.0
  0
SPLINE
  5
99
330
70
100
AcDbEntity
  8
0
 62
     7
370
    25
100
AcDbSpline
210
0.0
220
0.0
230
1.0
 70
     9
 71
     3
 72
    29
 73
    25
 74
     0
 42
0.0000000001
 43
0.0000000001
 40
0.0
 40
0.0
 40
0.0
 40
0.0
 40
1.0
 40
1.0
 40
1.0
 40
2.0
 40
2.0
 40
2.0
 40
3.0
 40
3.0
 40
3.0
 40
4.0
 40
4.0
 40
4.0
 40
5.0
 40
5.0
 40
5.0
 40
6.0
 40
6.0
 40
6.0
 40
7.0
 40
7.0
 40
7.0
 40
8.0
 40
8.0
 40
8.0
 40
8.0
 10
108.8701550248613
 20
102.7807863909877
 30
0.0
 10
108.8701550248613
 20
102.7807863909877
 30
0.0
 10
121.8701591979102
 20
102.7807863909877
 30
0.0
 10
121.8701591979102
 20
102.7807863909877
 30
0.0
 10
122.1463051405809
 20
102.7807863909877
 30
0.0
 10
122.370159211693
 20
102.5569285051776
 30
0.0
 10
122.370159211693
 20
102.2807863772049
 30
0.0
 10
122.370159211693
 20
102.2807863772049
 30
0.0
 10
122.370159211693
 20
89.28078601885344
 30
0.0
 10
122.370159211693
 20
89.28078601885344
 30
0.0
 10
122.370159211693
 20
89.00464389087948
 30
0.0
 10
122.1463051405809
 20
88.7807860050707
 30
0.0
 10
121.8701591979102
 20
88.7807860050707
 30
0.0
 10
121.8701591979102
 20
88.7807860050707
 30
0.0
 10
108.8701550248613
 20
88.7807860050707
 30
0.0
 10
108.8701550248613
 20
88.7807860050707
 30
0.0
 10
108.594012896888
 20
88.7807860050707
 30
0.0
 10
108.3701550110786
 20
89.00464389087948
 30
0.0
 10
108.3701550110786
 20
89.28078601885344
 30
0.0
 10
108.3701550110786
 20
89.28078601885344
 30
0.0
 10
108.3701550110786
 20
102.2807863772049
 30
0.0
 10
108.3701550110786
 20
102.2807863772049
 30
0.0
 10
108.3701550110786
 20
102.5569285051776
 30
0.0
 10
108.594012896888
 20
102.7807863909877
 30
0.0
 10
108.8701550248613
 20
102.7807863909877
 30
0.0
  0
SPLINE
  5
9A
330
70
100
AcDbEntity
  8
0
 62
     7
370
    25
100
AcDbSpline
210
0.0
220
0.0
230
1.0
 70
     9
 71
     3
 72
    29
 73
    25
 74
     0
 42
0.0000000001
 43
0.0000000001
 40
0.0
 40
0.0
 40
0.0
 40
0.0
 40
1.0
 40
1.0
 40
1.0
 40
2.0
 40
2.0
 40
2.0
 40
3.0
 40
3.0
 40
3.0
 40
4.0
 40
4.0
 40
4.0
 40
5.0
 40
5.0
 40
5.0
 40
6.0
 40
6.0
 40
6.0
 40
7.0
 40
7.0
 40
7.0
 40
8.0
 40
8.0
 40
8.0
 40
8.0
 10
170.7821554802759
 20
140.8807873458651
 30
0.0
 10
170.7821554802759
 20
140.8807873458651
 30
0.0
 10
183.7821558386274
 20
140.8807873458651
 30
0.0
 10
183.7821558386274
 20
140.8807873458651
 30
0.0
 10
184.0582941519034
 20
140.8807873458651
 30
0.0
 10
184.2821558524102
 20
140.6569296984745
 30
0.0
 10
184.2821558524102
 20
140.3807873320824
 30
0.0
 10
184.2821558524102
 20
140.3807873320824
 30
0.0
 10
184.2821558524102
 20
127.3807874505681
 30
0.0
 10
184.2821558524102
 20
127.3807874505681
 30
0.0
 10
184.2821558524102
 20
127.1046453225948
 30
0.0
 10
184.0582941519034
 20
126.8807874367854
 30
0.0
 10
183.7821558386274
 20
126.8807874367854
 30
0.0
 10
183.7821558386274
 20
126.8807874367854
 30
0.0
 10
170.7821554802759
 20
126.8807874367854
 30
0.0
 10
170.7821554802759
 20
126.8807874367854
 30
0.0
 10
170.5060095376052
 20
126.8807874367854
 30
0.0
 10
170.2821554664932
 20
127.1046453225948
 30
0.0
 10
170.2821554664932
 20
127.3807874505681
 30
0.0
 10
170.2821554664932
 20
127.3807874505681
 30
0.0
 10
170.2821554664932
 20
140.3807873320824
 30
0.0
 10
170.2821554664932
 20
140.3807873320824
 30
0.0
 10
170.2821554664932
 20
140.6569296984745
 30
0.0
 10
170.5060095376052
 20
140.8807873458651
 30
0.0
 10
170.7821554802759
 20
140.8807873458651
 30
0.0
  0
SPLINE
  5
9B
330
70
100
AcDbEntity
  8
0
 62
     7
370
    25
100
AcDbSpline
210
0.0
220
0.0
230
1.0
 70
     9
 71
     3
 72
    47
 73
    43
 74
     0
 42
0.0000000001
 43
0.0000000001
 40
0.0
 40
0.0
 40
0.0
 40
0.0
 40
1.0
 40
1.0
 40
1.0
 40
2.0
 40
2.0
 40
2.0
 40
3.0
 40
3.0
 40
3.0
 40
4.0
 40
4.0
 40
4.0
 40
5.0
 40
5.0
 40
5.0
 40
6.0
 40
6.0
 40
6.0
 40
7.0
 40
7.0
 40
7.0
 40
8.0
 40
8.0
 40
8.0
 40
9.0
 40
9.0
 40
9.0
 40
10.0
 40
10.0
 40
10.0
 40
11.0
 40
11.0
 40
11.0
 40
12.0
 40
12.0
 40
12.0
 40
13.0
 40
13.0
 40
13.0
 40
14.0
 40
14.0
 40
14.0
 40
14.0
 10
221.8821714058468
 20
83.73078492508509
 30
0.0
 10
221.8821714058468
 20
83.73078492508509
 30
0.0
 10
218.8821607254444
 20
83.73078492508509
 30
0.0
 10
218.8821607254444
 20
83.73078492508509
 30
0.0
 10
218.8821607254444
 20
83.73078492508509
 30
0.0
 10
218.8821607254444
 20
85.23077949936288
 30
0.0
 10
218.8821607254444
 20
85.23077949936288
 30
0.0
 10
218.8821607254444
 20
85.50692543435244
 30
0.0
 10
218.6582941144435
 20
85.73079204535332
 30
0.0
 10
218.3821697113007
 20
85.73079204535332
 30
0.0
 10
218.3821697113007
 20
85.73079204535332
 30
0.0
 10
212.3821698823428
 20
85.73079204535332
 30
0.0
 10
212.3821698823428
 20
85.73079204535332
 30
0.0
 10
212.1060239473532
 20
85.73079204535332
 30
0.0
 10
211.8821573363524
 20
85.50692543435244
 30
0.0
 10
211.8821573363524
 20
85.23077949936288
 30
0.0
 10
211.8821573363524
 20
85.23077949936288
 30
0.0
 10
211.8821573363524
 20
83.73078492508509
 30
0.0
 10
211.8821573363524
 20
83.73078492508509
 30
0.0
 10
211.8821573363524
 20
83.73078492508509
 30
0.0
 10
208.8821681877968
 20
83.73078492508509
 30
0.0
 10
208.8821681877968
 20
83.73078492508509
 30
0.0
 10
208.6060222528073
 20
83.73078492508509
 30
0.0
 10
208.3821556418064
 20
83.50691831408422
 30
0.0
 10
208.3821556418064
 20
83.23079391094145
 30
0.0
 10
208.3821556418064
 20
83.23079391094145
 30
0.0
 10
208.3821556418064
 20
70.23079069289152
 30
0.0
 10
208.3821556418064
 20
70.23079069289152
 30
0.0
 10
208.3821556418064
 20
69.95464475790196
 30
0.0
 10
208.6060222528073
 20
69.73077814690107
 30
0.0
 10
208.8821681877968
 20
69.73077814690107
 30
0.0
 10
208.8821681877968
 20
69.73077814690107
 30
0.0
 10
221.8821714058468
 20
69.73077814690107
 30
0.0
 10
221.8821714058468
 20
69.73077814690107
 30
0.0
 10
222.1582958089895
 20
69.73077814690107
 30
0.0
 10
222.3821624199904
 20
69.95464475790196
 30
0.0
 10
222.3821624199904
 20
70.23079069289152
 30
0.0
 10
222.3821624199904
 20
70.23079069289152
 30
0.0
 10
222.3821624199904
 20
83.23079391094145
 30
0.0
 10
222.3821624199904
 20
83.23079391094145
 30
0.0
 10
222.3821624199904
 20
83.50691831408422
 30
0.0
 10
222.1582958089895
 20
83.73078492508509
 30
0.0
 10
221.8821714058468
 20
83.73078492508509
 30
0.0
  0
SPLINE
  5
9C
330
70
100
AcDbEntity
  8
0
 62
     7
370
    25
100
AcDbSpline
210
0.0
220
0.0
230
1.0
 70
     9
 71
     3
 72
    47
 73
    43
 74
     0
 42
0.0000000001
 43
0.0000000001
 40
0.0
 40
0.0
 40
0.0
 40
0.0
 40
1.0
 40
1.0
 40
1.0
 40
2.0
 40
2.0
 40
2.0
 40
3.0
 40
3.0
 40
3.0
 40
4.0
 40
4.0
 40
4.0
 40
5.0
 40
5.0
 40
5.0
 40
6.0
 40
6.0
 40
6.0
 40
7.0
 40
7.0
 40
7.0
 40
8.0
 40
8.0
 40
8.0
 40
9.0
 40
9.0
 40
9.0
 40
10.0
 40
10.0
 40
10.0
 40
11.0
 40
11.0
 40
11.0
 40
12.0
 40
12.0
 40
12.0
 40
13.0
 40
13.0
 40
13.0
 40
14.0
 40
14.0
 40
14.0
 40
14.0
 10
88.53214990733745
 20
83.73078492508509
 30
0.0
 10
88.53214990733745
 20
83.73078492508509
 30
0.0
 10
85.53216075878189
 20
83.73078492508509
 30
0.0
 10
85.53216075878189
 20
83.73078492508509
 30
0.0
 10
85.53216075878189
 20
83.73078492508509
 30
0.0
 10
85.53216075878189
 20
85.23077949936288
 30
0.0
 10
85.53216075878189
 20
85.23077949936288
 30
0.0
 10
85.53216075878189
 20
85.50692543435244
 30
0.0
 10
85.308294147781
 20
85.73079204535332
 30
0.0
 10
85.03214821279177
 20
85.73079204535332
 30
0.0
 10
85.03214821279177
 20
85.73079204535332
 30
0.0
 10
79.03214838383354
 20
85.73079204535332
 30
0.0
 10
79.03214838383354
 20
85.73079204535332
 30
0.0
 10
78.75602398069077
 20
85.73079204535332
 30
0.0
 10
78.53215736968988
 20
85.50692543435244
 30
0.0
 10
78.53215736968988
 20
85.23077949936288
 30
0.0
 10
78.53215736968988
 20
85.23077949936288
 30
0.0
 10
78.53215736968988
 20
83.73078492508509
 30
0.0
 10
78.53215736968988
 20
83.73078492508509
 30
0.0
 10
78.53215736968988
 20
83.73078492508509
 30
0.0
 10
75.53214668928754
 20
83.73078492508509
 30
0.0
 10
75.53214668928754
 20
83.73078492508509
 30
0.0
 10
75.25602228614477
 20
83.73078492508509
 30
0.0
 10
75.0321556751442
 20
83.50691831408422
 30
0.0
 10
75.0321556751442
 20
83.23079391094145
 30
0.0
 10
75.0321556751442
 20
83.23079391094145
 30
0.0
 10
75.0321556751442
 20
70.23079069289152
 30
0.0
 10
75.0321556751442
 20
70.23079069289152
 30
0.0
 10
75.0321556751442
 20
69.95464475790196
 30
0.0
 10
75.25602228614477
 20
69.73077814690107
 30
0.0
 10
75.53214668928754
 20
69.73077814690107
 30
0.0
 10
75.53214668928754
 20
69.73077814690107
 30
0.0
 10
88.53214990733745
 20
69.73077814690107
 30
0.0
 10
88.53214990733745
 20
69.73077814690107
 30
0.0
 10
88.80829584232701
 20
69.73077814690107
 30
0.0
 10
89.03216245332822
 20
69.95464475790196
 30
0.0
 10
89.03216245332822
 20
70.23079069289152
 30
0.0
 10
89.03216245332822
 20
70.23079069289152
 30
0.0
 10
89.03216245332822
 20
83.23079391094145
 30
0.0
 10
89.03216245332822
 20
83.23079391094145
 30
0.0
 10
89.03216245332822
 20
83.50691831408422
 30
0.0
 10
88.80829584232701
 20
83.73078492508509
 30
0.0
 10
88.53214990733745
 20
83.73078492508509
 30
0.0
  0
SPLINE
  5
9D
330
70
100
AcDbEntity
  8
0
 62
     7
370
    25
100
AcDbSpline
210
0.0
220
0.0
230
1.0
 70
     9
 71
     3
 72
    47
 73
    43
 74
     0
 42
0.0000000001
 43
0.0000000001
 40
0.0
 40
0.0
 40
0.0
 40
0.0
 40
1.0
 40
1.0
 40
1.0
 40
2.0
 40
2.0
 40
2.0
 40
3.0
 40
3.0
 40
3.0
 40
4.0
 40
4.0
 40
4.0
 40
5.0
 40
5.0
 40
5.0
 40
6.0
 40
6.0
 40
6.0
 40
7.0
 40
7.0
 40
7.0
 40
8.0
 40
8.0
 40
8.0
 40
9.0
 40
9.0
 40
9.0
 40
10.0
 40
10.0
 40
10.0
 40
11.0
 40
11.0
 40
11.0
 40
12.0
 40
12.0
 40
12.0
 40
13.0
 40
13.0
 40
13.0
 40
14.0
 40
14.0
 40
14.0
 40
14.0
 10
202.8321498787625
 20
83.73078492508509
 30
0.0
 10
202.8321498787625
 20
83.73078492508509
 30
0.0
 10
199.8321607302069
 20
83.73078492508509
 30
0.0
 10
199.8321607302069
 20
83.73078492508509
 30
0.0
 10
199.8321607302069
 20
83.73078492508509
 30
0.0
 10
199.8321607302069
 20
85.23077949936288
 30
0.0
 10
199.8321607302069
 20
85.23077949936288
 30
0.0
 10
199.8321607302069
 20
85.50692543435244
 30
0.0
 10
199.608294119206
 20
85.73079204535332
 30
0.0
 10
199.3321697160632
 20
85.73079204535332
 30
0.0
 10
199.3321697160632
 20
85.73079204535332
 30
0.0
 10
193.3321698871053
 20
85.73079204535332
 30
0.0
 10
193.3321698871053
 20
85.73079204535332
 30
0.0
 10
193.0560239521157
 20
85.73079204535332
 30
0.0
 10
192.8321573411149
 20
85.50692543435244
 30
0.0
 10
192.8321573411149
 20
85.23077949936288
 30
0.0
 10
192.8321573411149
 20
85.23077949936288
 30
0.0
 10
192.8321573411149
 20
83.73078492508509
 30
0.0
 10
192.8321573411149
 20
83.73078492508509
 30
0.0
 10
192.8321573411149
 20
83.73078492508509
 30
0.0
 10
189.8321681925593
 20
83.73078492508509
 30
0.0
 10
189.8321681925593
 20
83.73078492508509
 30
0.0
 10
189.5560222575698
 20
83.73078492508509
 30
0.0
 10
189.3321556465689
 20
83.50691831408422
 30
0.0
 10
189.3321556465689
 20
83.23079391094145
 30
0.0
 10
189.3321556465689
 20
83.23079391094145
 30
0.0
 10
189.3321556465689
 20
70.23079069289152
 30
0.0
 10
189.3321556465689
 20
70.23079069289152
 30
0.0
 10
189.3321556465689
 20
69.95464475790196
 30
0.0
 10
189.5560222575698
 20
69.73077814690107
 30
0.0
 10
189.8321681925593
 20
69.73077814690107
 30
0.0
 10
189.8321681925593
 20
69.73077814690107
 30
0.0
 10
202.8321498787625
 20
69.73077814690107
 30
0.0
 10
202.8321498787625
 20
69.73077814690107
 30
0.0
 10
203.108295813752
 20
69.73077814690107
 30
0.0
 10
203.3321624247529
 20
69.95464475790196
 30
0.0
 10
203.3321624247529
 20
70.23079069289152
 30
0.0
 10
203.3321624247529
 20
70.23079069289152
 30
0.0
 10
203.3321624247529
 20
83.23079391094145
 30
0.0
 10
203.3321624247529
 20
83.23079391094145
 30
0.0
 10
203.3321624247529
 20
83.50691831408422
 30
0.0
 10
203.108295813752
 20
83.73078492508509
 30
0.0
 10
202.8321498787625
 20
83.73078492508509
 30
0.0
  0
SPLINE
  5
9E
330
70
100
AcDbEntity
  8
0
 62
     7
370
    25
100
AcDbSpline
210
0.0
220
0.0
230
1.0
 70
     9
 71
     3
 72
    47
 73
    43
 74
     0
 42
0.0000000001
 43
0.0000000001
 40
0.0
 40
0.0
 40
0.0
 40
0.0
 40
1.0
 40
1.0
 40
1.0
 40
2.0
 40
2.0
 40
2.0
 40
3.0
 40
3.0
 40
3.0
 40
4.0
 40
4.0
 40
4.0
 40
5.0
 40
5.0
 40
5.0
 40
6.0
 40
6.0
 40
6.0
 40
7.0
 40
7.0
 40
7.0
 40
8.0
 40
8.0
 40
8.0
 40
9.0
 40
9.0
 40
9.0
 40
10.0
 40
10.0
 40
10.0
 40
11.0
 40
11.0
 40
11.0
 40
12.0
 40
12.0
 40
12.0
 40
13.0
 40
13.0
 40
13.0
 40
14.0
 40
14.0
 40
14.0
 40
14.0
 10
107.5821499025749
 20
83.73078492508509
 30
0.0
 10
107.5821499025749
 20
83.73078492508509
 30
0.0
 10
104.5821607540194
 20
83.73078492508509
 30
0.0
 10
104.5821607540194
 20
83.73078492508509
 30
0.0
 10
104.5821607540194
 20
83.73078492508509
 30
0.0
 10
104.5821607540194
 20
85.23077949936288
 30
0.0
 10
104.5821607540194
 20
85.23077949936288
 30
0.0
 10
104.5821607540194
 20
85.50692543435244
 30
0.0
 10
104.3582941430185
 20
85.73079204535332
 30
0.0
 10
104.0821482080293
 20
85.73079204535332
 30
0.0
 10
104.0821482080293
 20
85.73079204535332
 30
0.0
 10
98.08214837907105
 20
85.73079204535332
 30
0.0
 10
98.08214837907105
 20
85.73079204535332
 30
0.0
 10
97.80602397592828
 20
85.73079204535332
 30
0.0
 10
97.58215736492738
 20
85.50692543435244
 30
0.0
 10
97.58215736492738
 20
85.23077949936288
 30
0.0
 10
97.58215736492738
 20
85.23077949936288
 30
0.0
 10
97.58215736492738
 20
83.73078492508509
 30
0.0
 10
97.58215736492738
 20
83.73078492508509
 30
0.0
 10
97.58215736492738
 20
83.73078492508509
 30
0.0
 10
94.58214668452503
 20
83.73078492508509
 30
0.0
 10
94.58214668452503
 20
83.73078492508509
 30
0.0
 10
94.30602228138226
 20
83.73078492508509
 30
0.0
 10
94.08215567038169
 20
83.50691831408422
 30
0.0
 10
94.08215567038169
 20
83.23079391094145
 30
0.0
 10
94.08215567038169
 20
83.23079391094145
 30
0.0
 10
94.08215567038169
 20
70.23079069289152
 30
0.0
 10
94.08215567038169
 20
70.23079069289152
 30
0.0
 10
94.08215567038169
 20
69.95464475790196
 30
0.0
 10
94.30602228138226
 20
69.73077814690107
 30
0.0
 10
94.58214668452503
 20
69.73077814690107
 30
0.0
 10
94.58214668452503
 20
69.73077814690107
 30
0.0
 10
107.5821499025749
 20
69.73077814690107
 30
0.0
 10
107.5821499025749
 20
69.73077814690107
 30
0.0
 10
107.8582958375645
 20
69.73077814690107
 30
0.0
 10
108.0821624485657
 20
69.95464475790196
 30
0.0
 10
108.0821624485657
 20
70.23079069289152
 30
0.0
 10
108.0821624485657
 20
70.23079069289152
 30
0.0
 10
108.0821624485657
 20
83.23079391094145
 30
0.0
 10
108.0821624485657
 20
83.23079391094145
 30
0.0
 10
108.0821624485657
 20
83.50691831408422
 30
0.0
 10
107.8582958375645
 20
83.73078492508509
 30
0.0
 10
107.5821499025749
 20
83.73078492508509
 30
0.0
  0
SPLINE
  5
9F
330
70
100
AcDbEntity
  8
0
 62
     7
370
    25
100
AcDbSpline
210
0.0
220
0.0
230
1.0
 70
     9
 71
     3
 72
    29
 73
    25
 74
     0
 42
0.0000000001
 43
0.0000000001
 40
0.0
 40
0.0
 40
0.0
 40
0.0
 40
1.0
 40
1.0
 40
1.0
 40
2.0
 40
2.0
 40
2.0
 40
3.0
 40
3.0
 40
3.0
 40
4.0
 40
4.0
 40
4.0
 40
5.0
 40
5.0
 40
5.0
 40
6.0
 40
6.0
 40
6.0
 40
7.0
 40
7.0
 40
7.0
 40
8.0
 40
8.0
 40
8.0
 40
8.0
 10
120.7191581896198
 20
70.73078245575551
 30
0.0
 10
120.7191581896198
 20
70.73078245575551
 30
0.0
 10
114.7191580242268
 20
70.73078245575551
 30
0.0
 10
114.7191580242268
 20
70.73078245575551
 30
0.0
 10
114.4430158962535
 20
70.73078245575551
 30
0.0
 10
114.2191580104441
 20
70.95463652686757
 30
0.0
 10
114.2191580104441
 20
71.23078246953825
 30
0.0
 10
114.2191580104441
 20
71.23078246953825
 30
0.0
 10
114.2191580104441
 20
85.230786670152
 30
0.0
 10
114.2191580104441
 20
85.230786670152
 30
0.0
 10
114.2191580104441
 20
85.50692879812597
 30
0.0
 10
114.4430158962535
 20
85.73078668393476
 30
0.0
 10
114.7191580242268
 20
85.73078668393476
 30
0.0
 10
114.7191580242268
 20
85.73078668393476
 30
0.0
 10
120.7191581896198
 20
85.73078668393476
 30
0.0
 10
120.7191581896198
 20
85.73078668393476
 30
0.0
 10
120.9953041322905
 20
85.73078668393476
 30
0.0
 10
121.2191582034026
 20
85.50692879812597
 30
0.0
 10
121.2191582034026
 20
85.230786670152
 30
0.0
 10
121.2191582034026
 20
85.230786670152
 30
0.0
 10
121.2191582034026
 20
71.23078246953825
 30
0.0
 10
121.2191582034026
 20
71.23078246953825
 30
0.0
 10
121.2191582034026
 20
70.95463652686757
 30
0.0
 10
120.9953041322905
 20
70.73078245575551
 30
0.0
 10
120.7191581896198
 20
70.73078245575551
 30
0.0
  0
SPLINE
  5
A0
330
70
100
AcDbEntity
  8
0
 62
     7
370
    25
100
AcDbSpline
210
0.0
220
0.0
230
1.0
 70
     9
 71
     3
 72
    47
 73
    43
 74
     0
 42
0.0000000001
 43
0.0000000001
 40
0.0
 40
0.0
 40
0.0
 40
0.0
 40
1.0
 40
1.0
 40
1.0
 40
2.0
 40
2.0
 40
2.0
 40
3.0
 40
3.0
 40
3.0
 40
4.0
 40
4.0
 40
4.0
 40
5.0
 40
5.0
 40
5.0
 40
6.0
 40
6.0
 40
6.0
 40
7.0
 40
7.0
 40
7.0
 40
8.0
 40
8.0
 40
8.0
 40
9.0
 40
9.0
 40
9.0
 40
10.0
 40
10.0
 40
10.0
 40
11.0
 40
11.0
 40
11.0
 40
12.0
 40
12.0
 40
12.0
 40
13.0
 40
13.0
 40
13.0
 40
14.0
 40
14.0
 40
14.0
 40
14.0
 10
174.257171417753
 20
83.73078492508509
 30
0.0
 10
174.257171417753
 20
83.73078492508509
 30
0.0
 10
171.2571607373506
 20
83.73078492508509
 30
0.0
 10
171.2571607373506
 20
83.73078492508509
 30
0.0
 10
171.2571607373506
 20
83.73078492508509
 30
0.0
 10
171.2571607373506
 20
85.23077949936288
 30
0.0
 10
171.2571607373506
 20
85.23077949936288
 30
0.0
 10
171.2571607373506
 20
85.50692543435244
 30
0.0
 10
171.0333156581965
 20
85.73079204535332
 30
0.0
 10
170.757169723207
 20
85.73079204535332
 30
0.0
 10
170.757169723207
 20
85.73079204535332
 30
0.0
 10
164.757169894249
 20
85.73079204535332
 30
0.0
 10
164.757169894249
 20
85.73079204535332
 30
0.0
 10
164.4810239592595
 20
85.73079204535332
 30
0.0
 10
164.2571573482586
 20
85.50692543435244
 30
0.0
 10
164.2571573482586
 20
85.23077949936288
 30
0.0
 10
164.2571573482586
 20
85.23077949936288
 30
0.0
 10
164.2571573482586
 20
83.73078492508509
 30
0.0
 10
164.2571573482586
 20
83.73078492508509
 30
0.0
 10
164.2571573482586
 20
83.73078492508509
 30
0.0
 10
161.2571681997031
 20
83.73078492508509
 30
0.0
 10
161.2571681997031
 20
83.73078492508509
 30
0.0
 10
160.9810222647135
 20
83.73078492508509
 30
0.0
 10
160.7571556537126
 20
83.50691831408422
 30
0.0
 10
160.7571556537126
 20
83.23079391094145
 30
0.0
 10
160.7571556537126
 20
83.23079391094145
 30
0.0
 10
160.7571556537126
 20
70.23079069289152
 30
0.0
 10
160.7571556537126
 20
70.23079069289152
 30
0.0
 10
160.7571556537126
 20
69.95464475790196
 30
0.0
 10
160.9810222647135
 20
69.73077814690107
 30
0.0
 10
161.2571681997031
 20
69.73077814690107
 30
0.0
 10
161.2571681997031
 20
69.73077814690107
 30
0.0
 10
174.257171417753
 20
69.73077814690107
 30
0.0
 10
174.257171417753
 20
69.73077814690107
 30
0.0
 10
174.5333173527425
 20
69.73077814690107
 30
0.0
 10
174.7571624318966
 20
69.95464475790196
 30
0.0
 10
174.7571624318966
 20
70.23079069289152
 30
0.0
 10
174.7571624318966
 20
70.23079069289152
 30
0.0
 10
174.7571624318966
 20
83.23079391094145
 30
0.0
 10
174.7571624318966
 20
83.23079391094145
 30
0.0
 10
174.7571624318966
 20
83.50691831408422
 30
0.0
 10
174.5333173527425
 20
83.73078492508509
 30
0.0
 10
174.257171417753
 20
83.73078492508509
 30
0.0
  0
SPLINE
  5
A1
330
70
100
AcDbEntity
  8
0
 62
     7
370
    25
100
AcDbSpline
210
0.0
220
0.0
230
1.0
 70
     9
 71
     3
 72
    47
 73
    43
 74
     0
 42
0.0000000001
 43
0.0000000001
 40
0.0
 40
0.0
 40
0.0
 40
0.0
 40
1.0
 40
1.0
 40
1.0
 40
2.0
 40
2.0
 40
2.0
 40
3.0
 40
3.0
 40
3.0
 40
4.0
 40
4.0
 40
4.0
 40
5.0
 40
5.0
 40
5.0
 40
6.0
 40
6.0
 40
6.0
 40
7.0
 40
7.0
 40
7.0
 40
8.0
 40
8.0
 40
8.0
 40
9.0
 40
9.0
 40
9.0
 40
10.0
 40
10.0
 40
10.0
 40
11.0
 40
11.0
 40
11.0
 40
12.0
 40
12.0
 40
12.0
 40
13.0
 40
13.0
 40
13.0
 40
14.0
 40
14.0
 40
14.0
 40
14.0
 10
136.1571498954312
 20
83.73078492508509
 30
0.0
 10
136.1571498954312
 20
83.73078492508509
 30
0.0
 10
133.1571607468756
 20
83.73078492508509
 30
0.0
 10
133.1571607468756
 20
83.73078492508509
 30
0.0
 10
133.1571607468756
 20
83.73078492508509
 30
0.0
 10
133.1571607468756
 20
85.23077949936288
 30
0.0
 10
133.1571607468756
 20
85.23077949936288
 30
0.0
 10
133.1571607468756
 20
85.50692543435244
 30
0.0
 10
132.9332941358747
 20
85.73079204535332
 30
0.0
 10
132.6571482008855
 20
85.73079204535332
 30
0.0
 10
132.6571482008855
 20
85.73079204535332
 30
0.0
 10
126.6571483719273
 20
85.73079204535332
 30
0.0
 10
126.6571483719273
 20
85.73079204535332
 30
0.0
 10
126.3810024369377
 20
85.73079204535332
 30
0.0
 10
126.1571573577836
 20
85.50692543435244
 30
0.0
 10
126.1571573577836
 20
85.23077949936288
 30
0.0
 10
126.1571573577836
 20
85.23077949936288
 30
0.0
 10
126.1571573577836
 20
83.73078492508509
 30
0.0
 10
126.1571573577836
 20
83.73078492508509
 30
0.0
 10
126.1571573577836
 20
83.73078492508509
 30
0.0
 10
123.1571466773813
 20
83.73078492508509
 30
0.0
 10
123.1571466773813
 20
83.73078492508509
 30
0.0
 10
122.881000742392
 20
83.73078492508509
 30
0.0
 10
122.6571556632379
 20
83.50691831408422
 30
0.0
 10
122.6571556632379
 20
83.23079391094145
 30
0.0
 10
122.6571556632379
 20
83.23079391094145
 30
0.0
 10
122.6571556632379
 20
70.23079069289152
 30
0.0
 10
122.6571556632379
 20
70.23079069289152
 30
0.0
 10
122.6571556632379
 20
69.95464475790196
 30
0.0
 10
122.881000742392
 20
69.73077814690107
 30
0.0
 10
123.1571466773813
 20
69.73077814690107
 30
0.0
 10
123.1571466773813
 20
69.73077814690107
 30
0.0
 10
136.1571498954312
 20
69.73077814690107
 30
0.0
 10
136.1571498954312
 20
69.73077814690107
 30
0.0
 10
136.4332958304208
 20
69.73077814690107
 30
0.0
 10
136.657162441422
 20
69.95464475790196
 30
0.0
 10
136.657162441422
 20
70.23079069289152
 30
0.0
 10
136.657162441422
 20
70.23079069289152
 30
0.0
 10
136.657162441422
 20
83.23079391094145
 30
0.0
 10
136.657162441422
 20
83.23079391094145
 30
0.0
 10
136.657162441422
 20
83.50691831408422
 30
0.0
 10
136.4332958304208
 20
83.73078492508509
 30
0.0
 10
136.1571498954312
 20
83.73078492508509
 30
0.0
  0
SPLINE
  5
A2
330
70
100
AcDbEntity
  8
0
 62
     7
370
    25
100
AcDbSpline
210
0.0
220
0.0
230
1.0
 70
     9
 71
     3
 72
    29
 73
    25
 74
     0
 42
0.0000000001
 43
0.0000000001
 40
0.0
 40
0.0
 40
0.0
 40
0.0
 40
1.0
 40
1.0
 40
1.0
 40
2.0
 40
2.0
 40
2.0
 40
3.0
 40
3.0
 40
3.0
 40
4.0
 40
4.0
 40
4.0
 40
5.0
 40
5.0
 40
5.0
 40
6.0
 40
6.0
 40
6.0
 40
7.0
 40
7.0
 40
7.0
 40
8.0
 40
8.0
 40
8.0
 40
8.0
 10
182.6951654522187
 20
70.73078245575551
 30
0.0
 10
182.6951654522187
 20
70.73078245575551
 30
0.0
 10
176.6951576574309
 20
70.73078245575551
 30
0.0
 10
176.6951576574309
 20
70.73078245575551
 30
0.0
 10
176.4190117147602
 20
70.73078245575551
 30
0.0
 10
176.1951576436482
 20
70.95463652686757
 30
0.0
 10
176.1951576436482
 20
71.23078246953825
 30
0.0
 10
176.1951576436482
 20
71.23078246953825
 30
0.0
 10
176.1951576436482
 20
85.230786670152
 30
0.0
 10
176.1951576436482
 20
85.230786670152
 30
0.0
 10
176.1951576436482
 20
85.50692879812597
 30
0.0
 10
176.4190117147602
 20
85.73078668393476
 30
0.0
 10
176.6951576574309
 20
85.73078668393476
 30
0.0
 10
176.6951576574309
 20
85.73078668393476
 30
0.0
 10
182.6951654522187
 20
85.73078668393476
 30
0.0
 10
182.6951654522187
 20
85.73078668393476
 30
0.0
 10
182.9713037654946
 20
85.73078668393476
 30
0.0
 10
183.1951654660014
 20
85.50692879812597
 30
0.0
 10
183.1951654660014
 20
85.230786670152
 30
0.0
 10
183.1951654660014
 20
85.230786670152
 30
0.0
 10
183.1951654660014
 20
71.23078246953825
 30
0.0
 10
183.1951654660014
 20
71.23078246953825
 30
0.0
 10
183.1951654660014
 20
70.95463652686757
 30
0.0
 10
182.9713037654946
 20
70.73078245575551
 30
0.0
 10
182.6951654522187
 20
70.73078245575551
 30
0.0
  0
SPLINE
  5
A3
330
70
100
AcDbEntity
  8
0
 62
     7
370
    25
100
AcDbSpline
210
0.0
220
0.0
230
1.0
 70
     9
 71
     3
 72
    65
 73
    61
 74
     0
 42
0.0000000001
 43
0.0000000001
 40
0.0
 40
0.0
 40
0.0
 40
0.0
 40
1.0
 40
1.0
 40
1.0
 40
2.0
 40
2.0
 40
2.0
 40
3.0
 40
3.0
 40
3.0
 40
4.0
 40
4.0
 40
4.0
 40
5.0
 40
5.0
 40
5.0
 40
6.0
 40
6.0
 40
6.0
 40
7.0
 40
7.0
 40
7.0
 40
8.0
 40
8.0
 40
8.0
 40
9.0
 40
9.0
 40
9.0
 40
10.0
 40
10.0
 40
10.0
 40
11.0
 40
11.0
 40
11.0
 40
12.0
 40
12.0
 40
12.0
 40
13.0
 40
13.0
 40
13.0
 40
14.0
 40
14.0
 40
14.0
 40
15.0
 40
15.0
 40
15.0
 40
16.0
 40
16.0
 40
16.0
 40
17.0
 40
17.0
 40
17.0
 40
18.0
 40
18.0
 40
18.0
 40
19.0
 40
19.0
 40
19.0
 40
20.0
 40
20.0
 40
20.0
 40
20.0
 10
158.8191602521789
 20
85.73079204535332
 30
0.0
 10
158.8191602521789
 20
85.73079204535332
 30
0.0
 10
152.819160423221
 20
85.73079204535332
 30
0.0
 10
152.819160423221
 20
85.73079204535332
 30
0.0
 10
152.5430144882314
 20
85.73079204535332
 30
0.0
 10
152.3191478772305
 20
85.50692543435244
 30
0.0
 10
152.3191478772305
 20
85.23077949936288
 30
0.0
 10
152.3191478772305
 20
85.23077949936288
 30
0.0
 10
152.3191478772305
 20
83.73078492508509
 30
0.0
 10
152.3191478772305
 20
83.73078492508509
 30
0.0
 10
152.3191478772305
 20
83.73078492508509
 30
0.0
 10
145.0951486860572
 20
83.73078492508509
 30
0.0
 10
145.0951486860572
 20
83.73078492508509
 30
0.0
 10
145.0951486860572
 20
83.73078492508509
 30
0.0
 10
145.0951486860572
 20
85.23077949936288
 30
0.0
 10
145.0951486860572
 20
85.23077949936288
 30
0.0
 10
145.0951486860572
 20
85.50692543435244
 30
0.0
 10
144.8713036069031
 20
85.73079204535332
 30
0.0
 10
144.5951576719133
 20
85.73079204535332
 30
0.0
 10
144.5951576719133
 20
85.73079204535332
 30
0.0
 10
138.5951578429554
 20
85.73079204535332
 30
0.0
 10
138.5951578429554
 20
85.73079204535332
 30
0.0
 10
138.3190119079658
 20
85.73079204535332
 30
0.0
 10
138.0951668288117
 20
85.50692543435244
 30
0.0
 10
138.0951668288117
 20
85.23077949936288
 30
0.0
 10
138.0951668288117
 20
85.23077949936288
 30
0.0
 10
138.0951668288117
 20
71.23077272117885
 30
0.0
 10
138.0951668288117
 20
71.23077272117885
 30
0.0
 10
138.0951668288117
 20
70.95462678618929
 30
0.0
 10
138.3190119079658
 20
70.73078170703519
 30
0.0
 10
138.5951578429554
 20
70.73078170703519
 30
0.0
 10
138.5951578429554
 20
70.73078170703519
 30
0.0
 10
141.7071556584754
 20
70.73078170703519
 30
0.0
 10
141.7071556584754
 20
70.73078170703519
 30
0.0
 10
141.7071556584754
 20
70.73078170703519
 30
0.0
 10
141.7071556584754
 20
70.23079069289152
 30
0.0
 10
141.7071556584754
 20
70.23079069289152
 30
0.0
 10
141.7071556584754
 20
69.95464475790196
 30
0.0
 10
141.931022269476
 20
69.73077814690107
 30
0.0
 10
142.2071682044655
 20
69.73077814690107
 30
0.0
 10
142.2071682044655
 20
69.73077814690107
 30
0.0
 10
155.2071498906687
 20
69.73077814690107
 30
0.0
 10
155.2071498906687
 20
69.73077814690107
 30
0.0
 10
155.4832958256582
 20
69.73077814690107
 30
0.0
 10
155.7071624366591
 20
69.95464475790196
 30
0.0
 10
155.7071624366591
 20
70.23079069289152
 30
0.0
 10
155.7071624366591
 20
70.23079069289152
 30
0.0
 10
155.7071624366591
 20
70.73078170703519
 30
0.0
 10
155.7071624366591
 20
70.73078170703519
 30
0.0
 10
155.7071624366591
 20
70.73078170703519
 30
0.0
 10
158.8191602521789
 20
70.73078170703519
 30
0.0
 10
158.8191602521789
 20
70.73078170703519
 30
0.0
 10
159.0953061871684
 20
70.73078170703519
 30
0.0
 10
159.3191512663225
 20
70.95462678618929
 30
0.0
 10
159.3191512663225
 20
71.23077272117885
 30
0.0
 10
159.3191512663225
 20
71.23077272117885
 30
0.0
 10
159.3191512663225
 20
85.23077949936288
 30
0.0
 10
159.3191512663225
 20
85.23077949936288
 30
0.0
 10
159.3191512663225
 20
85.50692543435244
 30
0.0
 10
159.0953061871684
 20
85.73079204535332
 30
0.0
 10
158.8191602521789
 20
85.73079204535332
 30
0.0
  0
ENDSEC
  0
SECTION
  2
OBJECTS
  0
DICTIONARY
  5
C
330
0
100
AcDbDictionary
281
     1
  3
ACAD_COLOR
350
63
  3
ACAD_DETAILVIEWSTYLE
350
6A
  3
ACAD_GROUP
350
D
  3
ACAD_LAYOUT
350
62
  3
ACAD_MATERIAL
350
10
  3
ACAD_MLEADERSTYLE
350
66
  3
ACAD_MLINESTYLE
350
5F
  3
ACAD_PLOTSETTINGS
350
61
  3
ACAD_PLOTSTYLENAME
350
E
  3
ACAD_SCALELIST
350
42
  3
ACAD_SECTIONVIEWSTYLE
350
68
  3
ACAD_TABLESTYLE
350
64
  3
ACAD_VISUALSTYLE
350
29
  3
ACDB_RECOMPOSE_DATA
350
AC
  3
AcDbVariableDictionary
350
A4
  0
DICTIONARY
  5
63
102
{ACAD_REACTORS
330
C
102
}
330
C
100
AcDbDictionary
281
     1
  0
DICTIONARY
  5
6A
102
{ACAD_REACTORS
330
C
102
}
330
C
100
AcDbDictionary
281
     1
  3
Imperial24
350
6B
  0
DICTIONARY
  5
D
102
{ACAD_REACTORS
330
C
102
}
330
C
100
AcDbDictionary
281
     1
  0
DICTIONARY
  5
62
102
{ACAD_REACTORS
330
C
102
}
330
C
100
AcDbDictionary
281
     1
  3
Layout1
350
6F
  3
Layout2
350
77
  3
Model
350
73
  0
DICTIONARY
  5
10
102
{ACAD_REACTORS
330
C
102
}
330
C
100
AcDbDictionary
281
     1
  3
ByBlock
350
19
  3
ByLayer
350
11
  3
Global
350
21
  0
DICTIONARY
  5
66
102
{ACAD_REACTORS
330
C
102
}
330
C
100
AcDbDictionary
281
     1
  3
Standard
350
67
  0
DICTIONARY
  5
5F
102
{ACAD_REACTORS
330
C
102
}
330
C
100
AcDbDictionary
281
     1
  3
Standard
350
60
  0
DICTIONARY
  5
61
102
{ACAD_REACTORS
330
C
102
}
330
C
100
AcDbDictionary
281
     1
  0
ACDBDICTIONARYWDFLT
  5
E
102
{ACAD_REACTORS
330
C
102
}
330
C
100
AcDbDictionary
281
     1
  3
Normal
350
F
100
AcDbDictionaryWithDefault
340
F
  0
DICTIONARY
  5
42
102
{ACAD_REACTORS
330
C
102
}
330
C
100
AcDbDictionary
281
     1
  3
A0
350
43
  3
A1
350
44
  3
A2
350
45
  3
A3
350
46
  3
A4
350
47
  3
A5
350
48
  3
A6
350
49
  3
A7
350
4A
  3
A8
350
4B
  3
A9
350
4C
  3
B0
350
4D
  3
B1
350
4E
  3
B2
350
4F
  3
B3
350
50
  3
B4
350
51
  3
B5
350
52
  3
B6
350
53
  0
DICTIONARY
  5
68
102
{ACAD_REACTORS
330
C
102
}
330
C
100
AcDbDictionary
281
     1
  3
Imperial24
350
69
  0
DICTIONARY
  5
64
102
{ACAD_REACTORS
330
C
102
}
330
C
100
AcDbDictionary
281
     1
  3
Standard
350
65
  0
DICTIONARY
  5
29
102
{ACAD_REACTORS
330
C
102
}
330
C
100
AcDbDictionary
281
     1
  3
2dWireframe
350
2F
  3
Basic
350
2E
  3
Brighten
350
35
  3
ColorChange
350
39
  3
Conceptual
350
32
  3
Dim
350
34
  3
EdgeColorOff
350
41
  3
Facepattern
350
38
  3
Flat
350
2A
  3
FlatWithEdges
350
2B
  3
Gouraud
350
2C
  3
GouraudWithEdges
350
2D
  3
Hidden
350
31
  3
JitterOff
350
3F
  3
Linepattern
350
37
  3
OverhangOff
350
40
  3
Realistic
350
33
  3
Shaded
350
3E
  3
Shaded with edges
350
3D
  3
Shades of Gray
350
3A
  3
Sketchy
350
3B
  3
Thicken
350
36
  3
Wireframe
350
30
  3
X-Ray
350
3C
  0
XRECORD
  5
AC
102
{ACAD_REACTORS
330
C
102
}
330
C
100
AcDbXrecord
280
     1
 90
        1
330
65
  0
DICTIONARY
  5
A4
102
{ACAD_REACTORS
330
C
102
}
330
C
100
AcDbDictionary
281
     1
  3
CANNOSCALE
350
A9
  3
CMLEADERSTYLE
350
A6
  3
CTABLESTYLE
350
A5
  3
CVIEWDETAILSTYLE
350
A7
  3
CVIEWSECTIONSTYLE
350
A8
  0
ACDBDETAILVIEWSTYLE
  5
6B
102
{ACAD_REACTORS
330
6A
102
}
330
6A
100
AcDbModelDocViewStyle
 70
     0
  3
Imperial24
290
     1
300
Imperial24
 90
        0
100
AcDbDetailViewStyle
 70
     0
 71
     0
 90
        3
 71
     1
340
55
 62
   256
 40
0.24
340
0
 62
   256
 40
0.24
300

 40
0.36
280
     3
 71
     2
340
5D
 90
       25
 62
   256
 71
     3
340
55
 62
   256
 40
0.24
 90
        1
 40
0.75
 90
        1
300
%<\AcVar ViewType \f "%tc1">% %<\AcVar ViewDetailId>%\PSCALE %<\AcVar ViewScale \f "%sn">%
 71
     4
340
5D
 90
       25
 62
   256
340
5D
 90
       25
 62
   256
280
     0
  0
LAYOUT
  5
6F
102
{ACAD_REACTORS
330
62
102
}
330
62
100
AcDbPlotSettings
  1

  2

  4

  6

 40
0.0
 41
0.0
 42
0.0
 43
0.0
 44
0.0
 45
0.0
 46
0.0
 47
0.0
 48
0.0
 49
0.0
140
0.0
141
0.0
142
1.0
143
1.0
 70
   688
 72
     0
 73
     0
 74
     5
  7

 75
    16
147
1.0
 76
     0
 77
     2
 78
   300
148
0.0
149
0.0
100
AcDbLayout
  1
Layout1
 70
     1
 71
     1
 10
0.0
 20
0.0
 11
12.0
 21
9.0
 12
0.0
 22
0.0
 32
0.0
 14
0.0
 24
0.0
 34
0.0
 15
0.0
 25
0.0
 35
0.0
146
0.0
 13
0.0
 23
0.0
 33
0.0
 16
1.0
 26
0.0
 36
0.0
 17
0.0
 27
1.0
 37
0.0
 76
     0
330
6C
  0
LAYOUT
  5
77
102
{ACAD_REACTORS
330
62
102
}
330
62
100
AcDbPlotSettings
  1

  2

  4

  6

 40
0.0
 41
0.0
 42
0.0
 43
0.0
 44
0.0
 45
0.0
 46
0.0
 47
0.0
 48
0.0
 49
0.0
140
0.0
141
0.0
142
1.0
143
1.0
 70
   688
 72
     0
 73
     0
 74
     5
  7

 75
    16
147
1.0
 76
     0
 77
     2
 78
   300
148
0.0
149
0.0
100
AcDbLayout
  1
Layout2
 70
     1
 71
     2
 10
0.0
 20
0.0
 11
12.0
 21
9.0
 12
0.0
 22
0.0
 32
0.0
 14
0.0
 24
0.0
 34
0.0
 15
0.0
 25
0.0
 35
0.0
146
0.0
 13
0.0
 23
0.0
 33
0.0
 16
1.0
 26
0.0
 36
0.0
 17
0.0
 27
1.0
 37
0.0
 76
     0
330
74
  0
LAYOUT
  5
73
102
{ACAD_REACTORS
330
62
102
}
330
62
100
AcDbPlotSettings
  1

  2

  4

  6

 40
0.0
 41
0.0
 42
0.0
 43
0.0
 44
0.0
 45
0.0
 46
0.0
 47
0.0
 48
0.0
 49
0.0
140
0.0
141
0.0
142
1.0
143
1.0
 70
  1712
 72
     0
 73
     0
 74
     0
  7

 75
     0
147
1.0
 76
     0
 77
     2
 78
   300
148
0.0
149
0.0
100
AcDbLayout
  1
Model
 70
     1
 71
     0
 10
0.0
 20
0.0
 11
12.0
 21
9.0
 12
0.0
 22
0.0
 32
0.0
 14
0.0
 24
0.0
 34
0.0
 15
0.0
 25
0.0
 35
0.0
146
0.0
 13
0.0
 23
0.0
 33
0.0
 16
1.0
 26
0.0
 36
0.0
 17
0.0
 27
1.0
 37
0.0
 76
     0
330
70
  0
MATERIAL
  5
19
102
{ACAD_XDICTIONARY
360
1A
102
}
102
{ACAD_REACTORS
330
10
102
}
330
10
100
AcDbMaterial
  1
ByBlock
 72
     0
 43
0.0208333333333333
 43
0.0
 43
0.0
 43
0.0
 43
0.0
 43
0.0208333333333333
 43
0.0
 43
0.0
 43
0.0
 43
0.0
 43
1.0
 43
0.0
 43
0.0
 43
0.0
 43
0.0
 43
1.0
 77
     0
 47
0.0208333333333333
 47
0.0
 47
0.0
 47
0.0
 47
0.0
 47
0.0208333333333333
 47
0.0
 47
0.0
 47
0.0
 47
0.0
 47
1.0
 47
0.0
 47
0.0
 47
0.0
 47
0.0
 47
1.0
171
     0
 49
0.0208333333333333
 49
0.0
 49
0.0
 49
0.0
 49
0.0
 49
0.0208333333333333
 49
0.0
 49
0.0
 49
0.0
 49
0.0
 49
1.0
 49
0.0
 49
0.0
 49
0.0
 49
0.0
 49
1.0
175
     0
142
0.0208333333333333
142
0.0
142
0.0
142
0.0
142
0.0
142
0.0208333333333333
142
0.0
142
0.0
142
0.0
142
0.0
142
1.0
142
0.0
142
0.0
142
0.0
142
0.0
142
1.0
179
     0
144
0.0208333333333333
144
0.0
144
0.0
144
0.0
144
0.0
144
0.0208333333333333
144
0.0
144
0.0
144
0.0
144
0.0
144
1.0
144
0.0
144
0.0
144
0.0
144
0.0
144
1.0
147
0.0208333333333333
147
0.0
147
0.0
147
0.0
147
0.0
147
0.0208333333333333
147
0.0
147
0.0
147
0.0
147
0.0
147
1.0
147
0.0
147
0.0
147
0.0
147
0.0
147
1.0
  0
MATERIAL
  5
11
102
{ACAD_XDICTIONARY
360
12
102
}
102
{ACAD_REACTORS
330
10
102
}
330
10
100
AcDbMaterial
  1
ByLayer
 72
     0
 43
0.0208333333333333
 43
0.0
 43
0.0
 43
0.0
 43
0.0
 43
0.0208333333333333
 43
0.0
 43
0.0
 43
0.0
 43
0.0
 43
1.0
 43
0.0
 43
0.0
 43
0.0
 43
0.0
 43
1.0
 77
     0
 47
0.0208333333333333
 47
0.0
 47
0.0
 47
0.0
 47
0.0
 47
0.0208333333333333
 47
0.0
 47
0.0
 47
0.0
 47
0.0
 47
1.0
 47
0.0
 47
0.0
 47
0.0
 47
0.0
 47
1.0
171
     0
 49
0.0208333333333333
 49
0.0
 49
0.0
 49
0.0
 49
0.0
 49
0.0208333333333333
 49
0.0
 49
0.0
 49
0.0
 49
0.0
 49
1.0
 49
0.0
 49
0.0
 49
0.0
 49
0.0
 49
1.0
175
     0
142
0.0208333333333333
142
0.0
142
0.0
142
0.0
142
0.0
142
0.0208333333333333
142
0.0
142
0.0
142
0.0
142
0.0
142
1.0
142
0.0
142
0.0
142
0.0
142
0.0
142
1.0
179
     0
144
0.0208333333333333
144
0.0
144
0.0
144
0.0
144
0.0
144
0.0208333333333333
144
0.0
144
0.0
144
0.0
144
0.0
144
1.0
144
0.0
144
0.0
144
0.0
144
0.0
144
1.0
147
0.0208333333333333
147
0.0
147
0.0
147
0.0
147
0.0
147
0.0208333333333333
147
0.0
147
0.0
147
0.0
147
0.0
147
1.0
147
0.0
147
0.0
147
0.0
147
0.0
147
1.0
  0
MATERIAL
  5
21
102
{ACAD_XDICTIONARY
360
22
102
}
102
{ACAD_REACTORS
330
10
102
}
330
10
100
AcDbMaterial
  1
Global
 72
     0
 43
0.0208333333333333
 43
0.0
 43
0.0
 43
0.0
 43
0.0
 43
0.0208333333333333
 43
0.0
 43
0.0
 43
0.0
 43
0.0
 43
1.0
 43
0.0
 43
0.0
 43
0.0
 43
0.0
 43
1.0
 77
     0
 47
0.0208333333333333
 47
0.0
 47
0.0
 47
0.0
 47
0.0
 47
0.0208333333333333
 47
0.0
 47
0.0
 47
0.0
 47
0.0
 47
1.0
 47
0.0
 47
0.0
 47
0.0
 47
0.0
 47
1.0
171
     0
 49
0.0208333333333333
 49
0.0
 49
0.0
 49
0.0
 49
0.0
 49
0.0208333333333333
 49
0.0
 49
0.0
 49
0.0
 49
0.0
 49
1.0
 49
0.0
 49
0.0
 49
0.0
 49
0.0
 49
1.0
175
     0
142
0.0208333333333333
142
0.0
142
0.0
142
0.0
142
0.0
142
0.0208333333333333
142
0.0
142
0.0
142
0.0
142
0.0
142
1.0
142
0.0
142
0.0
142
0.0
142
0.0
142
1.0
179
     0
144
0.0208333333333333
144
0.0
144
0.0
144
0.0
144
0.0
144
0.0208333333333333
144
0.0
144
0.0
144
0.0
144
0.0
144
1.0
144
0.0
144
0.0
144
0.0
144
0.0
144
1.0
147
0.0208333333333333
147
0.0
147
0.0
147
0.0
147
0.0
147
0.0208333333333333
147
0.0
147
0.0
147
0.0
147
0.0
147
1.0
147
0.0
147
0.0
147
0.0
147
0.0
147
1.0
  0
MLEADERSTYLE
  5
67
102
{ACAD_REACTORS
330
66
102
}
330
66
100
AcDbMLeaderStyle
179
     2
170
     2
171
     1
172
     0
 90
        2
 40
0.0
 41
0.0
173
     1
 91
-1056964608
340
5B
 92
       -2
290
     1
 42
0.09
291
     1
 43
0.36
  3
Standard
 44
0.18
300

342
55
174
     1
178
     6
175
     1
176
     0
 93
-1056964608
 45
0.18
292
     0
297
     0
 46
0.18
 94
-1056964608
 47
1.0
 49
1.0
140
1.0
293
     1
141
0.0
294
     1
177
     0
142
1.0
295
     1
296
     0
143
0.125
271
     0
272
     9
273
     9
298
     1
  0
MLINESTYLE
  5
60
102
{ACAD_REACTORS
330
5F
102
}
330
5F
100
AcDbMlineStyle
  2
STANDARD
 70
     0
  3

 62
   256
 51
90.0
 52
90.0
 71
     2
 49
0.5
 62
   256
  6
BYLAYER
 49
-0.5
 62
   256
  6
BYLAYER
  0
ACDBPLACEHOLDER
  5
F
102
{ACAD_REACTORS
330
E
102
}
330
E
  0
SCALE
  5
43
102
{ACAD_REACTORS
330
42
102
}
330
42
100
AcDbScale
 70
     0
300
1:1
140
1.0
141
1.0
290
     1
  0
SCALE
  5
44
102
{ACAD_REACTORS
330
42
102
}
330
42
100
AcDbScale
 70
     0
300
1/128" = 1'-0"
140
0.0078125
141
12.0
290
     0
  0
SCALE
  5
45
102
{ACAD_REACTORS
330
42
102
}
330
42
100
AcDbScale
 70
     0
300
1/64" = 1'-0"
140
0.015625
141
12.0
290
     0
  0
SCALE
  5
46
102
{ACAD_REACTORS
330
42
102
}
330
42
100
AcDbScale
 70
     0
300
1/32" = 1'-0"
140
0.03125
141
12.0
290
     0
  0
SCALE
  5
47
102
{ACAD_REACTORS
330
42
102
}
330
42
100
AcDbScale
 70
     0
300
1/16" = 1'-0"
140
0.0625
141
12.0
290
     0
  0
SCALE
  5
48
102
{ACAD_REACTORS
330
42
102
}
330
42
100
AcDbScale
 70
     0
300
3/32" = 1'-0"
140
0.09375
141
12.0
290
     0
  0
SCALE
  5
49
102
{ACAD_REACTORS
330
42
102
}
330
42
100
AcDbScale
 70
     0
300
1/8" = 1'-0"
140
0.125
141
12.0
290
     0
  0
SCALE
  5
4A
102
{ACAD_REACTORS
330
42
102
}
330
42
100
AcDbScale
 70
     0
300
3/16" = 1'-0"
140
0.1875
141
12.0
290
     0
  0
SCALE
  5
4B
102
{ACAD_REACTORS
330
42
102
}
330
42
100
AcDbScale
 70
     0
300
1/4" = 1'-0"
140
0.25
141
12.0
290
     0
  0
SCALE
  5
4C
102
{ACAD_REACTORS
330
42
102
}
330
42
100
AcDbScale
 70
     0
300
3/8" = 1'-0"
140
0.375
141
12.0
290
     0
  0
SCALE
  5
4D
102
{ACAD_REACTORS
330
42
102
}
330
42
100
AcDbScale
 70
     0
300
1/2" = 1'-0"
140
0.5
141
12.0
290
     0
  0
SCALE
  5
4E
102
{ACAD_REACTORS
330
42
102
}
330
42
100
AcDbScale
 70
     0
300
3/4" = 1'-0"
140
0.75
141
12.0
290
     0
  0
SCALE
  5
4F
102
{ACAD_REACTORS
330
42
102
}
330
42
100
AcDbScale
 70
     0
300
1" = 1'-0"
140
1.0
141
12.0
290
     0
  0
SCALE
  5
50
102
{ACAD_REACTORS
330
42
102
}
330
42
100
AcDbScale
 70
     0
300
1-1/2" = 1'-0"
140
1.5
141
12.0
290
     0
  0
SCALE
  5
51
102
{ACAD_REACTORS
330
42
102
}
330
42
100
AcDbScale
 70
     0
300
3" = 1'-0"
140
3.0
141
12.0
290
     0
  0
SCALE
  5
52
102
{ACAD_REACTORS
330
42
102
}
330
42
100
AcDbScale
 70
     0
300
6" = 1'-0"
140
6.0
141
12.0
290
     0
  0
SCALE
  5
53
102
{ACAD_REACTORS
330
42
102
}
330
42
100
AcDbScale
 70
     0
300
1'-0" = 1'-0"
140
12.0
141
12.0
290
     0
  0
ACDBSECTIONVIEWSTYLE
  5
69
102
{ACAD_REACTORS
330
68
102
}
330
68
100
AcDbModelDocViewStyle
 70
     0
  3
Imperial24
290
     1
300
Imperial24
 90
        0
100
AcDbSectionViewStyle
 70
     0
 71
     0
 90
       78
 71
     1
340
55
 62
   256
 40
0.24
340
0
340
0
 62
   256
 40
0.24
300
I, O, Q, S, X, Z
 40
0.48
 90
        3
 40
0.18
 90
        1
 71
     2
340
5D
 90
       25
 62
   256
340
5D
 90
       50
 62
   256
 40
0.24
 40
0.0
 40
0.24
 71
     3
340
55
 62
   256
 40
0.24
 90
        1
 40
0.75
 90
        1
300
%<\AcVar ViewType \f "%tc1">% %<\AcVar ViewSectionStartId>%-%<\AcVar ViewSectionEndId>%\PSCALE %<\AcVar ViewScale \f "%sn">%
 71
     4
 62
   256
 62
   257
300
ANSI31
 40
1.0
 90
        0
290
     0
290
     0
 90
        6
 40
0.0
 40
1.570796326794896
 40
0.2617993877991494
 40
1.308996938995747
 40
-0.2617993877991494
 40
1.832595714594046
  0
TABLESTYLE
  5
65
102
{ACAD_XDICTIONARY
360
AA
102
}
102
{ACAD_REACTORS
330
64
102
}
330
64
100
AcDbTableStyle
280
     0
  3
Standard
 70
     0
 71
     0
 40
0.06
 41
0.06
280
     0
281
     0
  7
Standard
140
0.18
170
     2
 62
     0
 63
     7
283
     0
 90
      512
 91
        0
  1

274
    -2
284
     1
 64
     0
275
    -2
285
     1
 65
     0
276
    -2
286
     1
 66
     0
277
    -2
287
     1
 67
     0
278
    -2
288
     1
 68
     0
279
    -2
289
     1
 69
     0
  7
Standard
140
0.25
170
     5
 62
     0
 63
     7
283
     0
 90
      512
 91
        0
  1

274
    -2
284
     1
 64
     0
275
    -2
285
     1
 65
     0
276
    -2
286
     1
 66
     0
277
    -2
287
     1
 67
     0
278
    -2
288
     1
 68
     0
279
    -2
289
     1
 69
     0
  7
Standard
140
0.18
170
     5
 62
     0
 63
     7
283
     0
 90
      512
 91
        0
  1

274
    -2
284
     1
 64
     0
275
    -2
285
     1
 65
     0
276
    -2
286
     1
 66
     0
277
    -2
287
     1
 67
     0
278
    -2
288
     1
 68
     0
279
    -2
289
     1
 69
     0
  0
VISUALSTYLE
  5
2F
102
{ACAD_REACTORS
330
29
102
}
330
29
100
AcDbVisualStyle
  2
2dWireframe
 70
     4
177
     3
291
     0
 70
    58
 90
        0
176
     1
 90
        2
176
     1
 90
        0
176
     1
 90
        0
176
     1
 40
0.6
176
     1
 40
30.0
176
     1
 62
     7
420
 16777215
176
     1
 90
        1
176
     1
 90
        4
176
     1
 62
     7
176
     1
 62
   257
176
     1
 90
        1
176
     1
 90
        1
176
     1
 40
1.0
176
     1
 90
        0
176
     1
 62
   257
176
     1
 40
1.0
176
     1
 90
        1
176
     1
 90
        6
176
     1
 90
        2
176
     1
 62
     7
176
     1
 90
        5
176
     1
 90
        0
176
     1
 90
        0
176
     1
290
     0
176
     1
 90
        1
176
     1
 40
0.0
176
     1
 90
        0
176
     1
290
     1
176
     1
290
     1
176
     1
290
     0
176
     1
290
     0
176
     1
290
     0
176
     1
290
     0
176
     1
290
     0
176
     1
290
     0
176
     1
290
     0
176
     1
 90
       50
176
     1
 40
0.0
176
     1
 40
1.0
176
     1
 90
        0
176
     1
 62
    18
420
        0
176
     1
 90
       50
176
     1
 90
        3
176
     1
 62
     5
420
      255
176
     1
290
     0
176
     1
 90
       50
176
     1
 90
       50
176
     1
 90
       50
176
     1
290
     0
176
     1
 90
       50
176
     1
 62
   256
176
     0
 40
1.0
176
     0
 90
        2
176
     1
  1
strokes_ogs.tif
176
     1
290
     0
176
     1
 40
1.0
176
     1
 40
1.0
176
     1
  0
VISUALSTYLE
  5
2E
102
{ACAD_REACTORS
330
29
102
}
330
29
100
AcDbVisualStyle
  2
Basic
 70
     7
177
     3
291
     1
 70
    58
 90
        1
176
     1
 90
        0
176
     1
 90
        1
176
     1
 90
        0
176
     1
 40
0.6
176
     1
 40
30.0
176
     1
 62
     7
420
 16777215
176
     1
 90
        0
176
     1
 90
        4
176
     1
 62
     7
176
     1
 62
   257
176
     1
 90
        1
176
     1
 90
        1
176
     1
 40
1.0
176
     1
 90
        8
176
     1
 62
     7
176
     1
 40
1.0
176
     1
 90
        1
176
     1
 90
        6
176
     1
 90
        2
176
     1
 62
     7
176
     1
 90
        5
176
     1
 90
        0
176
     1
 90
        0
176
     1
290
     0
176
     1
 90
        1
176
     1
 40
0.0
176
     1
 90
        0
176
     1
290
     0
176
     1
290
     1
176
     1
290
     1
176
     1
290
     0
176
     1
290
     0
176
     1
290
     0
176
     1
290
     0
176
     1
290
     0
176
     1
290
     0
176
     1
 90
       50
176
     1
 40
0.0
176
     1
 40
1.0
176
     1
 90
        0
176
     1
 62
    18
420
        0
176
     1
 90
       50
176
     1
 90
        3
176
     1
 62
     5
420
      255
176
     1
290
     0
176
     1
 90
       50
176
     1
 90
       50
176
     1
 90
       50
176
     1
290
     0
176
     1
 90
       50
176
     1
 62
   256
176
     0
 40
1.0
176
     0
 90
        2
176
     1
  1
strokes_ogs.tif
176
     1
290
     0
176
     1
 40
1.0
176
     1
 40
1.0
176
     1
  0
VISUALSTYLE
  5
35
102
{ACAD_REACTORS
330
29
102
}
330
29
100
AcDbVisualStyle
  2
Brighten
 70
    12
177
     3
291
     1
 70
    58
 90
        2
176
     1
 90
        2
176
     1
 90
        0
176
     1
 90
        0
176
     1
 40
0.6
176
     1
 40
30.0
176
     1
 62
     7
420
 16777215
176
     1
 90
        1
176
     1
 90
        4
176
     1
 62
     7
176
     1
 62
   257
176
     1
 90
        1
176
     1
 90
        1
176
     1
 40
1.0
176
     1
 90
        8
176
     1
 62
     7
176
     1
 40
1.0
176
     1
 90
        1
176
     1
 90
        6
176
     1
 90
        2
176
     1
 62
     7
176
     1
 90
        5
176
     1
 90
        0
176
     1
 90
        0
176
     1
290
     0
176
     1
 90
        1
176
     1
 40
50.0
176
     1
 90
        0
176
     1
290
     0
176
     1
290
     1
176
     1
290
     1
176
     1
290
     0
176
     1
290
     0
176
     1
290
     0
176
     1
290
     0
176
     1
290
     0
176
     1
290
     0
176
     1
 90
       50
176
     1
 40
0.0
176
     1
 40
1.0
176
     1
 90
        0
176
     1
 62
    18
420
        0
176
     1
 90
       50
176
     1
 90
        3
176
     1
 62
     5
420
      255
176
     1
290
     0
176
     1
 90
       50
176
     1
 90
       50
176
     1
 90
       50
176
     1
290
     0
176
     1
 90
       50
176
     1
 62
   256
176
     0
 40
1.0
176
     0
 90
        2
176
     1
  1
strokes_ogs.tif
176
     1
290
     0
176
     1
 40
1.0
176
     1
 40
1.0
176
     1
  0
VISUALSTYLE
  5
39
102
{ACAD_REACTORS
330
29
102
}
330
29
100
AcDbVisualStyle
  2
ColorChange
 70
    16
177
     3
291
     1
 70
    58
 90
        2
176
     1
 90
        2
176
     1
 90
        3
176
     1
 90
        0
176
     1
 40
0.6
176
     1
 40
30.0
176
     1
 62
     8
420
  8421504
176
     1
 90
        1
176
     1
 90
        4
176
     1
 62
     7
176
     1
 62
   257
176
     1
 90
        1
176
     1
 90
        1
176
     1
 40
1.0
176
     1
 90
        8
176
     1
 62
     8
420
  8421504
176
     1
 40
1.0
176
     1
 90
        1
176
     1
 90
        6
176
     1
 90
        2
176
     1
 62
     7
176
     1
 90
        5
176
     1
 90
        0
176
     1
 90
        0
176
     1
290
     0
176
     1
 90
        1
176
     1
 40
0.0
176
     1
 90
        0
176
     1
290
     0
176
     1
290
     1
176
     1
290
     1
176
     1
290
     0
176
     1
290
     0
176
     1
290
     0
176
     1
290
     0
176
     1
290
     0
176
     1
290
     0
176
     1
 90
       50
176
     1
 40
0.0
176
     1
 40
1.0
176
     1
 90
        0
176
     1
 62
    18
420
        0
176
     1
 90
       50
176
     1
 90
        3
176
     1
 62
     5
420
      255
176
     1
290
     0
176
     1
 90
       50
176
     1
 90
       50
176
     1
 90
       50
176
     1
290
     0
176
     1
 90
       50
176
     1
 62
   256
176
     0
 40
1.0
176
     0
 90
        2
176
     1
  1
strokes_ogs.tif
176
     1
290
     0
176
     1
 40
1.0
176
     1
 40
1.0
176
     1
  0
VISUALSTYLE
  5
32
102
{ACAD_REACTORS
330
29
102
}
330
29
100
AcDbVisualStyle
  2
Conceptual
 70
     9
177
     3
291
     0
 70
    58
 90
        3
176
     1
 90
        2
176
     1
 90
        0
176
     1
 90
        0
176
     1
 40
0.6
176
     1
 40
30.0
176
     1
 62
     7
420
 16777215
176
     1
 90
        2
176
     1
 90
        2
176
     1
 62
     7
176
     1
 62
   257
176
     1
 90
        1
176
     1
 90
        1
176
     1
 40
179.0
176
     1
 90
        8
176
     1
 62
     7
176
     1
 40
1.0
176
     1
 90
        1
176
     1
 90
        6
176
     1
 90
        2
176
     1
 62
     7
176
     1
 90
        3
176
     1
 90
        0
176
     1
 90
        0
176
     1
290
     0
176
     1
 90
        1
176
     1
 40
0.0
176
     1
 90
        0
176
     1
290
     0
176
     1
290
     1
176
     1
290
     1
176
     1
290
     0
176
     1
290
     0
176
     1
290
     0
176
     1
290
     0
176
     1
290
     0
176
     1
290
     0
176
     1
 90
       50
176
     1
 40
0.0
176
     1
 40
1.0
176
     1
 90
        0
176
     1
 62
    18
420
        0
176
     1
 90
       50
176
     1
 90
        3
176
     1
 62
     5
420
      255
176
     1
290
     0
176
     1
 90
       50
176
     1
 90
       50
176
     1
 90
       50
176
     1
290
     0
176
     1
 90
       50
176
     1
 62
   256
176
     0
 40
1.0
176
     0
 90
        2
176
     1
  1
strokes_ogs.tif
176
     1
290
     0
176
     1
 40
1.0
176
     1
 40
1.0
176
     1
  0
VISUALSTYLE
  5
34
102
{ACAD_REACTORS
330
29
102
}
330
29
100
AcDbVisualStyle
  2
Dim
 70
    11
177
     3
291
     1
 70
    58
 90
        2
176
     1
 90
        2
176
     1
 90
        0
176
     1
 90
        0
176
     1
 40
0.6
176
     1
 40
30.0
176
     1
 62
     7
420
 16777215
176
     1
 90
        1
176
     1
 90
        4
176
     1
 62
     7
176
     1
 62
   257
176
     1
 90
        1
176
     1
 90
        1
176
     1
 40
1.0
176
     1
 90
        8
176
     1
 62
     7
176
     1
 40
1.0
176
     1
 90
        1
176
     1
 90
        6
176
     1
 90
        2
176
     1
 62
     7
176
     1
 90
        5
176
     1
 90
        0
176
     1
 90
        0
176
     1
290
     0
176
     1
 90
        1
176
     1
 40
-50.0
176
     1
 90
        0
176
     1
290
     0
176
     1
290
     1
176
     1
290
     1
176
     1
290
     0
176
     1
290
     0
176
     1
290
     0
176
     1
290
     0
176
     1
290
     0
176
     1
290
     0
176
     1
 90
       50
176
     1
 40
0.0
176
     1
 40
1.0
176
     1
 90
        0
176
     1
 62
    18
420
        0
176
     1
 90
       50
176
     1
 90
        3
176
     1
 62
     5
420
      255
176
     1
290
     0
176
     1
 90
       50
176
     1
 90
       50
176
     1
 90
       50
176
     1
290
     0
176
     1
 90
       50
176
     1
 62
   256
176
     0
 40
1.0
176
     0
 90
        2
176
     1
  1
strokes_ogs.tif
176
     1
290
     0
176
     1
 40
1.0
176
     1
 40
1.0
176
     1
  0
VISUALSTYLE
  5
41
102
{ACAD_REACTORS
330
29
102
}
330
29
100
AcDbVisualStyle
  2
EdgeColorOff
 70
    22
177
     3
291
     1
 70
    58
 90
        2
176
     0
 90
        2
176
     0
 90
        0
176
     0
 90
        0
176
     0
 40
0.6
176
     0
 40
30.0
176
     0
 62
     7
420
 16777215
176
     0
 90
        1
176
     0
 90
        4
176
     0
 62
     7
176
     0
 62
   257
176
     0
 90
        1
176
     0
 90
        1
176
     0
 40
1.0
176
     0
 90
        8
176
     2
 62
     7
176
     0
 40
1.0
176
     0
 90
        1
176
     0
 90
        6
176
     0
 90
        2
176
     0
 62
     7
176
     0
 90
        5
176
     0
 90
        0
176
     0
 90
        0
176
     0
290
     0
176
     0
 90
        1
176
     0
 40
0.0
176
     0
 90
        0
176
     0
290
     0
176
     0
290
     1
176
     0
290
     1
176
     0
290
     0
176
     0
290
     0
176
     0
290
     0
176
     0
290
     0
176
     0
290
     0
176
     0
290
     0
176
     0
 90
       50
176
     0
 40
0.0
176
     0
 40
1.0
176
     0
 90
        0
176
     0
 62
    18
420
        0
176
     0
 90
       50
176
     0
 90
        3
176
     0
 62
     5
420
      255
176
     0
290
     0
176
     0
 90
       50
176
     0
 90
       50
176
     0
 90
       50
176
     0
290
     0
176
     0
 90
       50
176
     0
 62
   256
176
     0
 40
1.0
176
     0
 90
        2
176
     0
  1
strokes_ogs.tif
176
     0
290
     0
176
     0
 40
1.0
176
     0
 40
1.0
176
     0
  0
VISUALSTYLE
  5
38
102
{ACAD_REACTORS
330
29
102
}
330
29
100
AcDbVisualStyle
  2
Facepattern
 70
    15
177
     3
291
     1
 70
    58
 90
        2
176
     1
 90
        2
176
     1
 90
        0
176
     1
 90
        0
176
     1
 40
0.6
176
     1
 40
30.0
176
     1
 62
     7
420
 16777215
176
     1
 90
        1
176
     1
 90
        4
176
     1
 62
     7
176
     1
 62
   257
176
     1
 90
        1
176
     1
 90
        1
176
     1
 40
1.0
176
     1
 90
        8
176
     1
 62
     7
176
     1
 40
1.0
176
     1
 90
        1
176
     1
 90
        6
176
     1
 90
        2
176
     1
 62
     7
176
     1
 90
        5
176
     1
 90
        0
176
     1
 90
        0
176
     1
290
     0
176
     1
 90
        1
176
     1
 40
0.0
176
     1
 90
        0
176
     1
290
     0
176
     1
290
     1
176
     1
290
     1
176
     1
290
     0
176
     1
290
     0
176
     1
290
     0
176
     1
290
     0
176
     1
290
     0
176
     1
290
     0
176
     1
 90
       50
176
     1
 40
0.0
176
     1
 40
1.0
176
     1
 90
        0
176
     1
 62
    18
420
        0
176
     1
 90
       50
176
     1
 90
        3
176
     1
 62
     5
420
      255
176
     1
290
     0
176
     1
 90
       50
176
     1
 90
       50
176
     1
 90
       50
176
     1
290
     0
176
     1
 90
       50
176
     1
 62
   256
176
     0
 40
1.0
176
     0
 90
        2
176
     1
  1
strokes_ogs.tif
176
     1
290
     0
176
     1
 40
1.0
176
     1
 40
1.0
176
     1
  0
VISUALSTYLE
  5
2A
102
{ACAD_REACTORS
330
29
102
}
330
29
100
AcDbVisualStyle
  2
Flat
 70
     0
177
     3
291
     1
 70
    58
 90
        2
176
     1
 90
        1
176
     1
 90
        1
176
     1
 90
        2
176
     1
 40
0.6
176
     1
 40
30.0
176
     1
 62
     7
420
 16777215
176
     1
 90
        0
176
     1
 90
        0
176
     1
 62
     7
176
     1
 62
   257
176
     1
 90
        1
176
     1
 90
        1
176
     1
 40
1.0
176
     1
 90
        8
176
     1
 62
     7
176
     1
 40
1.0
176
     1
 90
        1
176
     1
 90
        6
176
     1
 90
        2
176
     1
 62
     7
176
     1
 90
        5
176
     1
 90
        0
176
     1
 90
        0
176
     1
290
     0
176
     1
 90
       13
176
     1
 40
0.0
176
     1
 90
        0
176
     1
290
     0
176
     1
290
     1
176
     1
290
     1
176
     1
290
     0
176
     1
290
     0
176
     1
290
     0
176
     1
290
     0
176
     1
290
     0
176
     1
290
     0
176
     1
 90
       50
176
     1
 40
0.0
176
     1
 40
1.0
176
     1
 90
        0
176
     1
 62
    18
420
        0
176
     1
 90
       50
176
     1
 90
        3
176
     1
 62
     5
420
      255
176
     1
290
     0
176
     1
 90
       50
176
     1
 90
       50
176
     1
 90
       50
176
     1
290
     0
176
     1
 90
       50
176
     1
 62
   256
176
     0
 40
1.0
176
     0
 90
        2
176
     1
  1
strokes_ogs.tif
176
     1
290
     0
176
     1
 40
1.0
176
     1
 40
1.0
176
     1
  0
VISUALSTYLE
  5
2B
102
{ACAD_REACTORS
330
29
102
}
330
29
100
AcDbVisualStyle
  2
FlatWithEdges
 70
     1
177
     3
291
     1
 70
    58
 90
        2
176
     1
 90
        1
176
     1
 90
        1
176
     1
 90
        2
176
     1
 40
0.6
176
     1
 40
30.0
176
     1
 62
     7
420
 16777215
176
     1
 90
        1
176
     1
 90
        0
176
     1
 62
     7
176
     1
 62
   257
176
     1
 90
        1
176
     1
 90
        1
176
     1
 40
1.0
176
     1
 90
        0
176
     1
 62
   257
176
     1
 40
1.0
176
     1
 90
        1
176
     1
 90
        6
176
     1
 90
        2
176
     1
 62
     7
176
     1
 90
        5
176
     1
 90
        0
176
     1
 90
        0
176
     1
290
     0
176
     1
 90
       13
176
     1
 40
0.0
176
     1
 90
        0
176
     1
290
     0
176
     1
290
     1
176
     1
290
     1
176
     1
290
     0
176
     1
290
     0
176
     1
290
     0
176
     1
290
     0
176
     1
290
     0
176
     1
290
     0
176
     1
 90
       50
176
     1
 40
0.0
176
     1
 40
1.0
176
     1
 90
        0
176
     1
 62
    18
420
        0
176
     1
 90
       50
176
     1
 90
        3
176
     1
 62
     5
420
      255
176
     1
290
     0
176
     1
 90
       50
176
     1
 90
       50
176
     1
 90
       50
176
     1
290
     0
176
     1
 90
       50
176
     1
 62
   256
176
     0
 40
1.0
176
     0
 90
        2
176
     1
  1
strokes_ogs.tif
176
     1
290
     0
176
     1
 40
1.0
176
     1
 40
1.0
176
     1
  0
VISUALSTYLE
  5
2C
102
{ACAD_REACTORS
330
29
102
}
330
29
100
AcDbVisualStyle
  2
Gouraud
 70
     2
177
     3
291
     1
 70
    58
 90
        2
176
     1
 90
        2
176
     1
 90
        1
176
     1
 90
        2
176
     1
 40
0.6
176
     1
 40
30.0
176
     1
 62
     7
420
 16777215
176
     1
 90
        0
176
     1
 90
        0
176
     1
 62
     7
176
     1
 62
   257
176
     1
 90
        1
176
     1
 90
        1
176
     1
 40
1.0
176
     1
 90
        0
176
     1
 62
     7
176
     1
 40
1.0
176
     1
 90
        1
176
     1
 90
        6
176
     1
 90
        2
176
     1
 62
     7
176
     1
 90
        5
176
     1
 90
        0
176
     1
 90
        0
176
     1
290
     0
176
     1
 90
       13
176
     1
 40
0.0
176
     1
 90
        0
176
     1
290
     0
176
     1
290
     1
176
     1
290
     1
176
     1
290
     0
176
     1
290
     0
176
     1
290
     0
176
     1
290
     0
176
     1
290
     0
176
     1
290
     0
176
     1
 90
       50
176
     1
 40
0.0
176
     1
 40
1.0
176
     1
 90
        0
176
     1
 62
    18
420
        0
176
     1
 90
       50
176
     1
 90
        3
176
     1
 62
     5
420
      255
176
     1
290
     0
176
     1
 90
       50
176
     1
 90
       50
176
     1
 90
       50
176
     1
290
     0
176
     1
 90
       50
176
     1
 62
   256
176
     0
 40
1.0
176
     0
 90
        2
176
     1
  1
strokes_ogs.tif
176
     1
290
     0
176
     1
 40
1.0
176
     1
 40
1.0
176
     1
  0
VISUALSTYLE
  5
2D
102
{ACAD_REACTORS
330
29
102
}
330
29
100
AcDbVisualStyle
  2
GouraudWithEdges
 70
     3
177
     3
291
     1
 70
    58
 90
        2
176
     1
 90
        2
176
     1
 90
        1
176
     1
 90
        2
176
     1
 40
0.6
176
     1
 40
30.0
176
     1
 62
     7
420
 16777215
176
     1
 90
        1
176
     1
 90
        0
176
     1
 62
     7
176
     1
 62
   257
176
     1
 90
        1
176
     1
 90
        1
176
     1
 40
1.0
176
     1
 90
        0
176
     1
 62
   257
176
     1
 40
1.0
176
     1
 90
        1
176
     1
 90
        6
176
     1
 90
        2
176
     1
 62
     7
176
     1
 90
        5
176
     1
 90
        0
176
     1
 90
        0
176
     1
290
     0
176
     1
 90
       13
176
     1
 40
0.0
176
     1
 90
        0
176
     1
290
     0
176
     1
290
     1
176
     1
290
     1
176
     1
290
     0
176
     1
290
     0
176
     1
290
     0
176
     1
290
     0
176
     1
290
     0
176
     1
290
     0
176
     1
 90
       50
176
     1
 40
0.0
176
     1
 40
1.0
176
     1
 90
        0
176
     1
 62
    18
420
        0
176
     1
 90
       50
176
     1
 90
        3
176
     1
 62
     5
420
      255
176
     1
290
     0
176
     1
 90
       50
176
     1
 90
       50
176
     1
 90
       50
176
     1
290
     0
176
     1
 90
       50
176
     1
 62
   256
176
     0
 40
1.0
176
     0
 90
        2
176
     1
  1
strokes_ogs.tif
176
     1
290
     0
176
     1
 40
1.0
176
     1
 40
1.0
176
     1
  0
VISUALSTYLE
  5
31
102
{ACAD_REACTORS
330
29
102
}
330
29
100
AcDbVisualStyle
  2
Hidden
 70
     6
177
     3
291
     0
 70
    58
 90
        1
176
     1
 90
        2
176
     1
 90
        2
176
     1
 90
        0
176
     1
 40
0.6
176
     1
 40
30.0
176
     1
 62
     7
420
 16777215
176
     1
 90
        2
176
     1
 90
        2
176
     1
 62
     7
176
     1
 62
   257
176
     1
 90
        2
176
     1
 90
        1
176
     1
 40
40.0
176
     1
 90
        0
176
     1
 62
   257
176
     1
 40
1.0
176
     1
 90
        1
176
     1
 90
        6
176
     1
 90
        2
176
     1
 62
     7
176
     1
 90
        3
176
     1
 90
        0
176
     1
 90
        0
176
     1
290
     0
176
     1
 90
        1
176
     1
 40
0.0
176
     1
 90
        0
176
     1
290
     0
176
     1
290
     1
176
     1
290
     1
176
     1
290
     0
176
     1
290
     0
176
     1
290
     0
176
     1
290
     0
176
     1
290
     0
176
     1
290
     0
176
     1
 90
       50
176
     1
 40
0.0
176
     1
 40
1.0
176
     1
 90
        0
176
     1
 62
    18
420
        0
176
     1
 90
       50
176
     1
 90
        3
176
     1
 62
     5
420
      255
176
     1
290
     0
176
     1
 90
       50
176
     1
 90
       50
176
     1
 90
       50
176
     1
290
     0
176
     1
 90
       50
176
     1
 62
   256
176
     0
 40
1.0
176
     0
 90
        2
176
     1
  1
strokes_ogs.tif
176
     1
290
     0
176
     1
 40
1.0
176
     1
 40
1.0
176
     1
  0
VISUALSTYLE
  5
3F
102
{ACAD_REACTORS
330
29
102
}
330
29
100
AcDbVisualStyle
  2
JitterOff
 70
    20
177
     3
291
     1
 70
    58
 90
        2
176
     0
 90
        2
176
     0
 90
        0
176
     0
 90
        0
176
     0
 40
0.6
176
     0
 40
30.0
176
     0
 62
     7
420
 16777215
176
     0
 90
        1
176
     0
 90
        4
176
     0
 62
     7
176
     0
 62
   257
176
     0
 90
        1
176
     0
 90
        1
176
     0
 40
1.0
176
     0
 90
       10
176
     2
 62
     7
176
     0
 40
1.0
176
     0
 90
        1
176
     0
 90
        6
176
     0
 90
        2
176
     0
 62
     7
176
     0
 90
        5
176
     0
 90
        0
176
     0
 90
        0
176
     0
290
     0
176
     0
 90
        1
176
     0
 40
0.0
176
     0
 90
        0
176
     0
290
     0
176
     0
290
     1
176
     0
290
     1
176
     0
290
     0
176
     0
290
     0
176
     0
290
     0
176
     0
290
     0
176
     0
290
     0
176
     0
290
     0
176
     0
 90
       50
176
     0
 40
0.0
176
     0
 40
1.0
176
     0
 90
        0
176
     0
 62
    18
420
        0
176
     0
 90
       50
176
     0
 90
        3
176
     0
 62
     5
420
      255
176
     0
290
     0
176
     0
 90
       50
176
     0
 90
       50
176
     0
 90
       50
176
     0
290
     0
176
     0
 90
       50
176
     0
 62
   256
176
     0
 40
1.0
176
     0
 90
        2
176
     0
  1
strokes_ogs.tif
176
     0
290
     0
176
     0
 40
1.0
176
     0
 40
1.0
176
     0
  0
VISUALSTYLE
  5
37
102
{ACAD_REACTORS
330
29
102
}
330
29
100
AcDbVisualStyle
  2
Linepattern
 70
    14
177
     3
291
     1
 70
    58
 90
        2
176
     1
 90
        2
176
     1
 90
        0
176
     1
 90
        0
176
     1
 40
0.6
176
     1
 40
30.0
176
     1
 62
     7
420
 16777215
176
     1
 90
        1
176
     1
 90
        4
176
     1
 62
     7
176
     1
 62
   257
176
     1
 90
        7
176
     1
 90
        7
176
     1
 40
1.0
176
     1
 90
        8
176
     1
 62
     7
176
     1
 40
1.0
176
     1
 90
        1
176
     1
 90
        6
176
     1
 90
        2
176
     1
 62
     7
176
     1
 90
        5
176
     1
 90
        0
176
     1
 90
        0
176
     1
290
     0
176
     1
 90
        1
176
     1
 40
0.0
176
     1
 90
        0
176
     1
290
     0
176
     1
290
     1
176
     1
290
     1
176
     1
290
     0
176
     1
290
     0
176
     1
290
     0
176
     1
290
     0
176
     1
290
     0
176
     1
290
     0
176
     1
 90
       50
176
     1
 40
0.0
176
     1
 40
1.0
176
     1
 90
        0
176
     1
 62
    18
420
        0
176
     1
 90
       50
176
     1
 90
        3
176
     1
 62
     5
420
      255
176
     1
290
     0
176
     1
 90
       50
176
     1
 90
       50
176
     1
 90
       50
176
     1
290
     0
176
     1
 90
       50
176
     1
 62
   256
176
     0
 40
1.0
176
     0
 90
        2
176
     1
  1
strokes_ogs.tif
176
     1
290
     0
176
     1
 40
1.0
176
     1
 40
1.0
176
     1
  0
VISUALSTYLE
  5
40
102
{ACAD_REACTORS
330
29
102
}
330
29
100
AcDbVisualStyle
  2
OverhangOff
 70
    21
177
     3
291
     1
 70
    58
 90
        2
176
     0
 90
        2
176
     0
 90
        0
176
     0
 90
        0
176
     0
 40
0.6
176
     0
 40
30.0
176
     0
 62
     7
420
 16777215
176
     0
 90
        1
176
     0
 90
        4
176
     0
 62
     7
176
     0
 62
   257
176
     0
 90
        1
176
     0
 90
        1
176
     0
 40
1.0
176
     0
 90
        9
176
     2
 62
     7
176
     0
 40
1.0
176
     0
 90
        1
176
     0
 90
        6
176
     0
 90
        2
176
     0
 62
     7
176
     0
 90
        5
176
     0
 90
        0
176
     0
 90
        0
176
     0
290
     0
176
     0
 90
        1
176
     0
 40
0.0
176
     0
 90
        0
176
     0
290
     0
176
     0
290
     1
176
     0
290
     1
176
     0
290
     0
176
     0
290
     0
176
     0
290
     0
176
     0
290
     0
176
     0
290
     0
176
     0
290
     0
176
     0
 90
       50
176
     0
 40
0.0
176
     0
 40
1.0
176
     0
 90
        0
176
     0
 62
    18
420
        0
176
     0
 90
       50
176
     0
 90
        3
176
     0
 62
     5
420
      255
176
     0
290
     0
176
     0
 90
       50
176
     0
 90
       50
176
     0
 90
       50
176
     0
290
     0
176
     0
 90
       50
176
     0
 62
   256
176
     0
 40
1.0
176
     0
 90
        2
176
     0
  1
strokes_ogs.tif
176
     0
290
     0
176
     0
 40
1.0
176
     0
 40
1.0
176
     0
  0
VISUALSTYLE
  5
33
102
{ACAD_REACTORS
330
29
102
}
330
29
100
AcDbVisualStyle
  2
Realistic
 70
     8
177
     3
291
     0
 70
    58
 90
        2
176
     1
 90
        3
176
     1
 90
        0
176
     1
 90
        2
176
     1
 40
0.6
176
     1
 40
30.0
176
     1
 62
     7
420
 16777215
176
     1
 90
        0
176
     1
 90
        0
176
     1
 62
     7
176
     1
 62
   257
176
     1
 90
        1
176
     1
 90
        1
176
     1
 40
1.0
176
     1
 90
        8
176
     1
 62
   257
176
     1
 40
1.0
176
     1
 90
        1
176
     1
 90
        6
176
     1
 90
        2
176
     1
 62
     7
176
     1
 90
        3
176
     1
 90
        0
176
     1
 90
        0
176
     1
290
     0
176
     1
 90
       13
176
     1
 40
0.0
176
     1
 90
        0
176
     1
290
     0
176
     1
290
     1
176
     1
290
     1
176
     1
290
     0
176
     1
290
     0
176
     1
290
     0
176
     1
290
     0
176
     1
290
     0
176
     1
290
     0
176
     1
 90
       50
176
     1
 40
0.0
176
     1
 40
1.0
176
     1
 90
        0
176
     1
 62
    18
420
        0
176
     1
 90
       50
176
     1
 90
        3
176
     1
 62
     5
420
      255
176
     1
290
     0
176
     1
 90
       50
176
     1
 90
       50
176
     1
 90
       50
176
     1
290
     0
176
     1
 90
       50
176
     1
 62
   256
176
     0
 40
1.0
176
     0
 90
        2
176
     1
  1
strokes_ogs.tif
176
     1
290
     0
176
     1
 40
1.0
176
     1
 40
1.0
176
     1
  0
VISUALSTYLE
  5
3E
102
{ACAD_REACTORS
330
29
102
}
330
29
100
AcDbVisualStyle
  2
Shaded
 70
    27
177
     3
291
     0
 70
    58
 90
        2
176
     1
 90
        2
176
     1
 90
        1
176
     1
 90
        2
176
     1
 40
0.6
176
     1
 40
30.0
176
     1
 62
     7
420
 16777215
176
     1
 90
        0
176
     1
 90
        4
176
     1
 62
     7
176
     1
 62
   257
176
     1
 90
        1
176
     1
 90
        1
176
     1
 40
1.0
176
     1
 90
        8
176
     1
 62
   257
176
     1
 40
1.0
176
     1
 90
        1
176
     1
 90
        6
176
     1
 90
        2
176
     1
 62
     8
420
  7895160
176
     1
 90
        3
176
     1
 90
        0
176
     1
 90
        0
176
     1
290
     0
176
     1
 90
        5
176
     1
 40
0.0
176
     1
 90
        0
176
     1
290
     0
176
     1
290
     1
176
     1
290
     1
176
     1
290
     0
176
     1
290
     0
176
     1
290
     0
176
     1
290
     0
176
     1
290
     0
176
     1
290
     0
176
     1
 90
       50
176
     1
 40
0.0
176
     1
 40
1.0
176
     1
 90
        0
176
     1
 62
    18
420
        0
176
     1
 90
       50
176
     1
 90
        3
176
     1
 62
     5
420
      255
176
     1
290
     0
176
     1
 90
       50
176
     1
 90
       50
176
     1
 90
       50
176
     1
290
     0
176
     1
 90
       50
176
     1
 62
   256
176
     0
 40
1.0
176
     0
 90
        2
176
     1
  1
strokes_ogs.tif
176
     1
290
     0
176
     1
 40
1.0
176
     1
 40
1.0
176
     1
  0
VISUALSTYLE
  5
3D
102
{ACAD_REACTORS
330
29
102
}
330
29
100
AcDbVisualStyle
  2
Shaded with edges
 70
    26
177
     3
291
     0
 70
    58
 90
        2
176
     1
 90
        2
176
     1
 90
        1
176
     1
 90
        2
176
     1
 40
0.6
176
     1
 40
30.0
176
     1
 62
     7
420
 16777215
176
     1
 90
        1
176
     1
 90
        2
176
     1
 62
     7
176
     1
 62
   257
176
     1
 90
        2
176
     1
 90
        1
176
     1
 40
1.0
176
     1
 90
        8
176
     1
 62
   257
176
     1
 40
1.0
176
     1
 90
        1
176
     1
 90
        6
176
     1
 90
        2
176
     1
 62
     7
176
     1
 90
        3
176
     1
 90
        0
176
     1
 90
        0
176
     1
290
     0
176
     1
 90
        5
176
     1
 40
0.0
176
     1
 90
        0
176
     1
290
     0
176
     1
290
     1
176
     1
290
     1
176
     1
290
     0
176
     1
290
     0
176
     1
290
     0
176
     1
290
     0
176
     1
290
     0
176
     1
290
     0
176
     1
 90
       50
176
     1
 40
0.0
176
     1
 40
1.0
176
     1
 90
        0
176
     1
 62
    18
420
        0
176
     1
 90
       50
176
     1
 90
        3
176
     1
 62
     5
420
      255
176
     1
290
     0
176
     1
 90
       50
176
     1
 90
       50
176
     1
 90
       50
176
     1
290
     0
176
     1
 90
       50
176
     1
 62
   256
176
     0
 40
1.0
176
     0
 90
        2
176
     1
  1
strokes_ogs.tif
176
     1
290
     0
176
     1
 40
1.0
176
     1
 40
1.0
176
     1
  0
VISUALSTYLE
  5
3A
102
{ACAD_REACTORS
330
29
102
}
330
29
100
AcDbVisualStyle
  2
Shades of Gray
 70
    23
177
     3
291
     0
 70
    58
 90
        2
176
     1
 90
        2
176
     1
 90
        3
176
     1
 90
        0
176
     1
 40
0.6
176
     1
 40
30.0
176
     1
 62
     7
420
 16777215
176
     1
 90
        2
176
     1
 90
        2
176
     1
 62
     7
176
     1
 62
     7
176
     1
 90
        1
176
     1
 90
        1
176
     1
 40
40.0
176
     1
 90
        8
176
     1
 62
     7
176
     1
 40
1.0
176
     1
 90
        1
176
     1
 90
        6
176
     1
 90
        2
176
     1
 62
     7
176
     1
 90
        3
176
     1
 90
        0
176
     1
 90
        0
176
     1
290
     0
176
     1
 90
        1
176
     1
 40
0.0
176
     1
 90
        0
176
     1
290
     0
176
     1
290
     1
176
     1
290
     1
176
     1
290
     0
176
     1
290
     0
176
     1
290
     0
176
     1
290
     0
176
     1
290
     0
176
     1
290
     0
176
     1
 90
       50
176
     1
 40
0.0
176
     1
 40
1.0
176
     1
 90
        0
176
     1
 62
    18
420
        0
176
     1
 90
       50
176
     1
 90
        3
176
     1
 62
     5
420
      255
176
     1
290
     0
176
     1
 90
       50
176
     1
 90
       50
176
     1
 90
       50
176
     1
290
     0
176
     1
 90
       50
176
     1
 62
   256
176
     0
 40
1.0
176
     0
 90
        2
176
     1
  1
strokes_ogs.tif
176
     1
290
     0
176
     1
 40
1.0
176
     1
 40
1.0
176
     1
  0
VISUALSTYLE
  5
3B
102
{ACAD_REACTORS
330
29
102
}
330
29
100
AcDbVisualStyle
  2
Sketchy
 70
    24
177
     3
291
     0
 70
    58
 90
        1
176
     1
 90
        2
176
     1
 90
        2
176
     1
 90
        0
176
     1
 40
0.6
176
     1
 40
30.0
176
     1
 62
     7
420
 16777215
176
     1
 90
        2
176
     1
 90
        2
176
     1
 62
     7
176
     1
 62
     7
176
     1
 90
        1
176
     1
 90
        1
176
     1
 40
40.0
176
     1
 90
       11
176
     1
 62
     7
176
     1
 40
1.0
176
     1
 90
        1
176
     1
 90
        6
176
     1
 90
        2
176
     1
 62
     7
176
     1
 90
        6
176
     1
 90
        0
176
     1
 90
        0
176
     1
290
     0
176
     1
 90
        1
176
     1
 40
0.0
176
     1
 90
        0
176
     1
290
     0
176
     1
290
     1
176
     1
290
     1
176
     1
290
     0
176
     1
290
     0
176
     1
290
     0
176
     1
290
     0
176
     1
290
     0
176
     1
290
     0
176
     1
 90
       50
176
     1
 40
0.0
176
     1
 40
1.0
176
     1
 90
        0
176
     1
 62
    18
420
        0
176
     1
 90
       50
176
     1
 90
        3
176
     1
 62
     5
420
      255
176
     1
290
     0
176
     1
 90
       50
176
     1
 90
       50
176
     1
 90
       50
176
     1
290
     0
176
     1
 90
       50
176
     1
 62
   256
176
     0
 40
1.0
176
     0
 90
        2
176
     1
  1
strokes_ogs.tif
176
     1
290
     0
176
     1
 40
1.0
176
     1
 40
1.0
176
     1
  0
VISUALSTYLE
  5
36
102
{ACAD_REACTORS
330
29
102
}
330
29
100
AcDbVisualStyle
  2
Thicken
 70
    13
177
     3
291
     1
 70
    58
 90
        2
176
     1
 90
        2
176
     1
 90
        0
176
     1
 90
        0
176
     1
 40
0.6
176
     1
 40
30.0
176
     1
 62
     7
420
 16777215
176
     1
 90
        1
176
     1
 90
        4
176
     1
 62
     7
176
     1
 62
   257
176
     1
 90
        1
176
     1
 90
        1
176
     1
 40
1.0
176
     1
 90
       12
176
     1
 62
     7
176
     1
 40
1.0
176
     1
 90
        1
176
     1
 90
        6
176
     1
 90
        2
176
     1
 62
     7
176
     1
 90
        5
176
     1
 90
        0
176
     1
 90
        0
176
     1
290
     0
176
     1
 90
        1
176
     1
 40
0.0
176
     1
 90
        0
176
     1
290
     0
176
     1
290
     1
176
     1
290
     1
176
     1
290
     0
176
     1
290
     0
176
     1
290
     0
176
     1
290
     0
176
     1
290
     0
176
     1
290
     0
176
     1
 90
       50
176
     1
 40
0.0
176
     1
 40
1.0
176
     1
 90
        0
176
     1
 62
    18
420
        0
176
     1
 90
       50
176
     1
 90
        3
176
     1
 62
     5
420
      255
176
     1
290
     0
176
     1
 90
       50
176
     1
 90
       50
176
     1
 90
       50
176
     1
290
     0
176
     1
 90
       50
176
     1
 62
   256
176
     0
 40
1.0
176
     0
 90
        2
176
     1
  1
strokes_ogs.tif
176
     1
290
     0
176
     1
 40
1.0
176
     1
 40
1.0
176
     1
  0
VISUALSTYLE
  5
30
102
{ACAD_REACTORS
330
29
102
}
330
29
100
AcDbVisualStyle
  2
Wireframe
 70
     5
177
     3
291
     0
 70
    58
 90
        0
176
     1
 90
        2
176
     1
 90
        0
176
     1
 90
        0
176
     1
 40
0.6
176
     1
 40
30.0
176
     1
 62
     7
420
 16777215
176
     1
 90
        1
176
     1
 90
        4
176
     1
 62
     7
176
     1
 62
   257
176
     1
 90
        1
176
     1
 90
        1
176
     1
 40
1.0
176
     1
 90
        0
176
     1
 62
   257
176
     1
 40
1.0
176
     1
 90
        1
176
     1
 90
        6
176
     1
 90
        2
176
     1
 62
     7
176
     1
 90
        3
176
     1
 90
        0
176
     1
 90
        0
176
     1
290
     0
176
     1
 90
        1
176
     1
 40
0.0
176
     1
 90
        0
176
     1
290
     0
176
     1
290
     1
176
     1
290
     1
176
     1
290
     0
176
     1
290
     0
176
     1
290
     0
176
     1
290
     0
176
     1
290
     0
176
     1
290
     0
176
     1
 90
       50
176
     1
 40
0.0
176
     1
 40
1.0
176
     1
 90
        0
176
     1
 62
    18
420
        0
176
     1
 90
       50
176
     1
 90
        3
176
     1
 62
     5
420
      255
176
     1
290
     0
176
     1
 90
       50
176
     1
 90
       50
176
     1
 90
       50
176
     1
290
     0
176
     1
 90
       50
176
     1
 62
   256
176
     0
 40
1.0
176
     0
 90
        2
176
     1
  1
strokes_ogs.tif
176
     1
290
     0
176
     1
 40
1.0
176
     1
 40
1.0
176
     1
  0
VISUALSTYLE
  5
3C
102
{ACAD_REACTORS
330
29
102
}
330
29
100
AcDbVisualStyle
  2
X-Ray
 70
    25
177
     3
291
     0
 70
    58
 90
        2
176
     1
 90
        2
176
     1
 90
        1
176
     1
 90
        1
176
     1
 40
0.5
176
     1
 40
30.0
176
     1
 62
     7
420
 16777215
176
     1
 90
        1
176
     1
 90
        0
176
     1
 62
     7
176
     1
 62
   257
176
     1
 90
        1
176
     1
 90
        1
176
     1
 40
1.0
176
     1
 90
        8
176
     1
 62
     7
176
     1
 40
1.0
176
     1
 90
        1
176
     1
 90
        6
176
     1
 90
        2
176
     1
 62
     7
176
     1
 90
        3
176
     1
 90
        0
176
     1
 90
        0
176
     1
290
     0
176
     1
 90
       13
176
     1
 40
0.0
176
     1
 90
        0
176
     1
290
     0
176
     1
290
     1
176
     1
290
     1
176
     1
290
     0
176
     1
290
     0
176
     1
290
     0
176
     1
290
     0
176
     1
290
     0
176
     1
290
     0
176
     1
 90
       50
176
     1
 40
0.0
176
     1
 40
1.0
176
     1
 90
        0
176
     1
 62
    18
420
        0
176
     1
 90
       50
176
     1
 90
        3
176
     1
 62
     5
420
      255
176
     1
290
     0
176
     1
 90
       50
176
     1
 90
       50
176
     1
 90
       50
176
     1
290
     0
176
     1
 90
       50
176
     1
 62
   256
176
     0
 40
1.0
176
     0
 90
        2
176
     1
  1
strokes_ogs.tif
176
     1
290
     0
176
     1
 40
1.0
176
     1
 40
1.0
176
     1
  0
DICTIONARYVAR
  5
A9
102
{ACAD_REACTORS
330
A4
102
}
330
A4
100
DictionaryVariables
280
     0
  1
1:1
  0
DICTIONARYVAR
  5
A6
102
{ACAD_REACTORS
330
A4
102
}
330
A4
100
DictionaryVariables
280
     0
  1
STANDARD
  0
DICTIONARYVAR
  5
A5
102
{ACAD_REACTORS
330
A4
102
}
330
A4
100
DictionaryVariables
280
     0
  1
STANDARD
  0
DICTIONARYVAR
  5
A7
102
{ACAD_REACTORS
330
A4
102
}
330
A4
100
DictionaryVariables
280
     0
  1
Imperial24
  0
DICTIONARYVAR
  5
A8
102
{ACAD_REACTORS
330
A4
102
}
330
A4
100
DictionaryVariables
280
     0
  1
Imperial24
  0
DICTIONARY
  5
1A
330
19
100
AcDbDictionary
280
     1
281
     1
  3
BUMPTILE
360
1C
  3
DIFFUSETILE
360
1B
  3
OPACITYTILE
360
1F
  3
REFLECTIONTILE
360
1E
  3
REFRACTIONTILE
360
20
  3
SPECULARTILE
360
1D
  0
DICTIONARY
  5
12
330
11
100
AcDbDictionary
280
     1
281
     1
  3
BUMPTILE
360
14
  3
DIFFUSETILE
360
13
  3
OPACITYTILE
360
17
  3
REFLECTIONTILE
360
16
  3
REFRACTIONTILE
360
18
  3
SPECULARTILE
360
15
  0
DICTIONARY
  5
22
330
21
100
AcDbDictionary
280
     1
281
     1
  3
BUMPTILE
360
24
  3
DIFFUSETILE
360
23
  3
OPACITYTILE
360
27
  3
REFLECTIONTILE
360
26
  3
REFRACTIONTILE
360
28
  3
SPECULARTILE
360
25
  0
DICTIONARY
  5
AA
330
65
100
AcDbDictionary
280
     1
281
     1
  3
ACAD_ROUNDTRIP_2008_TABLESTYLE_CELLSTYLEMAP
360
AB
  0
XRECORD
  5
1C
102
{ACAD_REACTORS
330
1A
102
}
330
1A
100
AcDbXrecord
280
     1
270
     1
271
     1
  0
XRECORD
  5
1B
102
{ACAD_REACTORS
330
1A
102
}
330
1A
100
AcDbXrecord
280
     1
270
     1
271
     1
  0
XRECORD
  5
1F
102
{ACAD_REACTORS
330
1A
102
}
330
1A
100
AcDbXrecord
280
     1
270
     1
271
     1
  0
XRECORD
  5
1E
102
{ACAD_REACTORS
330
1A
102
}
330
1A
100
AcDbXrecord
280
     1
270
     1
271
     1
  0
XRECORD
  5
20
102
{ACAD_REACTORS
330
1A
102
}
330
1A
100
AcDbXrecord
280
     1
270
     1
271
     1
  0
XRECORD
  5
1D
102
{ACAD_REACTORS
330
1A
102
}
330
1A
100
AcDbXrecord
280
     1
270
     1
271
     1
  0
XRECORD
  5
14
102
{ACAD_REACTORS
330
12
102
}
330
12
100
AcDbXrecord
280
     1
270
     1
271
     1
  0
XRECORD
  5
13
102
{ACAD_REACTORS
330
12
102
}
330
12
100
AcDbXrecord
280
     1
270
     1
271
     1
  0
XRECORD
  5
17
102
{ACAD_REACTORS
330
12
102
}
330
12
100
AcDbXrecord
280
     1
270
     1
271
     1
  0
XRECORD
  5
16
102
{ACAD_REACTORS
330
12
102
}
330
12
100
AcDbXrecord
280
     1
270
     1
271
     1
  0
XRECORD
  5
18
102
{ACAD_REACTORS
330
12
102
}
330
12
100
AcDbXrecord
280
     1
270
     1
271
     1
  0
XRECORD
  5
15
102
{ACAD_REACTORS
330
12
102
}
330
12
100
AcDbXrecord
280
     1
270
     1
271
     1
  0
XRECORD
  5
24
102
{ACAD_REACTORS
330
22
102
}
330
22
100
AcDbXrecord
280
     1
270
     1
271
     1
  0
XRECORD
  5
23
102
{ACAD_REACTORS
330
22
102
}
330
22
100
AcDbXrecord
280
     1
270
     1
271
     1
  0
XRECORD
  5
27
102
{ACAD_REACTORS
330
22
102
}
330
22
100
AcDbXrecord
280
     1
270
     1
271
     1
  0
XRECORD
  5
26
102
{ACAD_REACTORS
330
22
102
}
330
22
100
AcDbXrecord
280
     1
270
     1
271
     1
  0
XRECORD
  5
28
102
{ACAD_REACTORS
330
22
102
}
330
22
100
AcDbXrecord
280
     1
270
     1
271
     1
  0
XRECORD
  5
25
102
{ACAD_REACTORS
330
22
102
}
330
22
100
AcDbXrecord
280
     1
270
     1
271
     1
  0
CELLSTYLEMAP
  5
AB
102
{ACAD_REACTORS
330
AA
102
}
330
AA
100
AcDbCellStyleMap
 90
        3
300
CELLSTYLE
  1
TABLEFORMAT_BEGIN
 90
        5
170
     1
 91
        0
 92
    32768
 62
   257
 93
        1
300
CONTENTFORMAT
  1
CONTENTFORMAT_BEGIN
 90
        0
 91
        0
 92
      512
 93
        0
300

 40
0.0
140
1.0
 94
        5
 62
     0
340
55
144
0.25
309
CONTENTFORMAT_END
171
     0
 94
        0
309
TABLEFORMAT_END
  1
CELLSTYLE_BEGIN
 90
        1
 91
        1
300
_TITLE
309
CELLSTYLE_END
300
CELLSTYLE
  1
TABLEFORMAT_BEGIN
 90
        5
170
     1
 91
        0
 92
        0
 62
   257
 93
        1
300
CONTENTFORMAT
  1
CONTENTFORMAT_BEGIN
 90
        0
 91
        0
 92
      512
 93
        0
300

 40
0.0
140
1.0
 94
        5
 62
     0
340
55
144
0.18
309
CONTENTFORMAT_END
171
     0
 94
        0
309
TABLEFORMAT_END
  1
CELLSTYLE_BEGIN
 90
        2
 91
        1
300
_HEADER
309
CELLSTYLE_END
300
CELLSTYLE
  1
TABLEFORMAT_BEGIN
 90
        5
170
     1
 91
        0
 92
        0
 62
   257
 93
        1
300
CONTENTFORMAT
  1
CONTENTFORMAT_BEGIN
 90
        0
 91
        0
 92
      512
 93
        0
300

 40
0.0
140
1.0
 94
        2
 62
     0
340
55
144
0.18
309
CONTENTFORMAT_END
171
     0
 94
        0
309
TABLEFORMAT_END
  1
CELLSTYLE_BEGIN
 90
        3
 91
        2
300
_DATA
309
CELLSTYLE_END
  0
ENDSEC
  0
EOF
